mtllib new-4.mtl
v -0.380079 -0.899295 0.025319
v 0.385874 -0.899295 -0.022059
v 0.385874 -0.899295 0.025319
v -0.380079 -0.899295 -0.022059
v -0.380079 -0.899295 0.025319
v -0.380079 0.845813 -0.022059
v -0.380079 -0.899295 -0.022059
v -0.380079 0.845813 0.025319
v -0.380079 -0.899295 -0.022059
v -0.277425 -0.796642 -0.022059
v 0.385874 -0.899295 -0.022059
v -0.380079 0.845813 -0.022059
v 0.002897 -0.796642 -0.022059
v -0.277425 -0.133343 -0.022059
v -0.277425 -0.066224 -0.022059
v 0.283220 -0.133343 -0.022059
v 0.002897 -0.066224 -0.022059
v -0.277425 0.170669 -0.022059
v -0.277425 0.237789 -0.022059
v 0.283220 0.170669 -0.022059
v 0.002897 0.237789 -0.022059
v -0.277425 0.743159 -0.022059
v 0.283220 0.743159 -0.022059
v 0.283220 -0.796642 -0.022059
v 0.385874 0.845813 -0.022059
v 0.283220 -0.066224 -0.022059
v 0.283220 0.237789 -0.022059
v 0.385874 0.845813 0.025319
v 0.385874 -0.899295 -0.022059
v 0.385874 0.845813 -0.022059
v 0.385874 -0.899295 0.025319
v 0.385874 -0.899295 0.025319
v 0.283220 -0.796642 0.025319
v -0.380079 -0.899295 0.025319
v 0.385874 0.845813 0.025319
v 0.283220 -0.133343 0.025319
v 0.283220 -0.066224 0.025319
v -0.277425 -0.133343 0.025319
v 0.283220 0.170669 0.025319
v 0.283220 0.237789 0.025319
v -0.277425 0.170669 0.025319
v 0.283220 0.743159 0.025319
v -0.277425 0.743159 0.025319
v -0.277425 -0.796642 0.025319
v -0.380079 0.845813 0.025319
v 0.002897 -0.796642 0.025319
v -0.277425 -0.066224 0.025319
v -0.277425 0.237789 0.025319
v 0.385874 0.845813 -0.022059
v -0.380079 0.845813 0.025319
v 0.385874 0.845813 0.025319
v -0.380079 0.845813 -0.022059
vn 0.000000 -1.000000 0.000000
vn 0.000000 1.000000 0.000000
vn -1.000000 0.000000 0.000000
vn 1.000000 0.000000 0.000000
vn 0.000000 0.000000 -1.000000
vn 0.000000 0.000000 1.000000
vt -1.089695 0.019911
vt 0.059223 -0.014222
vt 0.059223 0.019911
vt -1.089695 -0.014222
vt 0.041456 -0.000000
vt -0.029611 1.257239
vt -0.029611 -0.000000
vt 0.041456 1.257239
vt 1.089695 0.000000
vt 0.935716 0.073955
vt -0.059223 0.000000
vt 1.089695 1.257239
vt 0.515236 0.073955
vt 0.935716 0.551820
vt 0.935716 0.600175
vt 0.094756 0.551820
vt 0.515236 0.600175
vt 0.935716 0.770841
vt 0.935716 0.819197
vt 0.094756 0.770841
vt 0.515236 0.819197
vt 0.935716 1.183284
vt 0.094756 1.183284
vt 0.094756 0.073955
vt -0.059223 1.257239
vt 0.094756 0.600175
vt 0.094756 0.819197
vt -0.041456 1.257239
vt 0.029611 0.000000
vt 0.029611 1.257239
vt -0.041456 0.000000
vt 0.059223 0.000000
vt -0.094756 0.073955
vt -1.089695 0.000000
vt 0.059223 1.257239
vt -0.094756 0.551820
vt -0.094756 0.600175
vt -0.935716 0.551820
vt -0.094756 0.770841
vt -0.094756 0.819197
vt -0.935716 0.770841
vt -0.094756 1.183284
vt -0.935716 1.183284
vt -0.935716 0.073955
vt -1.089695 1.257239
vt -0.515236 0.073955
vt -0.935716 0.600175
vt -0.935716 0.819197
vt -0.059223 -0.014222
vt 1.089695 0.019911
vt -0.059223 0.019911
vt 1.089695 -0.014222
usemtl material-0
f 1/1/1 2/2/1 3/3/1
f 3/3/2 2/2/2 1/1/2
f 2/2/1 1/1/1 4/4/1
f 4/4/2 1/1/2 2/2/2
f 5/5/3 6/6/3 7/7/3
f 7/7/4 6/6/4 5/5/4
f 6/6/3 5/5/3 8/8/3
f 8/8/4 5/5/4 6/6/4
f 9/9/5 10/10/5 11/11/5
f 11/11/6 10/10/6 9/9/6
f 10/10/5 9/9/5 12/12/5
f 12/12/6 9/9/6 10/10/6
f 11/11/5 10/10/5 13/13/5
f 13/13/6 10/10/6 11/11/6
f 10/10/5 12/12/5 14/14/5
f 14/14/6 12/12/6 10/10/6
f 14/14/5 12/12/5 15/15/5
f 15/15/6 12/12/6 14/14/6
f 14/14/5 15/15/5 16/16/5
f 16/16/6 15/15/6 14/14/6
f 16/16/5 15/15/5 17/17/5
f 17/17/6 15/15/6 16/16/6
f 15/15/5 12/12/5 18/18/5
f 18/18/6 12/12/6 15/15/6
f 18/18/5 12/12/5 19/19/5
f 19/19/6 12/12/6 18/18/6
f 18/18/5 19/19/5 20/20/5
f 20/20/6 19/19/6 18/18/6
f 20/20/5 19/19/5 21/21/5
f 21/21/6 19/19/6 20/20/6
f 19/19/5 12/12/5 22/22/5
f 22/22/6 12/12/6 19/19/6
f 22/22/5 12/12/5 23/23/5
f 23/23/6 12/12/6 22/22/6
f 11/11/5 24/24/5 25/25/5
f 25/25/6 24/24/6 11/11/6
f 24/24/5 11/11/5 13/13/5
f 13/13/6 11/11/6 24/24/6
f 25/25/5 24/24/5 16/16/5
f 16/16/6 24/24/6 25/25/6
f 25/25/5 16/16/5 26/26/5
f 26/26/6 16/16/6 25/25/6
f 26/26/5 16/16/5 17/17/5
f 17/17/6 16/16/6 26/26/6
f 25/25/5 26/26/5 20/20/5
f 20/20/6 26/26/6 25/25/6
f 25/25/5 20/20/5 27/27/5
f 27/27/6 20/20/6 25/25/6
f 27/27/5 20/20/5 21/21/5
f 21/21/6 20/20/6 27/27/6
f 25/25/5 27/27/5 23/23/5
f 23/23/6 27/27/6 25/25/6
f 25/25/5 23/23/5 12/12/5
f 12/12/6 23/23/6 25/25/6
f 28/28/4 29/29/4 30/30/4
f 30/30/3 29/29/3 28/28/3
f 29/29/4 28/28/4 31/31/4
f 31/31/3 28/28/3 29/29/3
f 32/32/6 33/33/6 34/34/6
f 34/34/5 33/33/5 32/32/5
f 33/33/6 32/32/6 35/35/6
f 35/35/5 32/32/5 33/33/5
f 33/33/6 35/35/6 36/36/6
f 36/36/5 35/35/5 33/33/5
f 36/36/6 35/35/6 37/37/6
f 37/37/5 35/35/5 36/36/5
f 37/37/6 35/35/6 39/39/6
f 39/39/5 35/35/5 37/37/5
f 39/39/6 35/35/6 40/40/6
f 40/40/5 35/35/5 39/39/5
f 40/40/6 35/35/6 42/42/6
f 42/42/5 35/35/5 40/40/5
f 42/42/6 35/35/6 43/43/6
f 43/43/5 35/35/5 42/42/5
f 34/34/6 44/44/6 45/45/6
f 45/45/5 44/44/5 34/34/5
f 44/44/6 34/34/6 46/46/6
f 46/46/5 34/34/5 44/44/5
f 46/46/6 34/34/6 33/33/6
f 33/33/5 34/34/5 46/46/5
f 45/45/6 44/44/6 38/38/6
f 38/38/5 44/44/5 45/45/5
f 45/45/6 38/38/6 47/47/6
f 47/47/5 38/38/5 45/45/5
f 45/45/6 47/47/6 41/41/6
f 41/41/5 47/47/5 45/45/5
f 45/45/6 41/41/6 48/48/6
f 48/48/5 41/41/5 45/45/5
f 45/45/6 48/48/6 43/43/6
f 43/43/5 48/48/5 45/45/5
f 45/45/6 43/43/6 35/35/6
f 35/35/5 43/43/5 45/45/5
f 49/49/2 50/50/2 51/51/2
f 51/51/1 50/50/1 49/49/1
f 50/50/2 49/49/2 52/52/2
f 52/52/1 49/49/1 50/50/1