# SSTK version 0.8.0
# 3
mtllib original-3.mtl
o #ID8
v -0.403768 0.869502 -0.063516
v 0.409563 0.869502 0.054931
v -0.403768 0.869502 0.054931
v 0.409563 0.869502 -0.063516
v 0.409563 0.869502 -0.063516
v 0.409563 -0.899295 0.054931
v 0.409563 0.869502 0.054931
v 0.409563 -0.899295 -0.063516
v -0.403768 -0.899295 -0.063516
v -0.403768 0.869502 0.054931
v -0.403768 -0.899295 0.054931
v -0.403768 0.869502 -0.063516
v 0.409563 -0.899295 0.054931
v -0.403768 -0.899295 -0.063516
v -0.403768 -0.899295 0.054931
v 0.409563 -0.899295 -0.063516
vt -0.03553353 0.08248855
vt -1.255518 -0.002844431
vt -0.03553353 -0.002844433
vt -1.255518 0.08248855
vt -0.1717454 1.291373
vt 0.005922249 0.0170666
vt 0.005922249 1.291373
vt -0.1717454 0.0170666
vt 0.1717454 0.0170666
vt -0.005922255 1.291373
vt -0.005922255 0.0170666
vt 0.1717454 1.291373
vt 1.255518 -0.002844431
vt 0.03553353 0.08248855
vt 0.03553353 -0.002844433
vt 1.255518 0.08248855
vn 0 -1 0
vn 0 1 0
vn -1 0 -2.079899e-9
vn 1 0 2.079899e-9
vn 1 0 0
vn -1 0 0
usemtl material_0_2
f 1/1/1 2/2/1 3/3/1
f 3/3/2 2/2/2 1/1/2
f 2/2/1 1/1/1 4/4/1
f 4/4/2 1/1/2 2/2/2
f 5/5/3 6/6/3 7/7/3
f 7/7/4 6/6/4 5/5/4
f 6/6/3 5/5/3 8/8/3
f 8/8/4 5/5/4 6/6/4
f 9/9/5 10/10/5 11/11/5
f 11/11/6 10/10/6 9/9/6
f 10/10/5 9/9/5 12/12/5
f 12/12/6 9/9/6 10/10/6
f 13/13/2 14/14/2 15/15/2
f 15/15/1 14/14/1 13/13/1
f 14/14/2 13/13/2 16/16/2
f 16/16/1 13/13/1 14/14/1
