# SSTK version 0.8.0
# 17
mtllib original-17.mtl
o instance_4/Component_80/ID139#ID139
v 0.409563 -0.899295 0.001630
v 0.409563 0.869502 0.039138
v 0.409563 -0.899295 0.039138
v 0.409563 0.869502 -0.047723
v 0.409563 -0.899295 -0.047723
v 0.409563 0.869502 0.039138
v -0.403768 0.869502 -0.047723
v -0.403768 0.869502 0.039138
v 0.409563 0.869502 -0.047723
v 0.409563 0.869502 0.039138
v 0.385874 -0.899295 0.039138
v 0.409563 -0.899295 0.039138
v 0.385874 0.845813 0.039138
v -0.380079 0.845813 0.039138
v -0.380079 -0.899295 0.039138
v -0.403768 0.869502 0.039138
v -0.403768 -0.899295 0.039138
v 0.385874 -0.899295 0.001630
v 0.409563 -0.899295 0.039138
v 0.385874 -0.899295 0.039138
v 0.409563 -0.899295 0.001630
v 0.385874 -0.899295 -0.047723
v 0.409563 -0.899295 0.001630
v 0.385874 -0.899295 0.001630
v 0.409563 -0.899295 -0.047723
v -0.403768 0.869502 -0.047723
v -0.380079 -0.899295 -0.047723
v -0.403768 -0.899295 -0.047723
v -0.380079 0.845813 -0.047723
v 0.409563 0.869502 -0.047723
v 0.385874 -0.899295 -0.047723
v 0.409563 -0.899295 -0.047723
v 0.385874 0.845813 -0.047723
v -0.403768 0.869502 -0.047723
v -0.403768 -0.899295 0.039138
v -0.403768 0.869502 0.039138
v -0.403768 -0.899295 0.001630
v -0.403768 -0.899295 -0.047723
v -0.403768 -0.899295 0.001630
v -0.380079 -0.899295 0.039138
v -0.403768 -0.899295 0.039138
v -0.380079 -0.899295 0.001630
v -0.380079 -0.899295 0.001630
v -0.380079 0.845813 0.039138
v -0.380079 -0.899295 0.039138
v -0.380079 0.845813 -0.047723
v -0.380079 -0.899295 -0.047723
v -0.380079 0.845813 -0.047723
v 0.385874 0.845813 0.039138
v -0.380079 0.845813 0.039138
v 0.385874 0.845813 -0.047723
v 0.385874 0.845813 -0.047723
v 0.385874 -0.899295 0.039138
v 0.385874 0.845813 0.039138
v 0.385874 -0.899295 0.001630
v 0.385874 -0.899295 -0.047723
v -0.403768 -0.899295 -0.047723
v -0.380079 -0.899295 0.001630
v -0.403768 -0.899295 0.001630
v -0.380079 -0.899295 -0.047723
vt 0.03553353 5.942095e-13
vt -0.02072789 1.274306
vt -0.02072789 5.942095e-13
vt 0.1095617 1.274306
vt 0.1095617 5.942095e-13
vt -1.07785 -0.009955515
vt -2.297835 0.05262201
vt -2.297835 -0.009955515
vt -1.07785 0.05262201
vt -1.07785 1.274306
vt -1.113384 1.540071e-16
vt -1.07785 2.072909e-29
vt -1.113384 1.257239
vt -2.262301 1.257239
vt -2.262301 1.540071e-16
vt -2.297835 1.274306
vt -2.297835 2.072909e-29
vt 1.113384 0.0170666
vt 1.07785 -0.009955515
vt 1.113384 -0.009955515
vt 1.07785 0.0170666
vt 1.113384 0.05262201
vt 1.07785 0.05262201
vt 2.297835 1.274306
vt 2.262301 1.540071e-16
vt 2.297835 -1.018223e-28
vt 2.262301 1.257239
vt 1.07785 1.274306
vt 1.113384 1.540071e-16
vt 1.07785 -1.018223e-28
vt 1.113384 1.257239
vt -0.1095617 1.274306
vt 0.02072789 1.954955e-33
vt 0.02072789 1.274306
vt -0.03553353 1.954955e-33
vt -0.1095617 1.954955e-33
vt 2.297835 0.0170666
vt 2.262301 -0.009955515
vt 2.297835 -0.009955515
vt 2.262301 0.0170666
vt 0.03553353 7.700357e-17
vt -0.02072789 1.257239
vt -0.02072789 1.540071e-16
vt 0.1095617 1.257239
vt 0.1095617 1.540071e-16
vt 2.262301 0.05262201
vt -0.1095617 1.257239
vt 0.02072789 6.22285e-13
vt 0.02072789 1.257239
vt -0.03553353 6.22208e-13
vt -0.1095617 6.22285e-13
vt 2.297835 0.05262201
vn 1 0 0
vn -1 0 0
vn 0 1 0
vn 0 -1 0
vn 0 0 1
vn 0 0 -1
usemtl material_0_2
f 1/1/1 2/2/1 3/3/1
f 3/3/2 2/2/2 1/1/2
f 2/2/1 1/1/1 4/4/1
f 4/4/2 1/1/2 2/2/2
f 4/4/1 1/1/1 5/5/1
f 5/5/2 1/1/2 4/4/2
f 6/6/3 7/7/3 8/8/3
f 8/8/4 7/7/4 6/6/4
f 7/7/3 6/6/3 9/9/3
f 9/9/4 6/6/4 7/7/4
f 10/10/5 11/11/5 12/12/5
f 12/12/6 11/11/6 10/10/6
f 11/11/5 10/10/5 13/13/5
f 13/13/6 10/10/6 11/11/6
f 13/13/5 10/10/5 14/14/5
f 14/14/6 10/10/6 13/13/6
f 15/15/5 16/16/5 17/17/5
f 17/17/6 16/16/6 15/15/6
f 16/16/5 15/15/5 14/14/5
f 14/14/6 15/15/6 16/16/6
f 16/16/5 14/14/5 10/10/5
f 10/10/6 14/14/6 16/16/6
f 18/18/4 19/19/4 20/20/4
f 20/20/3 19/19/3 18/18/3
f 19/19/4 18/18/4 21/21/4
f 21/21/3 18/18/3 19/19/3
f 22/22/4 23/21/4 24/18/4
f 24/18/3 23/21/3 22/22/3
f 23/21/4 22/22/4 25/23/4
f 25/23/3 22/22/3 23/21/3
f 26/24/6 27/25/6 28/26/6
f 28/26/5 27/25/5 26/24/5
f 27/25/6 26/24/6 29/27/6
f 29/27/5 26/24/5 27/25/5
f 29/27/6 26/24/6 30/28/6
f 30/28/5 26/24/5 29/27/5
f 31/29/6 30/28/6 32/30/6
f 32/30/5 30/28/5 31/29/5
f 30/28/6 31/29/6 33/31/6
f 33/31/5 31/29/5 30/28/5
f 30/28/6 33/31/6 29/27/6
f 29/27/5 33/31/5 30/28/5
f 34/32/2 35/33/2 36/34/2
f 36/34/1 35/33/1 34/32/1
f 35/33/2 34/32/2 37/35/2
f 37/35/1 34/32/1 35/33/1
f 37/35/2 34/32/2 38/36/2
f 38/36/1 34/32/1 37/35/1
f 39/37/4 40/38/4 41/39/4
f 41/39/3 40/38/3 39/37/3
f 40/38/4 39/37/4 42/40/4
f 42/40/3 39/37/3 40/38/3
f 43/41/1 44/42/1 45/43/1
f 45/43/2 44/42/2 43/41/2
f 44/42/1 43/41/1 46/44/1
f 46/44/2 43/41/2 44/42/2
f 46/44/1 43/41/1 47/45/1
f 47/45/2 43/41/2 46/44/2
f 48/46/4 49/20/4 50/38/4
f 50/38/3 49/20/3 48/46/3
f 49/20/4 48/46/4 51/22/4
f 51/22/3 48/46/3 49/20/3
f 52/47/2 53/48/2 54/49/2
f 54/49/1 53/48/1 52/47/1
f 53/48/2 52/47/2 55/50/2
f 55/50/1 52/47/1 53/48/1
f 55/50/2 52/47/2 56/51/2
f 56/51/1 52/47/1 55/50/1
f 57/52/4 58/40/4 59/37/4
f 59/37/3 58/40/3 57/52/3
f 58/40/4 57/52/4 60/46/4
f 60/46/3 57/52/3 58/40/3
