# SSTK version 0.8.0
# 4
mtllib original-4.mtl
o #ID21
v -0.427457 -0.922985 -0.063516
v -0.403768 -0.899295 -0.063516
v 0.433252 -0.922985 -0.063516
v -0.427457 0.893191 -0.063516
v -0.403768 0.869502 -0.063516
v 0.409563 0.869502 -0.063516
v 0.409563 -0.899295 -0.063516
v 0.433252 0.893191 -0.063516
v -0.427457 -0.922985 -0.063516
v 0.433252 -0.922985 0.054931
v -0.427457 -0.922985 0.054931
v 0.433252 -0.922985 -0.063516
v -0.427457 0.893191 -0.063516
v -0.427457 -0.922985 0.054931
v -0.427457 0.893191 0.054931
v -0.427457 -0.922985 -0.063516
v 0.433252 0.893191 0.054931
v -0.427457 0.893191 -0.063516
v -0.427457 0.893191 0.054931
v 0.433252 0.893191 -0.063516
v 0.433252 -0.922985 -0.063516
v 0.433252 0.893191 0.054931
v 0.433252 -0.922985 0.054931
v 0.433252 0.893191 -0.063516
v 0.433252 0.893191 0.054931
v 0.409563 -0.899295 0.054931
v 0.433252 -0.922985 0.054931
v 0.409563 0.869502 0.054931
v -0.403768 0.869502 0.054931
v -0.427457 -0.922985 0.054931
v -0.403768 -0.899295 0.054931
v -0.427457 0.893191 0.054931
vt -6.466784e-10 3.568195e-27
vt -0.03553353 0.0170666
vt -1.291052 1.887077e-18
vt -6.466784e-10 1.308439
vt -0.03553353 1.291373
vt -1.255518 1.291373
vt -1.255518 0.0170666
vt -1.291052 1.308439
vt -1.108595e-10 0.08248855
vt -1.291052 -0.002844431
vt 2.586708e-10 -0.002844433
vt -1.291052 0.08248855
vt -0.1717454 1.308439
vt 0.005922255 7.937225e-28
vt 0.005922255 1.308439
vt -0.1717454 0
vt 1.291052 -0.002844431
vt 1.108595e-10 0.08248855
vt -2.586708e-10 -0.002844433
vt 1.291052 0.08248855
vt 0.1717454 1.887077e-18
vt -0.005922248 1.308439
vt -0.005922248 1.887077e-18
vt 0.1717454 1.308439
vt 1.291052 1.308439
vt 1.255518 0.0170666
vt 1.291052 1.887077e-18
vt 1.255518 1.291373
vt 0.03553353 1.291373
vt -2.771473e-10 6.706813e-28
vt 0.03553353 0.0170666
vt -2.771473e-10 1.308439
vn -3.119844e-9 0 -1
vn 3.119844e-9 0 1
vn 0 -1 0
vn 0 1 0
vn -1 0 0
vn 1 0 0
vn 1 0 2.079899e-9
vn -1 0 -2.079899e-9
usemtl material_0_2
f 1/1/1 2/2/1 3/3/1
f 3/3/2 2/2/2 1/1/2
f 2/2/1 1/1/1 4/4/1
f 4/4/2 1/1/2 2/2/2
f 2/2/1 4/4/1 5/5/1
f 5/5/2 4/4/2 2/2/2
f 5/5/1 4/4/1 6/6/1
f 6/6/2 4/4/2 5/5/2
f 3/3/1 7/7/1 8/8/1
f 8/8/2 7/7/2 3/3/2
f 7/7/1 3/3/1 2/2/1
f 2/2/2 3/3/2 7/7/2
f 8/8/1 7/7/1 6/6/1
f 6/6/2 7/7/2 8/8/2
f 8/8/1 6/6/1 4/4/1
f 4/4/2 6/6/2 8/8/2
f 9/9/3 10/10/3 11/11/3
f 11/11/4 10/10/4 9/9/4
f 10/10/3 9/9/3 12/12/3
f 12/12/4 9/9/4 10/10/4
f 13/13/5 14/14/5 15/15/5
f 15/15/6 14/14/6 13/13/6
f 14/14/5 13/13/5 16/16/5
f 16/16/6 13/13/6 14/14/6
f 17/17/4 18/18/4 19/19/4
f 19/19/3 18/18/3 17/17/3
f 18/18/4 17/17/4 20/20/4
f 20/20/3 17/17/3 18/18/3
f 21/21/7 22/22/7 23/23/7
f 23/23/8 22/22/8 21/21/8
f 22/22/7 21/21/7 24/24/7
f 24/24/8 21/21/8 22/22/8
f 25/25/2 26/26/2 27/27/2
f 27/27/1 26/26/1 25/25/1
f 26/26/2 25/25/2 28/28/2
f 28/28/1 25/25/1 26/26/1
f 28/28/2 25/25/2 29/29/2
f 29/29/1 25/25/1 28/28/1
f 30/30/2 31/31/2 32/32/2
f 32/32/1 31/31/1 30/30/1
f 31/31/2 30/30/2 27/27/2
f 27/27/1 30/30/1 31/31/1
f 31/31/2 27/27/2 26/26/2
f 26/26/1 27/27/1 31/31/1
f 32/32/2 31/31/2 29/29/2
f 29/29/1 31/31/1 32/32/1
f 32/32/2 29/29/2 25/25/2
f 25/25/1 29/29/1 32/32/1
