# SSTK version 0.8.0
# 20
mtllib original-20.mtl
o #ID157
v 0.333757 -0.051651 0.064801
v 0.330650 -0.054035 0.075856
v 0.333757 -0.051651 0.075856
v 0.330650 -0.054035 0.064801
v 0.330650 -0.054035 0.064801
v 0.333757 -0.051651 0.064801
v 0.330650 -0.054035 0.075856
v 0.333757 -0.051651 0.075856
v 0.328266 -0.057143 0.064801
v 0.328266 -0.057143 0.075856
v 0.328266 -0.057143 0.075856
v 0.328266 -0.057143 0.064801
v 0.337376 -0.050152 0.064801
v 0.337376 -0.050152 0.075856
v 0.337376 -0.050152 0.064801
v 0.337376 -0.050152 0.075856
v 0.337376 -0.079136 0.064801
v 0.345142 -0.079136 0.064801
v 0.341259 -0.079647 0.064801
v 0.333757 -0.077637 0.064801
v 0.348760 -0.077637 0.064801
v 0.330650 -0.075253 0.064801
v 0.351868 -0.075253 0.064801
v 0.328266 -0.072146 0.064801
v 0.354252 -0.072146 0.064801
v 0.326767 -0.068527 0.064801
v 0.355751 -0.068527 0.064801
v 0.326255 -0.064644 0.064801
v 0.356262 -0.064644 0.064801
v 0.326767 -0.060761 0.064801
v 0.355751 -0.060761 0.064801
v 0.354252 -0.057143 0.064801
v 0.328266 -0.057143 0.064801
v 0.330650 -0.054035 0.064801
v 0.351868 -0.054035 0.064801
v 0.333757 -0.051651 0.064801
v 0.348760 -0.051651 0.064801
v 0.337376 -0.050152 0.064801
v 0.345142 -0.050152 0.064801
v 0.341259 -0.049641 0.064801
v 0.341259 -0.049641 0.064801
v 0.337376 -0.050152 0.064801
v 0.345142 -0.050152 0.064801
v 0.348760 -0.051651 0.064801
v 0.333757 -0.051651 0.064801
v 0.351868 -0.054035 0.064801
v 0.330650 -0.054035 0.064801
v 0.354252 -0.057143 0.064801
v 0.328266 -0.057143 0.064801
v 0.326767 -0.060761 0.064801
v 0.355751 -0.060761 0.064801
v 0.356262 -0.064644 0.064801
v 0.326255 -0.064644 0.064801
v 0.355751 -0.068527 0.064801
v 0.326767 -0.068527 0.064801
v 0.354252 -0.072146 0.064801
v 0.328266 -0.072146 0.064801
v 0.351868 -0.075253 0.064801
v 0.330650 -0.075253 0.064801
v 0.348760 -0.077637 0.064801
v 0.333757 -0.077637 0.064801
v 0.345142 -0.079136 0.064801
v 0.337376 -0.079136 0.064801
v 0.341259 -0.079647 0.064801
v 0.326767 -0.060761 0.064801
v 0.326767 -0.060761 0.075856
v 0.326767 -0.060761 0.075856
v 0.326767 -0.060761 0.064801
v 0.341259 -0.049641 0.064801
v 0.341259 -0.049641 0.075856
v 0.341259 -0.049641 0.064801
v 0.341259 -0.049641 0.075856
v 0.345142 -0.050152 0.064801
v 0.345142 -0.050152 0.075856
v 0.345142 -0.050152 0.064801
v 0.345142 -0.050152 0.075856
v 0.348760 -0.051651 0.064801
v 0.348760 -0.051651 0.075856
v 0.348760 -0.051651 0.064801
v 0.348760 -0.051651 0.075856
v 0.351868 -0.054035 0.064801
v 0.351868 -0.054035 0.075856
v 0.351868 -0.054035 0.064801
v 0.351868 -0.054035 0.075856
v 0.354252 -0.057143 0.075856
v 0.354252 -0.057143 0.064801
v 0.354252 -0.057143 0.075856
v 0.354252 -0.057143 0.064801
v 0.355751 -0.060761 0.075856
v 0.355751 -0.060761 0.064801
v 0.355751 -0.060761 0.075856
v 0.355751 -0.060761 0.064801
v 0.356262 -0.064644 0.064801
v 0.356262 -0.064644 0.075856
v 0.356262 -0.064644 0.075856
v 0.356262 -0.064644 0.064801
v 0.355751 -0.068527 0.064801
v 0.355751 -0.068527 0.075856
v 0.355751 -0.068527 0.075856
v 0.355751 -0.068527 0.064801
v 0.354252 -0.072146 0.064801
v 0.354252 -0.072146 0.075856
v 0.354252 -0.072146 0.075856
v 0.354252 -0.072146 0.064801
v 0.351868 -0.075253 0.064801
v 0.351868 -0.075253 0.075856
v 0.351868 -0.075253 0.075856
v 0.351868 -0.075253 0.064801
v 0.348760 -0.077637 0.075856
v 0.348760 -0.077637 0.064801
v 0.348760 -0.077637 0.064801
v 0.348760 -0.077637 0.075856
v 0.345142 -0.079136 0.075856
v 0.345142 -0.079136 0.064801
v 0.345142 -0.079136 0.064801
v 0.345142 -0.079136 0.075856
v 0.341259 -0.079647 0.075856
v 0.341259 -0.079647 0.064801
v 0.341259 -0.079647 0.064801
v 0.341259 -0.079647 0.075856
v 0.337376 -0.079136 0.075856
v 0.337376 -0.079136 0.064801
v 0.337376 -0.079136 0.064801
v 0.337376 -0.079136 0.075856
v 0.333757 -0.077637 0.075856
v 0.333757 -0.077637 0.064801
v 0.333757 -0.077637 0.064801
v 0.333757 -0.077637 0.075856
v 0.330650 -0.075253 0.075856
v 0.330650 -0.075253 0.064801
v 0.330650 -0.075253 0.064801
v 0.330650 -0.075253 0.075856
v 0.328266 -0.072146 0.064801
v 0.328266 -0.072146 0.075856
v 0.328266 -0.072146 0.075856
v 0.328266 -0.072146 0.064801
v 0.326767 -0.068527 0.064801
v 0.326767 -0.068527 0.075856
v 0.326767 -0.068527 0.075856
v 0.326767 -0.068527 0.064801
v 0.326255 -0.064644 0.064801
v 0.326255 -0.064644 0.075856
v 0.326255 -0.064644 0.075856
v 0.326255 -0.064644 0.064801
vn -0.5000000016387101 0.866025402838329 0
vn -0.7071067811865476 0.7071067811865476 0
vn 0.7071067811865476 -0.7071067811865476 0
vn 0.5000000016387101 -0.866025402838329 0
vn -0.866025402838329 0.5000000016387101 0
vn 0.866025402838329 -0.5000000016387101 0
vn -0.25881900959356163 0.9659258358036645 0
vn 0.25881900959356163 -0.9659258358036645 0
vn 0 0 -1
vn 0 0 1
vn -0.9659258358036645 0.25881900959356163 0
vn 0.9659258358036645 -0.25881900959356163 0
vn 0 1 0
vn 0 -1 0
vn 0.25881900959356163 0.9659258358036645 0
vn -0.25881900959356163 -0.9659258358036645 0
vn 0.5000000016387101 0.866025402838329 0
vn -0.5000000016387101 -0.866025402838329 0
vn 0.7071067811865476 0.7071067811865476 0
vn -0.7071067811865476 -0.7071067811865476 0
vn 0.866025402838329 0.5000000016387101 0
vn -0.866025402838329 -0.5000000016387101 0
vn 0.9659258358036645 0.25881900959356163 0
vn -0.9659258358036645 -0.25881900959356163 0
vn 1 0 0
vn -1 0 0
usemtl material_0_0
f 1//1 2//2 3//1
f 2//2 1//1 4//2
f 5//3 6//4 7//3
f 8//4 7//3 6//4
f 9//5 2//2 4//2
f 2//2 9//5 10//5
f 11//6 12//6 7//3
f 5//3 7//3 12//6
f 13//7 3//1 14//7
f 3//1 13//7 1//1
f 6//4 15//8 8//4
f 16//8 8//4 15//8
f 17//9 18//9 19//9
f 18//9 17//9 20//9
f 18//9 20//9 21//9
f 21//9 20//9 22//9
f 21//9 22//9 23//9
f 23//9 22//9 24//9
f 23//9 24//9 25//9
f 25//9 24//9 26//9
f 25//9 26//9 27//9
f 27//9 26//9 28//9
f 27//9 28//9 29//9
f 29//9 28//9 30//9
f 29//9 30//9 31//9
f 31//9 30//9 32//9
f 32//9 30//9 33//9
f 32//9 33//9 34//9
f 32//9 34//9 35//9
f 35//9 34//9 36//9
f 35//9 36//9 37//9
f 37//9 36//9 38//9
f 37//9 38//9 39//9
f 39//9 38//9 40//9
f 41//10 42//10 43//10
f 43//10 42//10 44//10
f 42//10 45//10 44//10
f 44//10 45//10 46//10
f 45//10 47//10 46//10
f 46//10 47//10 48//10
f 47//10 49//10 48//10
f 49//10 50//10 48//10
f 48//10 50//10 51//10
f 51//10 50//10 52//10
f 50//10 53//10 52//10
f 52//10 53//10 54//10
f 53//10 55//10 54//10
f 54//10 55//10 56//10
f 55//10 57//10 56//10
f 56//10 57//10 58//10
f 57//10 59//10 58//10
f 58//10 59//10 60//10
f 59//10 61//10 60//10
f 60//10 61//10 62//10
f 61//10 63//10 62//10
f 64//10 62//10 63//10
f 65//11 10//5 9//5
f 10//5 65//11 66//11
f 67//12 68//12 11//6
f 12//6 11//6 68//12
f 69//13 14//7 70//13
f 14//7 69//13 13//7
f 15//8 71//14 16//8
f 72//14 16//8 71//14
f 73//15 70//13 74//15
f 70//13 73//15 69//13
f 71//14 75//16 72//14
f 76//16 72//14 75//16
f 77//17 74//15 78//17
f 74//15 77//17 73//15
f 75//16 79//18 76//16
f 80//18 76//16 79//18
f 81//19 78//17 82//19
f 78//17 81//19 77//17
f 79//18 83//20 80//18
f 84//20 80//18 83//20
f 81//19 85//21 86//21
f 85//21 81//19 82//19
f 84//20 83//20 87//22
f 88//22 87//22 83//20
f 86//21 89//23 90//23
f 89//23 86//21 85//21
f 87//22 88//22 91//24
f 92//24 91//24 88//22
f 89//23 93//25 90//23
f 93//25 89//23 94//25
f 95//26 91//24 96//26
f 92//24 96//26 91//24
f 94//25 97//12 93//25
f 97//12 94//25 98//12
f 99//11 95//26 100//11
f 96//26 100//11 95//26
f 98//12 101//6 97//12
f 101//6 98//12 102//6
f 103//5 99//11 104//5
f 100//11 104//5 99//11
f 102//6 105//3 101//6
f 105//3 102//6 106//3
f 107//2 103//5 108//2
f 104//5 108//2 103//5
f 109//4 105//3 106//3
f 105//3 109//4 110//4
f 111//1 112//1 108//2
f 107//2 108//2 112//1
f 113//8 110//4 109//4
f 110//4 113//8 114//8
f 115//7 116//7 111//1
f 112//1 111//1 116//7
f 117//14 114//8 113//8
f 114//8 117//14 118//14
f 119//13 120//13 115//7
f 116//7 115//7 120//13
f 121//16 118//14 117//14
f 118//14 121//16 122//16
f 123//15 124//15 119//13
f 120//13 119//13 124//15
f 125//18 122//16 121//16
f 122//16 125//18 126//18
f 127//17 128//17 123//15
f 124//15 123//15 128//17
f 129//20 126//18 125//18
f 126//18 129//20 130//20
f 131//19 132//19 127//17
f 128//17 127//17 132//19
f 129//20 133//22 130//20
f 133//22 129//20 134//22
f 135//21 132//19 136//21
f 131//19 136//21 132//19
f 134//22 137//24 133//22
f 137//24 134//22 138//24
f 139//23 135//21 140//23
f 136//21 140//23 135//21
f 138//24 141//26 137//24
f 141//26 138//24 142//26
f 143//25 139//23 144//25
f 140//23 144//25 139//23
f 142//26 65//11 141//26
f 65//11 142//26 66//11
f 67//12 143//25 68//12
f 144//25 68//12 143//25
