mtllib new-2.mtl
v 0.299725 -0.650447 -0.012340
v -0.302671 -0.922497 -0.012340
v 0.299725 -0.922497 -0.012340
v -0.302671 -0.650447 -0.012340
v -0.302671 -0.922497 0.016808
v 0.396886 0.923558 -0.012340
v -0.302671 -0.650447 -0.002624
v -0.399832 -0.922497 -0.012340
v -0.399832 -0.922497 0.016808
v 0.299725 -0.922497 0.016808
v 0.396886 -0.922497 -0.012340
v 0.299725 0.826397 -0.012340
v 0.299725 -0.650447 -0.002624
v -0.302671 0.826397 -0.012340
v -0.382100 -0.106346 -0.012340
v -0.302671 -0.650447 0.016808
v 0.299725 -0.650447 0.016808
v 0.396886 0.923558 0.016808
v 0.299725 0.923558 -0.012340
v 0.299725 0.826397 -0.002624
v 0.260861 -0.611582 -0.012340
v -0.302671 0.826397 -0.002624
v -0.320403 -0.106346 -0.012340
v -0.366676 -0.133062 -0.012340
v -0.399832 0.923558 -0.012340
v -0.382100 -0.106346 0.016809
v 0.396886 -0.922497 0.016808
v -0.263807 -0.611582 -0.012340
v -0.335827 -0.133062 -0.012340
v -0.335827 -0.079631 -0.012340
v -0.366676 -0.079631 -0.012340
v -0.399832 0.923558 0.016808
v -0.366676 -0.133062 0.016809
v -0.302671 -0.650447 0.007092
v 0.299725 0.826397 0.016808
v 0.299725 0.923558 0.016808
v -0.302671 0.923558 -0.012340
v 0.260861 0.787533 -0.012340
v -0.263807 -0.611582 -0.012826
v 0.260861 -0.611582 -0.012826
v 0.260861 0.787533 -0.012826
v -0.263807 0.787533 -0.012340
v -0.302671 0.923558 0.016808
v -0.335827 -0.133062 0.016809
v -0.320403 -0.106346 0.016809
v -0.366676 -0.133062 0.022979
v -0.366676 -0.079631 0.016809
v 0.299725 -0.650447 0.007092
v -0.302671 0.826397 0.016808
v 0.299725 0.826397 0.007092
v -0.263807 0.787533 -0.012826
v -0.335827 -0.079631 0.016809
v -0.382100 -0.106346 0.022979
v 0.260861 -0.611582 0.016808
v -0.302671 0.826397 0.007092
v -0.320403 -0.106346 0.022979
v -0.335827 -0.133062 0.022979
v -0.335827 -0.079631 0.022979
v -0.354208 -0.111468 0.022979
v -0.366676 -0.079631 0.022979
v -0.263807 -0.611582 0.016808
v -0.348295 -0.111468 0.022979
v -0.354208 -0.101225 0.022979
v 0.260861 0.787533 0.016808
v 0.260861 0.787533 0.017294
v -0.263807 -0.611582 0.017294
v 0.260861 -0.611582 0.017294
v -0.263807 0.787533 0.016808
v -0.263807 0.787533 0.017294
vn 0.000000 0.000000 1.000000
vn 0.000000 0.000000 -1.000000
vn 0.000000 -1.000000 0.000000
vn 0.000000 1.000000 0.000000
vn -1.000000 0.000000 0.000000
vn 1.000000 0.000000 0.000000
vn 0.000000 0.242536 0.970142
vn 0.000000 -0.242536 -0.970142
vn -0.242536 0.000000 0.970142
vn 0.242536 0.000000 -0.970142
vn 0.242536 0.000000 0.970142
vn -0.242536 0.000000 -0.970142
vn 0.000000 -0.242536 0.970142
vn 0.000000 0.242536 -0.970142
vn -0.500000 -0.866025 0.000000
vn 0.500000 -0.866025 0.000000
vn 0.500000 0.866025 0.000000
vn -0.500000 0.866025 0.000000
vt 0.327249 0.000000
vt 0.272708 -0.010417
vt 0.327249 -0.010417
vt 0.218166 0.000000
vt 0.163625 -0.010417
vt 0.218166 -0.010417
vt 0.163625 0.000000
vt 0.109083 -0.010417
vt 0.272708 0.000000
vt 0.000000 -0.010417
vt 0.054542 0.000000
vt 0.000000 0.000000
vt 0.054542 -0.010417
vt 0.109083 0.000000
vt 21.761395 1.332847
vt 21.782444 1.369306
vt 21.735353 1.377953
vt 21.839520 1.377953
vt 21.813478 1.332847
vt 21.792429 1.369306
vt 21.782444 1.386600
vt 21.761395 1.423058
vt 21.813478 1.423058
usemtl material-0
f 1//1 2//1 3//1
f 2//1 1//1 4//1
f 3//2 2//2 1//2
f 4//2 1//2 2//2
f 5//3 2//3 3//3
f 3//4 2//4 5//4
f 3//1 6//1 1//1
f 1//2 6//2 3//2
f 1//3 7//3 4//3
f 4//4 7//4 1//4
f 4//1 8//1 2//1
f 2//2 8//2 4//2
f 9//3 2//3 5//3
f 5//4 2//4 9//4
f 5//3 3//3 10//3
f 10//4 3//4 5//4
f 6//1 3//1 11//1
f 11//2 3//2 6//2
f 1//1 6//1 12//1
f 12//2 6//2 1//2
f 7//3 1//3 13//3
f 13//4 1//4 7//4
f 7//5 14//5 4//5
f 4//6 14//6 7//6
f 8//1 4//1 15//1
f 15//2 4//2 8//2
f 2//3 9//3 8//3
f 8//4 9//4 2//4
f 16//1 9//1 5//1
f 5//2 9//2 16//2
f 10//3 3//3 11//3
f 11//4 3//4 10//4
f 17//1 5//1 10//1
f 10//2 5//2 17//2
f 18//6 11//6 6//6
f 6//5 11//5 18//5
f 12//1 6//1 19//1
f 19//2 6//2 12//2
f 20//6 1//6 12//6
f 12//5 1//5 20//5
f 1//6 20//6 13//6
f 13//5 20//5 1//5
f 21//7 7//7 13//7
f 13//8 7//8 21//8
f 14//5 7//5 22//5
f 22//6 7//6 14//6
f 23//1 4//1 14//1
f 14//2 4//2 23//2
f 15//1 4//1 24//1
f 24//2 4//2 15//2
f 8//1 15//1 25//1
f 25//2 15//2 8//2
f 9//5 25//5 8//5
f 8//6 25//6 9//6
f 9//1 16//1 26//1
f 26//2 16//2 9//2
f 5//1 17//1 16//1
f 16//2 17//2 5//2
f 10//3 11//3 27//3
f 27//4 11//4 10//4
f 10//1 18//1 17//1
f 17//2 18//2 10//2
f 11//6 18//6 27//6
f 27//5 18//5 11//5
f 19//4 18//4 6//4
f 6//3 18//3 19//3
f 19//1 14//1 12//1
f 12//2 14//2 19//2
f 14//4 20//4 12//4
f 12//3 20//3 14//3
f 20//9 21//9 13//9
f 13//10 21//10 20//10
f 7//7 21//7 28//7
f 28//8 21//8 7//8
f 28//11 22//11 7//11
f 7//12 22//12 28//12
f 20//4 14//4 22//4
f 22//3 14//3 20//3
f 4//1 23//1 29//1
f 29//2 23//2 4//2
f 23//1 14//1 30//1
f 30//2 14//2 23//2
f 24//1 4//1 29//1
f 29//2 4//2 24//2
f 25//1 15//1 31//1
f 31//2 15//2 25//2
f 25//5 9//5 32//5
f 32//6 9//6 25//6
f 26//1 16//1 33//1
f 33//2 16//2 26//2
f 9//1 26//1 32//1
f 32//2 26//2 9//2
f 17//4 34//4 16//4
f 16//3 34//3 17//3
f 18//1 10//1 27//1
f 27//2 10//2 18//2
f 17//1 18//1 35//1
f 35//2 18//2 17//2
f 19//4 36//4 18//4
f 18//3 36//3 19//3
f 14//1 19//1 37//1
f 37//2 19//2 14//2
f 21//9 20//9 38//9
f 38//10 20//10 21//10
f 21//4 39//4 28//4
f 39//4 21//4 40//4
f 28//3 39//3 21//3
f 40//3 21//3 39//3
f 41//1 39//1 40//1
f 40//2 39//2 41//2
f 22//11 28//11 42//11
f 42//12 28//12 22//12
f 42//13 20//13 22//13
f 22//14 20//14 42//14
f 30//1 14//1 31//1
f 31//2 14//2 30//2
f 25//1 31//1 14//1
f 14//2 31//2 25//2
f 43//4 25//4 32//4
f 32//3 25//3 43//3
f 33//1 16//1 44//1
f 44//2 16//2 33//2
f 33//1 45//1 26//1
f 26//2 45//2 33//2
f 32//1 26//1 47//1
f 47//2 26//2 32//2
f 34//4 17//4 48//4
f 48//3 17//3 34//3
f 34//6 49//6 16//6
f 16//5 49//5 34//5
f 35//1 18//1 36//1
f 36//2 18//2 35//2
f 50//5 17//5 35//5
f 35//6 17//6 50//6
f 37//4 36//4 19//4
f 19//3 36//3 37//3
f 25//1 14//1 37//1
f 37//2 14//2 25//2
f 20//13 42//13 38//13
f 38//14 42//14 20//14
f 41//5 21//5 38//5
f 21//5 41//5 40//5
f 38//6 21//6 41//6
f 40//6 41//6 21//6
f 39//6 42//6 28//6
f 28//5 42//5 39//5
f 39//1 41//1 51//1
f 51//2 41//2 39//2
f 42//6 39//6 51//6
f 51//5 39//5 42//5
f 25//4 43//4 37//4
f 37//3 43//3 25//3
f 32//1 49//1 43//1
f 43//2 49//2 32//2
f 16//1 45//1 44//1
f 44//2 45//2 16//2
f 45//1 33//1 44//1
f 44//2 33//2 45//2
f 26//1 52//1 47//1
f 47//2 52//2 26//2
f 32//1 47//1 49//1
f 49//2 47//2 32//2
f 17//5 50//5 48//5
f 48//6 50//6 17//6
f 54//13 34//13 48//13
f 48//14 34//14 54//14
f 49//6 34//6 55//6
f 55//5 34//5 49//5
f 45//1 16//1 49//1
f 49//2 16//2 45//2
f 36//1 49//1 35//1
f 35//2 49//2 36//2
f 49//3 50//3 35//3
f 35//4 50//4 49//4
f 37//4 43//4 36//4
f 36//3 43//3 37//3
f 41//3 42//3 51//3
f 42//3 41//3 38//3
f 51//4 42//4 41//4
f 38//4 41//4 42//4
f 49//1 36//1 43//1
f 43//2 36//2 49//2
f 45//1 49//1 52//1
f 52//2 49//2 45//2
f 52//1 49//1 47//1
f 47//2 49//2 52//2
f 50//11 54//11 48//11
f 48//12 54//12 50//12
f 34//13 54//13 61//13
f 61//14 54//14 34//14
f 61//9 55//9 34//9
f 34//10 55//10 61//10
f 50//3 49//3 55//3
f 55//4 49//4 50//4
f 54//11 50//11 64//11
f 64//12 50//12 54//12
f 65//1 66//1 67//1
f 67//2 66//2 65//2
f 54//3 66//3 61//3
f 66//3 54//3 67//3
f 61//4 66//4 54//4
f 67//4 54//4 66//4
f 55//9 61//9 68//9
f 68//10 61//10 55//10
f 68//7 50//7 55//7
f 55//8 50//8 68//8
f 50//7 68//7 64//7
f 64//8 68//8 50//8
f 54//6 65//6 67//6
f 65//6 54//6 64//6
f 67//5 65//5 54//5
f 64//5 54//5 65//5
f 66//1 65//1 69//1
f 69//2 65//2 66//2
f 66//5 68//5 61//5
f 61//6 68//6 66//6
f 68//5 66//5 69//5
f 69//6 66//6 68//6
f 65//4 68//4 69//4
f 68//4 65//4 64//4
f 69//3 68//3 65//3
f 64//3 65//3 68//3
usemtl material-1
f 46/11/15 26/10/5 33/13/15
f 44/8/16 46/11/15 33/13/15
f 26/10/5 46/11/15 53/12/5
f 53/1/5 47/2/18 26/3/5
f 46/11/15 44/8/16 57/14/16
f 58/4/17 45/5/6 52/6/17
f 46/15/1 59/16/1 53/17/1
f 47/2/18 58/4/17 52/6/17
f 44/8/16 56/7/6 57/14/16
f 56/18/1 46/15/1 57/19/1
f 59/16/1 46/15/1 62/20/1
f 58/4/17 47/2/18 60/9/18
f 46/15/1 56/18/1 62/20/1
f 60/22/1 63/21/1 58/23/1
usemtl material-2
f 33//17 26//6 46//17
f 33//17 46//17 44//18
f 53//6 46//17 26//6
f 26//6 47//16 53//6
f 57//18 44//18 46//17
f 52//15 45//5 58//15
f 53//2 59//2 46//2
f 52//15 58//15 47//16
f 57//18 56//5 44//18
f 57//2 46//2 56//2
f 62//2 46//2 59//2
f 60//16 47//16 58//15
f 62//2 56//2 46//2
f 58//2 63//2 60//2