mtllib new-0.mtl
v -0.382100 -0.106346 0.016809
v -0.335827 -0.133062 0.016809
v -0.320403 -0.106346 0.016809
v -0.366676 -0.079631 0.016809
v -0.335827 -0.079631 0.016809
v -0.382100 -0.106346 0.022979
v -0.320403 -0.106346 0.022979
v -0.335827 -0.079631 0.022979
v -0.354208 -0.111468 0.022979
v -0.366676 -0.079631 0.022979
v -0.348295 -0.111468 0.022979
v -0.357166 -0.106346 0.022979
v -0.354208 -0.101225 0.022979
v -0.345338 -0.106346 0.022979
v -0.354208 -0.111468 0.064624
v -0.348295 -0.101225 0.022979
v -0.348295 -0.111468 0.064624
v -0.357166 -0.106346 0.064624
v -0.345338 -0.106346 0.064624
v -0.348295 -0.101225 0.064624
v -0.354208 -0.101225 0.064624
vn 0.000000 0.000000 1.000000
vn 0.000000 0.000000 -1.000000
vn -1.000000 0.000000 0.000000
vn 1.000000 0.000000 0.000000
vn -0.500000 -0.866025 0.000000
vn 0.500000 -0.866025 0.000000
vn 0.500000 0.866025 0.000000
vn -0.500000 0.866025 0.000000
vt 0.327249 0.000000
vt 0.272708 -0.010417
vt 0.218166 0.000000
vt 0.163625 -0.010417
vt 0.163625 0.000000
vt 0.109083 -0.010417
vt 0.272708 0.000000
vt 0.000000 0.000000
vt 21.782444 1.369306
vt 21.735353 1.377953
vt 0.052281 0.000000
vt 0.041825 -0.070312
vt 0.062737 0.000000
vt 21.839520 1.377953
vt 21.792429 1.369306
vt 21.777452 1.377953
vt 21.782444 1.386600
vt 21.761395 1.423058
vt 0.031368 0.000000
vt 0.031368 -0.070312
vt 0.020912 -0.070313
vt 0.031368 -0.070313
vt 0.020912 0.000000
vt 0.010456 -0.070312
vt 0.041825 0.000000
vt 0.000000 -0.070312
vt 21.797421 1.377953
vt 21.813478 1.423058
vt 0.052281 -0.070313
vt 0.062737 -0.070313
vt 0.010456 0.000000
vt 21.792429 1.386600
vt 0.041825 -0.070313
vt 0.010456 -0.070313
usemtl material-0
f 1//1 3//1 5//1
f 5//2 3//2 1//2
usemtl material-1
f 7/5/4 2/6/6 3/4/4
f 4/2/8 6/1/3 10/7/8
f 3/4/4 8/3/7 7/5/4
f 6/10/1 9/9/1 12/16/1
f 6/10/1 13/17/1 10/18/1
f 14/27/1 7/14/1 8/28/1
f 11/24/6 15/8/5 9/26/5
f 15/13/5 12/29/3 9/30/5
f 6/10/1 12/16/1 13/17/1
f 11/15/1 7/14/1 14/27/1
f 14/27/1 8/28/1 16/32/1
f 15/8/5 11/24/6 17/31/6
f 12/29/3 15/13/5 18/11/3
f 18/11/3 13/33/8 12/29/3
f 16/32/1 8/28/1 13/17/1
f 19/23/4 11/34/6 14/21/4
f 20/19/7 14/21/4 16/22/7
f 11/34/6 19/23/4 17/31/6
f 19/27/1 15/9/1 17/15/1
f 15/9/1 19/27/1 18/16/1
f 13/33/8 18/11/3 21/25/8
f 13/12/8 20/19/7 16/20/7
f 14/21/4 20/19/7 19/23/4
f 18/16/1 19/27/1 20/32/1
f 18/16/1 20/32/1 21/17/1
f 20/19/7 13/12/8 21/25/8
usemtl material-2
f 3//3 2//8 7//3
f 10//6 6//4 4//6
f 7//3 8//5 3//3
f 12//2 9//2 6//2
f 10//2 13//2 6//2
f 8//2 7//2 14//2
f 9//7 15//7 11//8
f 9//7 12//4 15//7
f 13//2 12//2 6//2
f 14//2 7//2 11//2
f 16//2 8//2 14//2
f 17//8 11//8 15//7
f 18//4 15//7 12//4
f 12//4 13//6 18//4
f 13//2 8//2 16//2
f 14//3 11//8 19//3
f 16//5 14//3 20//5
f 17//8 19//3 11//8
f 17//2 15//2 19//2
f 18//2 19//2 15//2
f 21//6 18//4 13//6
f 16//5 20//5 13//6
f 19//3 20//5 14//3
f 20//2 19//2 18//2
f 21//2 20//2 18//2
f 21//6 13//6 20//5