mtllib new-1.mtl
v -0.382100 -0.106346 -0.012340
v -0.320403 -0.106346 -0.012340
v -0.366676 -0.133062 -0.012340
v -0.335827 -0.133062 -0.012340
v -0.335827 -0.079631 -0.012340
v -0.382100 -0.106346 -0.018510
v -0.366676 -0.079631 -0.012340
v -0.335827 -0.133062 -0.018510
v -0.320403 -0.106346 -0.018510
v -0.366676 -0.133062 -0.018510
v -0.366676 -0.079631 -0.018510
v -0.335827 -0.079631 -0.018510
v -0.357166 -0.106346 -0.018510
v -0.348295 -0.111468 -0.018510
v -0.348295 -0.101225 -0.018510
v -0.354208 -0.111468 -0.018510
v -0.354208 -0.101225 -0.018510
v -0.345338 -0.106346 -0.018510
v -0.357166 -0.106346 -0.060155
v -0.354208 -0.101225 -0.060155
v -0.348295 -0.111468 -0.060155
v -0.345338 -0.106346 -0.060155
v -0.354208 -0.111468 -0.060155
v -0.348295 -0.101225 -0.060155
vn 0.000000 0.000000 1.000000
vn 0.000000 0.000000 -1.000000
vn -1.000000 0.000000 0.000000
vn 1.000000 0.000000 0.000000
vn -0.500000 -0.866025 0.000000
vn 0.500000 -0.866025 0.000000
vn 0.500000 0.866025 0.000000
vn -0.500000 0.866025 0.000000
vt 0.327249 0.000000
vt 0.272708 -0.010417
vt 0.327249 -0.010417
vt 0.218166 0.000000
vt 0.163625 -0.010417
vt 0.218166 -0.010417
vt 0.163625 0.000000
vt 0.109083 -0.010417
vt 0.272708 0.000000
vt 0.000000 -0.010417
vt 0.054542 0.000000
vt 0.000000 0.000000
vt 0.054542 -0.010417
vt 0.109083 0.000000
vt -21.735353 1.377953
vt -21.813478 1.332847
vt -21.761395 1.332847
vt -21.777452 1.377953
vt -21.761395 1.423058
vt -21.792429 1.369306
vt -21.839520 1.377953
vt -21.792429 1.386600
vt -21.813478 1.423058
vt -21.782444 1.369306
vt -21.782444 1.386600
vt -21.797421 1.377953
vt 0.052281 0.000000
vt 0.041825 -0.070312
vt 0.052281 -0.070312
vt 0.062737 0.000000
vt 0.062737 -0.070312
vt 0.031368 0.000000
vt 0.031368 -0.070312
vt 0.020912 -0.070313
vt 0.031368 -0.070313
vt 0.020912 0.000000
vt 0.010456 -0.070312
vt 0.020912 -0.070312
vt 0.041825 0.000000
vt 0.000000 -0.070312
vt 0.010456 0.000000
usemtl material-0
f 3//1 2//1 1//1
f 1//2 2//2 3//2
f 2//1 3//1 4//1
f 4//2 3//2 2//2
f 1//1 2//1 5//1
f 5//2 2//2 1//2
f 1//1 5//1 7//1
f 7//2 5//2 1//2
usemtl material-1
f 6/1/3 3/2/5 1/3/3
f 8/4/6 2/5/4 4/6/6
f 9/7/4 5/8/7 2/5/4
f 3/2/5 8/4/6 4/6/6
f 3/2/5 6/1/3 10/9/5
f 1/10/3 11/11/8 6/12/3
f 11/11/8 1/10/3 7/13/8
f 2/5/4 8/4/6 9/7/4
f 5/8/7 11/11/8 7/13/8
f 5/8/7 9/7/4 12/14/7
f 8/4/6 3/2/5 10/9/5
f 6/15/2 8/16/2 10/17/2
f 13/18/2 6/15/2 11/19/2
f 8/16/2 14/20/2 9/21/2
f 11/11/8 5/8/7 12/14/7
f 9/21/2 15/22/2 12/23/2
f 8/16/2 6/15/2 16/24/2
f 16/24/2 6/15/2 13/18/2
f 13/18/2 11/19/2 17/25/2
f 14/20/2 8/16/2 16/24/2
f 9/21/2 14/20/2 18/26/2
f 12/23/2 15/22/2 11/19/2
f 9/21/2 18/26/2 15/22/2
f 19/27/3 16/28/5 13/29/3
f 17/25/2 11/19/2 15/22/2
f 20/30/8 13/29/3 17/31/8
f 16/28/5 21/32/6 14/33/6
f 21/32/6 18/34/4 14/35/6
f 22/36/4 15/37/7 18/38/4
f 16/28/5 19/27/3 23/39/5
f 13/29/3 20/30/8 19/27/3
f 15/37/7 20/12/8 17/40/8
f 21/32/6 16/28/5 23/39/5
f 18/34/4 21/32/6 22/36/4
f 15/37/7 22/36/4 24/41/7
f 19/18/2 21/20/2 23/24/2
f 22/26/2 19/18/2 20/25/2
f 20/12/8 15/37/7 24/41/7
f 21/20/2 19/18/2 22/26/2
f 22/26/2 20/25/2 24/22/2
usemtl material-2
f 1//4 3//7 6//4
f 4//8 2//3 8//8
f 2//3 5//5 9//3
f 4//8 8//8 3//7
f 10//7 6//4 3//7
f 6//4 11//6 1//4
f 7//6 1//4 11//6
f 9//3 8//8 2//3
f 7//6 11//6 5//5
f 12//5 9//3 5//5
f 10//7 3//7 8//8
f 10//1 8//1 6//1
f 11//1 6//1 13//1
f 9//1 14//1 8//1
f 12//5 5//5 11//6
f 12//1 15//1 9//1
f 16//1 6//1 8//1
f 13//1 6//1 16//1
f 17//1 11//1 13//1
f 16//1 8//1 14//1
f 18//1 14//1 9//1
f 11//1 15//1 12//1
f 15//1 18//1 9//1
f 13//4 16//7 19//4
f 15//1 11//1 17//1
f 17//6 13//4 20//6
f 14//8 21//8 16//7
f 14//8 18//3 21//8
f 18//3 15//5 22//3
f 23//7 19//4 16//7
f 19//4 20//6 13//4
f 17//6 20//6 15//5
f 23//7 16//7 21//8
f 22//3 21//8 18//3
f 24//5 22//3 15//5
f 23//1 21//1 19//1
f 20//1 19//1 22//1
f 24//5 15//5 20//6
f 22//1 19//1 21//1
f 24//1 20//1 22//1