# SSTK version 0.8.0
# 3
mtllib original-3.mtl
o mesh3/mesh3-geometry#mesh3-geometry
v -0.276951 -0.112516 -0.051636
v -0.276951 -0.103261 -0.046293
v -0.276951 -0.109431 -0.046293
v -0.276951 -0.100177 -0.051636
v -0.321681 -0.109431 -0.046293
v -0.276951 -0.109431 -0.056980
v -0.321681 -0.100177 -0.051636
v -0.321681 -0.103261 -0.046293
v -0.321681 -0.112516 -0.051636
v -0.276951 -0.103261 -0.056980
v -0.321681 -0.103261 -0.056980
v -0.350987 -0.108567 -0.047789
v -0.321681 -0.109431 -0.056980
v -0.350987 -0.101904 -0.051636
v -0.350987 -0.104125 -0.055484
v -0.350987 -0.104125 -0.047789
v -0.350987 -0.110789 -0.051636
v -0.350987 -0.108567 -0.055484
vt 5.646425 1.367536
vt 5.637404 1.383161
vt 5.637404 1.372744
vt 5.646425 1.388369
vt 21.912883 1.383161
vt 21.837362 1.372744
vt 21.912883 1.372744
vt 21.837362 -4.195763
vt 21.912883 -4.206179
vt 21.912883 -4.195763
vt 5.655446 1.372744
vt 21.837362 5.584132
vt 21.912883 5.573715
vt 21.912883 5.584132
vt 21.837362 1.383161
vt 21.837362 -4.206179
vt -21.837362 5.573715
vt -21.912883 5.584132
vt -21.912883 5.573715
vt 5.655446 1.383161
vt 21.837362 5.573715
vt -21.912883 -4.195763
vt -21.837362 -4.206179
vt -21.837362 -4.195763
vt 21.521548 1.383161
vt 21.472004 1.374203
vt 21.521548 1.372744
vt 21.102343 -6.077019
vt 21.150906 -6.090301
vt 21.151823 -6.079924
vt -21.837362 5.584132
vt -21.912883 1.372744
vt -21.837362 1.383161
vt -21.912883 1.383161
vt -21.912883 -4.206179
vt 21.101683 7.467805
vt 21.151823 7.463239
vt 21.150906 7.473615
vt -22.249378 -2.256328
vt -22.297941 -2.243047
vt -22.298858 -2.253423
vt 21.472004 1.381703
vt 21.101683 -6.08449
vt -22.248718 3.632172
vt -22.298858 3.636738
vt -22.297941 3.626362
vt -21.837362 1.372744
vt 21.102343 7.460334
vt -22.248718 -2.248857
vt -22.097297 1.383161
vt -22.047754 1.374203
vt -22.047754 1.381703
vt -22.249378 3.639643
vt -22.097297 1.372744
vn 1 0 0
vn 0 0.5000001748438415 0.8660253028382763
vn -0.029442002930171327 -0.499783049740161 0.8656500861525307
vn 0 -0.500000174843842 0.8660253028382761
vn 0 -1 0
vn -0.02944201443071249 0.9995664899276393 0
vn 0 1 0
vn -0.029442002930171327 0.4997830497401607 0.8656500861525309
vn -0.02944201443071249 -0.9995664899276393 0
vn 0 -0.5000001748438415 -0.8660253028382763
vn -0.029442002930171327 0.499783049740161 -0.8656500861525307
vn -0.058844971766012784 -0.4991337605141819 0.8645245851986098
vn -0.029442002930171327 -0.4997830497401607 -0.8656500861525309
vn 0 0.500000174843842 -0.8660253028382761
vn -0.05884500772888036 0.9982671311154083 0
vn -0.058844971766012784 0.4991337605141819 -0.8645245851986098
vn -0.058844971766012784 0.49913376051418157 0.86452458519861
vn -0.05884500772888036 -0.9982671311154083 0
vn -0.058844971766012784 -0.49913376051418157 -0.86452458519861
vn -1 0 0
vn 0.029442002930171327 0.499783049740161 -0.8656500861525307
vn 0.02944201443071249 -0.9995664899276393 0
vn 0.029442002930171327 -0.4997830497401607 -0.8656500861525309
vn 0.02944201443071249 0.9995664899276393 0
vn 0.029442002930171327 -0.499783049740161 0.8656500861525307
vn 0.058844971766012784 0.4991337605141819 -0.8645245851986098
vn 0.029442002930171327 0.4997830497401607 0.8656500861525309
vn 0.05884500772888036 -0.9982671311154083 0
vn 0.058844971766012784 -0.4991337605141819 0.8645245851986098
vn 0.058844971766012784 -0.49913376051418157 -0.86452458519861
vn 0.05884500772888036 0.9982671311154083 0
vn 0.058844971766012784 0.49913376051418157 0.86452458519861
usemtl material_0_0
f 1/1/1 2/2/1 3/3/1
f 2/2/1 1/1/1 4/4/1
f 2/5/2 5/6/3 3/7/4
f 5/8/3 1/9/5 3/10/4
f 4/4/1 1/1/1 6/11/1
f 7/12/6 2/13/2 4/14/7
f 5/6/3 2/5/2 8/15/8
f 1/9/5 5/8/3 9/16/9
f 9/17/9 6/18/10 1/19/5
f 4/4/1 6/11/1 10/20/1
f 2/13/2 7/12/6 8/21/8
f 4/22/7 11/23/11 7/24/6
f 8/25/8 12/26/12 5/27/3
f 12/28/12 9/29/9 5/30/3
f 6/18/10 9/17/9 13/31/13
f 6/32/10 11/33/11 10/34/14
f 11/23/11 4/22/7 10/35/14
f 14/36/15 8/37/8 7/38/6
f 15/39/16 7/40/6 11/41/11
f 12/26/12 8/25/8 16/42/17
f 9/29/9 12/28/12 17/43/18
f 17/44/18 13/45/13 9/46/9
f 11/33/11 6/32/10 13/47/13
f 8/37/8 14/36/15 16/48/17
f 7/40/6 15/39/16 14/49/15
f 11/50/11 18/51/19 15/52/16
f 13/45/13 17/44/18 18/53/19
f 18/51/19 11/50/11 13/54/13
usemtl material_1_0
f 3//20 2//20 1//20
f 4//20 1//20 2//20
f 3//14 5//21 2//10
f 3//14 1//7 5//21
f 6//20 1//20 4//20
f 4//5 2//10 7//22
f 8//23 2//10 5//21
f 9//24 5//21 1//7
f 1//7 6//2 9//24
f 10//20 6//20 4//20
f 8//23 7//22 2//10
f 7//22 11//25 4//5
f 5//21 12//26 8//23
f 5//21 9//24 12//26
f 13//27 9//24 6//2
f 10//4 11//25 6//2
f 10//4 4//5 11//25
f 7//22 8//23 14//28
f 11//25 7//22 15//29
f 16//30 8//23 12//26
f 17//31 12//26 9//24
f 9//24 13//27 17//31
f 13//27 6//2 11//25
f 16//30 14//28 8//23
f 14//28 15//29 7//22
f 15//29 18//32 11//25
f 14//20 12//20 16//20
f 16//1 12//1 14//1
f 12//20 14//20 17//20
f 17//1 14//1 12//1
f 18//32 17//31 13//27
f 13//27 11//25 18//32
f 17//20 14//20 15//20
f 15//1 14//1 17//1
f 17//20 15//20 18//20
f 18//1 15//1 17//1
