# SSTK version 0.8.0
# 48
mtllib original-48.mtl
o #ID347
v -0.039279 0.489784 0.314625
v -0.038801 0.489161 0.319137
v -0.039279 0.489784 0.319137
v -0.038801 0.489161 0.314625
v -0.038801 0.489161 0.314625
v -0.039279 0.489784 0.314625
v -0.038801 0.489161 0.319137
v -0.039279 0.489784 0.319137
v -0.039902 0.490262 0.319137
v -0.039902 0.490262 0.314625
v -0.039902 0.490262 0.319137
v -0.039902 0.490262 0.314625
v -0.040627 0.460690 0.314625
v -0.065468 0.460587 0.314625
v -0.041406 0.460587 0.314625
v -0.066247 0.460690 0.314625
v -0.039902 0.460990 0.314625
v -0.066972 0.460990 0.314625
v -0.039279 0.461468 0.314625
v -0.067595 0.461468 0.314625
v -0.038801 0.462091 0.314625
v -0.068073 0.462091 0.314625
v -0.068374 0.462816 0.314625
v -0.038500 0.462816 0.314625
v -0.038398 0.463595 0.314625
v -0.068476 0.463595 0.314625
v -0.038398 0.487657 0.314625
v -0.068476 0.487657 0.314625
v -0.038500 0.488436 0.314625
v -0.068374 0.488436 0.314625
v -0.038801 0.489161 0.314625
v -0.068073 0.489161 0.314625
v -0.039279 0.489784 0.314625
v -0.067595 0.489784 0.314625
v -0.039902 0.490262 0.314625
v -0.066972 0.490262 0.314625
v -0.040627 0.490563 0.314625
v -0.066247 0.490563 0.314625
v -0.041406 0.490665 0.314625
v -0.065468 0.490665 0.314625
v -0.065468 0.490665 0.314625
v -0.041406 0.490665 0.314625
v -0.066247 0.490563 0.314625
v -0.040627 0.490563 0.314625
v -0.066972 0.490262 0.314625
v -0.039902 0.490262 0.314625
v -0.067595 0.489784 0.314625
v -0.039279 0.489784 0.314625
v -0.068073 0.489161 0.314625
v -0.038801 0.489161 0.314625
v -0.068374 0.488436 0.314625
v -0.038500 0.488436 0.314625
v -0.068476 0.487657 0.314625
v -0.038398 0.487657 0.314625
v -0.068476 0.463595 0.314625
v -0.038398 0.463595 0.314625
v -0.068374 0.462816 0.314625
v -0.038500 0.462816 0.314625
v -0.038801 0.462091 0.314625
v -0.068073 0.462091 0.314625
v -0.067595 0.461468 0.314625
v -0.039279 0.461468 0.314625
v -0.066972 0.460990 0.314625
v -0.039902 0.460990 0.314625
v -0.066247 0.460690 0.314625
v -0.040627 0.460690 0.314625
v -0.065468 0.460587 0.314625
v -0.041406 0.460587 0.314625
v -0.038500 0.488436 0.319137
v -0.038500 0.488436 0.314625
v -0.038500 0.488436 0.314625
v -0.038500 0.488436 0.319137
v -0.040627 0.490563 0.319137
v -0.040627 0.490563 0.314625
v -0.040627 0.490563 0.319137
v -0.040627 0.490563 0.314625
v -0.066972 0.490262 0.314625
v -0.067595 0.489784 0.319137
v -0.067595 0.489784 0.314625
v -0.066972 0.490262 0.319137
v -0.066972 0.490262 0.319137
v -0.066972 0.490262 0.314625
v -0.067595 0.489784 0.319137
v -0.067595 0.489784 0.314625
v -0.068073 0.489161 0.314625
v -0.068073 0.489161 0.319137
v -0.068073 0.489161 0.314625
v -0.068073 0.489161 0.319137
v -0.068374 0.488436 0.314625
v -0.068374 0.488436 0.319137
v -0.068374 0.488436 0.314625
v -0.068374 0.488436 0.319137
v -0.068476 0.487657 0.314625
v -0.068476 0.487657 0.319137
v -0.068476 0.487657 0.314625
v -0.068476 0.487657 0.319137
v -0.068476 0.463595 0.314625
v -0.068476 0.463595 0.319137
v -0.068476 0.463595 0.314625
v -0.068476 0.463595 0.319137
v -0.068374 0.462816 0.314625
v -0.068374 0.462816 0.319137
v -0.068374 0.462816 0.314625
v -0.068374 0.462816 0.319137
v -0.068073 0.462091 0.314625
v -0.068073 0.462091 0.319137
v -0.068073 0.462091 0.314625
v -0.068073 0.462091 0.319137
v -0.067595 0.461468 0.314625
v -0.067595 0.461468 0.319137
v -0.067595 0.461468 0.314625
v -0.067595 0.461468 0.319137
v -0.066972 0.460990 0.319137
v -0.066972 0.460990 0.314625
v -0.066972 0.460990 0.314625
v -0.066972 0.460990 0.319137
v -0.066247 0.460690 0.319137
v -0.066247 0.460690 0.314625
v -0.066247 0.460690 0.314625
v -0.066247 0.460690 0.319137
v -0.065468 0.460587 0.319137
v -0.065468 0.460587 0.314625
v -0.065468 0.460587 0.314625
v -0.065468 0.460587 0.319137
v -0.041406 0.460587 0.319137
v -0.041406 0.460587 0.314625
v -0.041406 0.460587 0.314625
v -0.041406 0.460587 0.319137
v -0.040627 0.460690 0.319137
v -0.040627 0.460690 0.314625
v -0.040627 0.460690 0.314625
v -0.040627 0.460690 0.319137
v -0.039902 0.460990 0.319137
v -0.039902 0.460990 0.314625
v -0.039902 0.460990 0.314625
v -0.039902 0.460990 0.319137
v -0.039279 0.461468 0.319137
v -0.039279 0.461468 0.314625
v -0.039279 0.461468 0.314625
v -0.039279 0.461468 0.319137
v -0.038801 0.462091 0.314625
v -0.038801 0.462091 0.319137
v -0.038801 0.462091 0.314625
v -0.038801 0.462091 0.319137
v -0.038500 0.462816 0.314625
v -0.038500 0.462816 0.319137
v -0.038500 0.462816 0.314625
v -0.038500 0.462816 0.319137
v -0.038398 0.463595 0.314625
v -0.038398 0.463595 0.319137
v -0.038398 0.463595 0.314625
v -0.038398 0.463595 0.319137
v -0.038398 0.487657 0.314625
v -0.038398 0.487657 0.319137
v -0.038398 0.487657 0.314625
v -0.038398 0.487657 0.319137
v -0.041406 0.490665 0.319137
v -0.041406 0.490665 0.314625
v -0.041406 0.490665 0.319137
v -0.041406 0.490665 0.314625
v -0.065468 0.490665 0.319137
v -0.065468 0.490665 0.314625
v -0.065468 0.490665 0.319137
v -0.065468 0.490665 0.314625
v -0.066247 0.490563 0.319137
v -0.066247 0.490563 0.314625
v -0.066247 0.490563 0.319137
v -0.066247 0.490563 0.314625
vt -0.008 -0.1084582
vt -0.005 -0.1089803
vt -0.005 -0.1084582
vt -0.008 -0.1089803
vt -0.008 -0.1744713
vt -0.005 -0.1739492
vt -0.008 -0.1739492
vt -0.005 -0.1744713
vt 0.2788053 0.05856815
vt 0.2622877 0.0585
vt 0.2782877 0.0585
vt 0.2617701 0.05856815
vt 0.2792877 0.05876795
vt 0.2612877 0.05876795
vt 0.2797019 0.05908579
vt 0.2608735 0.05908579
vt 0.2800197 0.0595
vt 0.2605556 0.0595
vt 0.2603558 0.05998236
vt 0.2802196 0.05998236
vt 0.2802877 0.0605
vt 0.2602877 0.0605
vt 0.2802877 0.0765
vt 0.2602877 0.0765
vt 0.2802196 0.07701764
vt 0.2603558 0.07701764
vt 0.2800197 0.0775
vt 0.2605556 0.0775
vt 0.2797019 0.07791421
vt 0.2608735 0.07791421
vt 0.2792877 0.07823205
vt 0.2612877 0.07823205
vt 0.2788053 0.07843185
vt 0.2617701 0.07843185
vt 0.2782877 0.0785
vt 0.2622877 0.0785
vt -0.008 -0.03555826
vt -0.005 -0.03608036
vt -0.005 -0.03555826
vt -0.008 -0.03608036
vt -0.008 -0.2280901
vt -0.005 -0.227568
vt -0.008 -0.227568
vt -0.005 -0.2280901
vt 0.008 0.2549181
vt 0.005 0.254396
vt 0.008 0.254396
vt 0.005 0.2549181
vt 0.008 0.2201011
vt 0.005 0.2206232
vt 0.005 0.2201011
vt 0.008 0.2206232
vt 0.008 0.1707889
vt 0.005 0.171311
vt 0.005 0.1707889
vt 0.008 0.171311
vt 0.008 0.1098199
vt 0.005 0.110342
vt 0.005 0.1098199
vt 0.008 0.110342
vt 0.008 0.0605
vt 0.005 0.0765
vt 0.005 0.0605
vt 0.008 0.0765
vt 0.008 0.02548595
vt 0.005 0.02600805
vt 0.005 0.02548595
vt 0.008 0.02600805
vt 0.008 -0.0447395
vt 0.005 -0.04421739
vt 0.005 -0.0447395
vt 0.008 -0.04421739
vt 0.008 -0.1119338
vt 0.005 -0.1114117
vt 0.005 -0.1119338
vt 0.008 -0.1114117
vt 0.005 -0.1715178
vt 0.008 -0.1709957
vt 0.005 -0.1709957
vt 0.008 -0.1715178
vt 0.005 -0.2194309
vt 0.008 -0.2189088
vt 0.005 -0.2189088
vt 0.008 -0.2194309
vt 0.005 -0.252408
vt 0.008 -0.2518859
vt 0.005 -0.2518859
vt 0.008 -0.252408
vt 0.2782877 0.005
vt 0.2622877 0.008
vt 0.2622877 0.005
vt 0.2782877 0.008
vt -0.005 0.2840648
vt -0.008 0.2835427
vt -0.005 0.2835427
vt -0.008 0.2840648
vt -0.005 0.2805177
vt -0.008 0.2799956
vt -0.005 0.2799956
vt -0.008 0.2805177
vt -0.005 0.2578716
vt -0.008 0.2573495
vt -0.005 0.2573495
vt -0.008 0.2578716
vt -0.008 0.2176697
vt -0.005 0.2171476
vt -0.005 0.2176697
vt -0.008 0.2171476
vt -0.008 0.1626519
vt -0.005 0.1621298
vt -0.005 0.1626519
vt -0.008 0.1621298
vt -0.008 0.0965673
vt -0.005 0.0960452
vt -0.005 0.0965673
vt -0.008 0.0960452
vt -0.008 0.0765
vt -0.005 0.0605
vt -0.005 0.0765
vt -0.008 0.0605
vt -0.008 0.03978275
vt -0.005 0.03926065
vt -0.005 0.03978275
vt -0.008 0.03926065
vt -0.008 -0.2661827
vt -0.005 -0.2656606
vt -0.008 -0.2656606
vt -0.005 -0.2661827
vt -0.2782877 0.008
vt -0.2622877 0.005
vt -0.2622877 0.008
vt -0.2782877 0.005
vt 0.008 0.2702901
vt 0.005 0.269768
vt 0.008 0.269768
vt 0.005 0.2702901
vt 0.008 0.2718586
vt 0.005 0.2713365
vt 0.008 0.2713365
vt 0.005 0.2718586
vn -0.7071067811865476 -0.7071067811865476 0
vn -0.866025402838329 -0.5000000016387101 0
vn 0.866025402838329 0.5000000016387101 0
vn 0.7071067811865476 0.7071067811865476 0
vn -0.5000000016387101 -0.866025402838329 0
vn 0.5000000016387101 0.866025402838329 0
vn 0 0 1
vn 0 0 -1
vn -0.9659258358036645 -0.25881900959356163 0
vn 0.9659258358036645 0.25881900959356163 0
vn -0.25881900959356163 -0.9659258358036645 0
vn 0.25881900959356163 0.9659258358036645 0
vn 0.5000000016387101 -0.866025402838329 0
vn 0.7071067811865476 -0.7071067811865476 0
vn -0.5000000016387101 0.866025402838329 0
vn -0.7071067811865476 0.7071067811865476 0
vn 0.866025402838329 -0.5000000016387101 0
vn -0.866025402838329 0.5000000016387101 0
vn 0.9659258358036645 -0.25881900959356163 0
vn -0.9659258358036645 0.25881900959356163 0
vn 0.9978589230889555 -0.06540313151333016 0
vn -0.9978589230889555 0.06540313151333016 0
vn 0.9978589230889555 0.06540313151333016 0
vn -0.9978589230889555 -0.06540313151333016 0
vn 0.06540313151333016 0.9978589230889555 0
vn -0.06540313151333016 -0.9978589230889555 0
vn -0.06540313151333016 0.9978589230889555 0
vn 0.06540313151333016 -0.9978589230889555 0
vn -0.25881900959356163 0.9659258358036645 0
vn 0.25881900959356163 -0.9659258358036645 0
usemtl material_0_0
f 1/1/1 2/2/2 3/3/1
f 2/2/2 1/1/1 4/4/2
f 5/4/3 6/1/4 7/2/3
f 8/3/4 7/2/3 6/1/4
f 1/5/1 9/6/5 10/7/5
f 9/6/5 1/5/1 3/8/1
f 8/8/4 6/5/4 11/6/6
f 12/7/6 11/6/6 6/5/4
f 13/9/7 14/10/7 15/11/7
f 14/10/7 13/9/7 16/12/7
f 16/12/7 13/9/7 17/13/7
f 16/12/7 17/13/7 18/14/7
f 18/14/7 17/13/7 19/15/7
f 18/14/7 19/15/7 20/16/7
f 20/16/7 19/15/7 21/17/7
f 20/16/7 21/17/7 22/18/7
f 22/18/7 21/17/7 23/19/7
f 23/19/7 21/17/7 24/20/7
f 23/19/7 24/20/7 25/21/7
f 23/19/7 25/21/7 26/22/7
f 26/22/7 25/21/7 27/23/7
f 26/22/7 27/23/7 28/24/7
f 28/24/7 27/23/7 29/25/7
f 28/24/7 29/25/7 30/26/7
f 30/26/7 29/25/7 31/27/7
f 30/26/7 31/27/7 32/28/7
f 32/28/7 31/27/7 33/29/7
f 32/28/7 33/29/7 34/30/7
f 34/30/7 33/29/7 35/31/7
f 34/30/7 35/31/7 36/32/7
f 36/32/7 35/31/7 37/33/7
f 36/32/7 37/33/7 38/34/7
f 38/34/7 37/33/7 39/35/7
f 38/34/7 39/35/7 40/36/7
f 41/36/8 42/35/8 43/34/8
f 42/35/8 44/33/8 43/34/8
f 43/34/8 44/33/8 45/32/8
f 44/33/8 46/31/8 45/32/8
f 45/32/8 46/31/8 47/30/8
f 46/31/8 48/29/8 47/30/8
f 47/30/8 48/29/8 49/28/8
f 48/29/8 50/27/8 49/28/8
f 49/28/8 50/27/8 51/26/8
f 50/27/8 52/25/8 51/26/8
f 51/26/8 52/25/8 53/24/8
f 52/25/8 54/23/8 53/24/8
f 53/24/8 54/23/8 55/22/8
f 54/23/8 56/21/8 55/22/8
f 55/22/8 56/21/8 57/19/8
f 56/21/8 58/20/8 57/19/8
f 58/20/8 59/17/8 57/19/8
f 57/19/8 59/17/8 60/18/8
f 60/18/8 59/17/8 61/16/8
f 59/17/8 62/15/8 61/16/8
f 61/16/8 62/15/8 63/14/8
f 62/15/8 64/13/8 63/14/8
f 63/14/8 64/13/8 65/12/8
f 64/13/8 66/9/8 65/12/8
f 65/12/8 66/9/8 67/10/8
f 68/11/8 67/10/8 66/9/8
f 4/37/2 69/38/9 2/39/2
f 69/38/9 4/37/2 70/40/9
f 71/40/10 5/37/3 72/38/10
f 7/39/3 72/38/10 5/37/3
f 10/41/5 73/42/11 74/43/11
f 73/42/11 10/41/5 9/44/5
f 11/44/6 12/41/6 75/42/12
f 76/43/12 75/42/12 12/41/6
f 77/45/13 78/46/14 79/47/14
f 78/46/14 77/45/13 80/48/13
f 81/48/15 82/45/15 83/46/16
f 84/47/16 83/46/16 82/45/15
f 85/49/17 78/50/14 86/51/17
f 78/50/14 85/49/17 79/52/14
f 84/52/16 87/49/18 83/50/16
f 88/51/18 83/50/16 87/49/18
f 89/53/19 86/54/17 90/55/19
f 86/54/17 89/53/19 85/56/17
f 87/56/18 91/53/20 88/54/18
f 92/55/20 88/54/18 91/53/20
f 93/57/21 90/58/19 94/59/21
f 90/58/19 93/57/21 89/60/19
f 91/60/20 95/57/22 92/58/20
f 96/59/22 92/58/20 95/57/22
f 97/61/23 94/62/21 98/63/23
f 94/62/21 97/61/23 93/64/21
f 95/64/22 99/61/24 96/62/22
f 100/63/24 96/62/22 99/61/24
f 101/65/10 98/66/23 102/67/10
f 98/66/23 101/65/10 97/68/23
f 99/68/24 103/65/9 100/66/24
f 104/67/9 100/66/24 103/65/9
f 105/69/3 102/70/10 106/71/3
f 102/70/10 105/69/3 101/72/10
f 103/72/9 107/69/2 104/70/9
f 108/71/2 104/70/9 107/69/2
f 109/73/4 106/74/3 110/75/4
f 106/74/3 109/73/4 105/76/3
f 107/76/2 111/73/1 108/74/2
f 112/75/1 108/74/2 111/73/1
f 113/77/6 109/78/4 110/79/4
f 109/78/4 113/77/6 114/80/6
f 115/80/5 116/77/5 111/78/1
f 112/79/1 111/78/1 116/77/5
f 117/81/12 114/82/6 113/83/6
f 114/82/6 117/81/12 118/84/12
f 119/84/11 120/81/11 115/82/5
f 116/83/5 115/82/5 120/81/11
f 121/85/25 118/86/12 117/87/12
f 118/86/12 121/85/25 122/88/25
f 123/88/26 124/85/26 119/86/11
f 120/87/11 119/86/11 124/85/26
f 125/89/27 122/90/25 121/91/25
f 122/90/25 125/89/27 126/92/27
f 127/92/28 128/89/28 123/90/26
f 124/91/26 123/90/26 128/89/28
f 129/93/29 126/94/27 125/95/27
f 126/94/27 129/93/29 130/96/29
f 131/96/30 132/93/30 127/94/28
f 128/95/28 127/94/28 132/93/30
f 133/97/15 130/98/29 129/99/29
f 130/98/29 133/97/15 134/100/15
f 135/100/13 136/97/13 131/98/30
f 132/99/30 131/98/30 136/97/13
f 137/101/16 134/102/15 133/103/15
f 134/102/15 137/101/16 138/104/16
f 139/104/14 140/101/14 135/102/13
f 136/103/13 135/102/13 140/101/14
f 141/105/18 137/106/16 142/107/18
f 137/106/16 141/105/18 138/108/16
f 139/108/14 143/105/17 140/106/14
f 144/107/17 140/106/14 143/105/17
f 145/109/20 142/110/18 146/111/20
f 142/110/18 145/109/20 141/112/18
f 143/112/17 147/109/19 144/110/17
f 148/111/19 144/110/17 147/109/19
f 149/113/22 146/114/20 150/115/22
f 146/114/20 149/113/22 145/116/20
f 147/116/19 151/113/21 148/114/19
f 152/115/21 148/114/19 151/113/21
f 153/117/24 150/118/22 154/119/24
f 150/118/22 153/117/24 149/120/22
f 151/120/21 155/117/23 152/118/21
f 156/119/23 152/118/21 155/117/23
f 70/121/9 154/122/24 69/123/9
f 154/122/24 70/121/9 153/124/24
f 155/124/23 71/121/10 156/122/23
f 72/123/10 156/122/23 71/121/10
f 74/125/11 157/126/26 158/127/26
f 157/126/26 74/125/11 73/128/11
f 75/128/12 76/125/12 159/126/25
f 160/127/25 159/126/25 76/125/12
f 158/129/26 161/130/28 162/131/28
f 161/130/28 158/129/26 157/132/26
f 159/132/25 160/129/25 163/130/27
f 164/131/27 163/130/27 160/129/25
f 162/133/28 165/134/30 166/135/30
f 165/134/30 162/133/28 161/136/28
f 163/136/27 164/133/27 167/134/29
f 168/135/29 167/134/29 164/133/27
f 166/137/30 80/138/13 77/139/13
f 80/138/13 166/137/30 165/140/30
f 167/140/29 168/137/29 81/138/15
f 82/139/15 81/138/15 168/137/29
