# SSTK version 0.8.0
# 39
mtllib original-39.mtl
o #ID246
v -0.323156 0.424783 0.319137
v -0.295910 0.424783 0.319137
v -0.309533 0.422990 0.319137
v -0.335851 0.430041 0.319137
v -0.283215 0.430041 0.319137
v -0.346753 0.438406 0.319137
v -0.272313 0.438406 0.319137
v -0.355118 0.449308 0.319137
v -0.263948 0.449308 0.319137
v -0.360376 0.462003 0.319137
v -0.258690 0.462003 0.319137
v -0.362170 0.475626 0.319137
v -0.256897 0.475626 0.319137
v -0.360376 0.489249 0.319137
v -0.258690 0.489249 0.319137
v -0.355118 0.501944 0.319137
v -0.263948 0.501944 0.319137
v -0.346753 0.512846 0.319137
v -0.272313 0.512846 0.319137
v -0.335851 0.521211 0.319137
v -0.283215 0.521211 0.319137
v -0.323156 0.526469 0.319137
v -0.295910 0.526469 0.319137
v -0.309533 0.528263 0.319137
v -0.272313 0.512846 0.364254
v -0.283215 0.521211 0.319137
v -0.283215 0.521211 0.364254
v -0.272313 0.512846 0.319137
v -0.263948 0.501944 0.319137
v -0.263948 0.501944 0.364254
v -0.258690 0.489249 0.319137
v -0.258690 0.489249 0.364254
v -0.256897 0.475626 0.319137
v -0.256897 0.475626 0.364254
v -0.258690 0.462003 0.319137
v -0.258690 0.462003 0.364254
v -0.263948 0.449308 0.319137
v -0.263948 0.449308 0.364254
v -0.272313 0.438406 0.319137
v -0.272313 0.438406 0.364254
v -0.283215 0.430041 0.364254
v -0.283215 0.430041 0.319137
v -0.295910 0.424783 0.364254
v -0.295910 0.424783 0.319137
v -0.309533 0.422990 0.364254
v -0.309533 0.422990 0.319137
v -0.323156 0.424783 0.364254
v -0.323156 0.424783 0.319137
v -0.335851 0.430041 0.364254
v -0.335851 0.430041 0.319137
v -0.346753 0.438406 0.364254
v -0.346753 0.438406 0.319137
v -0.355118 0.449308 0.319137
v -0.355118 0.449308 0.364254
v -0.360376 0.462003 0.319137
v -0.360376 0.462003 0.364254
v -0.362170 0.475626 0.319137
v -0.362170 0.475626 0.364254
v -0.360376 0.489249 0.319137
v -0.360376 0.489249 0.364254
v -0.355118 0.501944 0.319137
v -0.355118 0.501944 0.364254
v -0.346753 0.512846 0.319137
v -0.346753 0.512846 0.364254
v -0.335851 0.521211 0.364254
v -0.335851 0.521211 0.319137
v -0.323156 0.526469 0.364254
v -0.323156 0.526469 0.319137
v -0.311037 0.528065 0.364254
v -0.311037 0.528065 0.362750
v -0.309533 0.528263 0.319137
v -0.309533 0.528263 0.362750
v -0.295910 0.526469 0.364254
v -0.308029 0.528065 0.362750
v -0.308029 0.528065 0.364254
v -0.295910 0.526469 0.319137
v -0.258690 0.489249 0.364254
v -0.308029 0.475626 0.364254
v -0.256897 0.475626 0.364254
v -0.308029 0.528065 0.364254
v -0.263948 0.501944 0.364254
v -0.272313 0.512846 0.364254
v -0.283215 0.521211 0.364254
v -0.295910 0.526469 0.364254
v -0.295910 0.424783 0.364254
v -0.323156 0.424783 0.364254
v -0.309533 0.422990 0.364254
v -0.283215 0.430041 0.364254
v -0.335851 0.430041 0.364254
v -0.272313 0.438406 0.364254
v -0.346753 0.438406 0.364254
v -0.263948 0.449308 0.364254
v -0.355118 0.449308 0.364254
v -0.258690 0.462003 0.364254
v -0.360376 0.462003 0.364254
v -0.362170 0.475626 0.364254
v -0.311037 0.475626 0.364254
v -0.311037 0.528065 0.364254
v -0.360376 0.489249 0.364254
v -0.355118 0.501944 0.364254
v -0.346753 0.512846 0.364254
v -0.335851 0.521211 0.364254
v -0.323156 0.526469 0.364254
v -0.308029 0.475626 0.364254
v -0.311037 0.475626 0.362750
v -0.311037 0.475626 0.364254
v -0.308029 0.475626 0.362750
vn 0 0 -1
vn 0.7071067811865476 0.7071067811865476 0
vn 0.5000000016387101 0.866025402838329 0
vn 0.866025402838329 0.5000000016387101 0
vn 0.9659258358036645 0.25881900959356163 0
vn 1 0 0
vn 0.9659258358036645 -0.25881900959356163 0
vn 0.866025402838329 -0.5000000016387101 0
vn 0.7071067811865476 -0.7071067811865476 0
vn 0.5000000016387101 -0.866025402838329 0
vn 0.25881900959356163 -0.9659258358036645 0
vn 0 -1 0
vn -0.25881900959356163 -0.9659258358036645 0
vn -0.5000000016387101 -0.866025402838329 0
vn -0.7071067811865476 -0.7071067811865476 0
vn -0.866025402838329 -0.5000000016387101 0
vn -0.9659258358036645 -0.25881900959356163 0
vn -1 0 0
vn -0.9659258358036645 0.25881900959356163 0
vn -0.866025402838329 0.5000000016387101 0
vn -0.7071067811865476 0.7071067811865476 0
vn -0.5000000016387101 0.866025402838329 0
vn -0.25881900959356163 0.9659258358036645 0
vn -0.1305261948688555 0.9914448610250887 0
vn 0 1 0
vn 0.25881900959356163 0.9659258358036645 0
vn 0.1305261948688555 0.9914448610250887 0
vn 0 0 1
usemtl material_0_0
f 1//1 2//1 3//1
f 2//1 1//1 4//1
f 2//1 4//1 5//1
f 5//1 4//1 6//1
f 5//1 6//1 7//1
f 7//1 6//1 8//1
f 7//1 8//1 9//1
f 9//1 8//1 10//1
f 9//1 10//1 11//1
f 11//1 10//1 12//1
f 11//1 12//1 13//1
f 13//1 12//1 14//1
f 13//1 14//1 15//1
f 15//1 14//1 16//1
f 15//1 16//1 17//1
f 17//1 16//1 18//1
f 17//1 18//1 19//1
f 19//1 18//1 20//1
f 19//1 20//1 21//1
f 21//1 20//1 22//1
f 21//1 22//1 23//1
f 23//1 22//1 24//1
f 25//2 26//3 27//3
f 26//3 25//2 28//2
f 29//4 25//2 30//4
f 25//2 29//4 28//2
f 31//5 30//4 32//5
f 30//4 31//5 29//4
f 33//6 32//5 34//6
f 32//5 33//6 31//5
f 35//7 34//6 36//7
f 34//6 35//7 33//6
f 37//8 36//7 38//8
f 36//7 37//8 35//7
f 39//9 38//8 40//9
f 38//8 39//9 37//8
f 39//9 41//10 42//10
f 41//10 39//9 40//9
f 42//10 43//11 44//11
f 43//11 42//10 41//10
f 44//11 45//12 46//12
f 45//12 44//11 43//11
f 46//12 47//13 48//13
f 47//13 46//12 45//12
f 48//13 49//14 50//14
f 49//14 48//13 47//13
f 50//14 51//15 52//15
f 51//15 50//14 49//14
f 53//16 51//15 54//16
f 51//15 53//16 52//15
f 55//17 54//16 56//17
f 54//16 55//17 53//16
f 57//18 56//17 58//18
f 56//17 57//18 55//17
f 59//19 58//18 60//19
f 58//18 59//19 57//18
f 61//20 60//19 62//20
f 60//19 61//20 59//19
f 63//21 62//20 64//21
f 62//20 63//21 61//20
f 65//22 63//21 64//21
f 63//21 65//22 66//22
f 67//23 66//22 65//22
f 66//22 67//23 68//23
f 69//24 68//23 67//23
f 68//23 69//24 70//24
f 68//23 70//24 71//25
f 71//25 70//24 72//25
f 73//26 74//27 75//27
f 74//27 71//25 72//25
f 71//25 74//27 76//26
f 76//26 74//27 73//26
f 27//3 76//26 73//26
f 76//26 27//3 26//3
f 77//28 78//28 79//28
f 78//28 77//28 80//28
f 80//28 77//28 81//28
f 80//28 81//28 82//28
f 80//28 82//28 83//28
f 80//28 83//28 84//28
f 85//28 86//28 87//28
f 86//28 85//28 88//28
f 86//28 88//28 89//28
f 89//28 88//28 90//28
f 89//28 90//28 91//28
f 91//28 90//28 92//28
f 91//28 92//28 93//28
f 93//28 92//28 94//28
f 93//28 94//28 95//28
f 95//28 94//28 96//28
f 96//28 94//28 79//28
f 96//28 79//28 78//28
f 96//28 78//28 97//28
f 96//28 97//28 98//28
f 96//28 98//28 99//28
f 99//28 98//28 100//28
f 100//28 98//28 101//28
f 101//28 98//28 102//28
f 102//28 98//28 103//28
f 104//25 105//25 106//25
f 105//25 104//25 107//25
