# SSTK version 0.8.0
# 261
mtllib original-261.mtl
o #ID1598
v -0.204946 -0.457198 0.098798
v -0.205437 -0.454734 0.098409
v -0.204996 -0.457207 0.098409
v -0.244814 -0.233478 0.098798
v -0.205571 -0.453982 0.098409
v -0.244865 -0.233483 0.098409
v -0.243751 -0.233384 0.096957
v -0.242972 -0.233315 0.096957
v -0.243361 -0.233350 0.096905
v -0.244113 -0.233416 0.097107
v -0.242609 -0.233283 0.097107
v -0.244425 -0.233444 0.097346
v -0.242298 -0.233256 0.097346
v -0.244664 -0.233465 0.097657
v -0.242059 -0.233235 0.097657
v -0.244814 -0.233478 0.098020
v -0.241909 -0.233221 0.098020
v -0.244865 -0.233483 0.098409
v -0.241858 -0.233217 0.098409
v -0.244814 -0.233478 0.098798
v -0.241909 -0.233221 0.098798
v -0.244664 -0.233465 0.099161
v -0.242059 -0.233235 0.099161
v -0.244425 -0.233444 0.099473
v -0.242298 -0.233256 0.099473
v -0.244113 -0.233416 0.099712
v -0.242609 -0.233283 0.099712
v -0.243751 -0.233384 0.099862
v -0.242972 -0.233315 0.099862
v -0.243361 -0.233350 0.099913
v -0.204946 -0.457198 0.098020
v -0.244814 -0.233478 0.098020
v -0.203132 -0.456875 0.096957
v -0.203899 -0.457011 0.096957
v -0.203515 -0.456943 0.096905
v -0.202775 -0.456811 0.097107
v -0.204256 -0.457075 0.097107
v -0.202468 -0.456756 0.097346
v -0.204562 -0.457129 0.097346
v -0.202233 -0.456714 0.097657
v -0.204798 -0.457171 0.097657
v -0.202085 -0.456688 0.098020
v -0.204946 -0.457198 0.098020
v -0.202035 -0.456679 0.098409
v -0.204996 -0.457207 0.098409
v -0.202085 -0.456688 0.098798
v -0.204946 -0.457198 0.098798
v -0.202233 -0.456714 0.099161
v -0.204798 -0.457171 0.099161
v -0.202468 -0.456756 0.099473
v -0.204562 -0.457129 0.099473
v -0.202775 -0.456811 0.099712
v -0.204256 -0.457075 0.099712
v -0.203132 -0.456875 0.099862
v -0.203899 -0.457011 0.099862
v -0.203515 -0.456943 0.099913
v -0.204798 -0.457171 0.099161
v -0.205348 -0.454084 0.099174
v -0.244664 -0.233465 0.099161
v -0.244113 -0.233416 0.097107
v -0.204562 -0.457129 0.097346
v -0.244425 -0.233444 0.097346
v -0.204256 -0.457075 0.097107
v -0.205348 -0.454084 0.097644
v -0.204798 -0.457171 0.097657
v -0.244664 -0.233465 0.097657
v -0.204562 -0.457129 0.099473
v -0.244425 -0.233444 0.099473
v -0.244113 -0.233416 0.099712
v -0.204256 -0.457075 0.099712
v -0.243751 -0.233384 0.099862
v -0.203899 -0.457011 0.099862
v -0.243361 -0.233350 0.099913
v -0.203515 -0.456943 0.099913
v -0.242972 -0.233315 0.099862
v -0.203132 -0.456875 0.099862
v -0.242609 -0.233283 0.099712
v -0.202775 -0.456811 0.099712
v -0.242298 -0.233256 0.099473
v -0.202468 -0.456756 0.099473
v -0.202233 -0.456714 0.099161
v -0.242059 -0.233235 0.099161
v -0.202085 -0.456688 0.098798
v -0.241909 -0.233221 0.098798
v -0.202035 -0.456679 0.098409
v -0.202382 -0.454734 0.098409
v -0.241858 -0.233217 0.098409
v -0.241909 -0.233221 0.098020
v -0.202085 -0.456688 0.098020
v -0.242059 -0.233235 0.097657
v -0.202233 -0.456714 0.097657
v -0.242298 -0.233256 0.097346
v -0.202468 -0.456756 0.097346
v -0.202775 -0.456811 0.097107
v -0.242609 -0.233283 0.097107
v -0.203132 -0.456875 0.096957
v -0.242972 -0.233315 0.096957
v -0.203515 -0.456943 0.096905
v -0.243361 -0.233350 0.096905
v -0.203899 -0.457011 0.096957
v -0.243751 -0.233384 0.096957
vn -0.9514378134360288 -0.169550302394358 0.25694120362847617
vn -0.9844894840555973 -0.17544359715858482 0
vn -0.9519130928024995 -0.16963509871737378 0.2551183980710269
vn -0.08806397186734367 0.9961148211220169 0
vn -0.9514378134360288 -0.169550302394358 -0.25694120362847617
vn -0.9519130928024995 -0.16963509871737378 -0.2551183980710269
vn 0.17544359715858482 -0.9844894840555973 0
vn -0.852356720097843 -0.15188790358138696 0.5004179117994266
vn -0.8521227207129989 -0.15184620369100618 0.500828912173914
vn -0.8540841572192162 -0.15219579237656472 0.49736977508691776
vn -0.4976681941042189 -0.08868831894932624 -0.8628213897783179
vn -0.6942291883175877 -0.12371169791819318 -0.7090424880683113
vn -0.697783095712594 -0.12434479923598517 -0.7054339956655844
vn -0.49224471087187377 -0.08772182193745216 -0.8660254191273138
vn -0.8521227207129989 -0.15184620369100618 -0.500828912173914
vn -0.852356720097843 -0.15188790358138696 -0.5004179117994266
vn -0.8540841572192162 -0.15219579237656472 -0.49736977508691776
vn -0.6942291883175877 -0.12371169791819318 0.7090424880683113
vn -0.697783095712594 -0.12434479923598517 0.7054339956655844
vn -0.4976681941042189 -0.08868831894932624 0.8628213897783179
vn -0.49224471087187377 -0.08772182193745216 0.8660254191273138
vn -0.2615425093621405 -0.046608901668405985 0.9640659345095747
vn -0.2548046081178984 -0.04540816144667259 0.9659258307737283
vn -0.00721369067300741 -0.00128553594172737 0.9999731546717725
vn 0 0 1
vn 0.24807939867153123 0.044209669763256576 0.9677303948177898
vn 0.2548046081178984 0.04540816144667259 0.9659258307737283
vn 0.48684099894286487 0.08675883981161032 0.869171298112666
vn 0.49224471087187377 0.08772182193745216 0.8660254191273138
vn 0.6925372386312345 0.1234155068843856 0.7107466396469946
vn 0.6961391822910408 0.12405739684412624 0.7071067820120381
vn 0.8525928907544401 0.15193869835236917 0.4999999945779751
vn 0.8507918829939509 0.15161769696939045 0.5031552899426831
vn 0.9509438279531417 0.16946550498146484 0.258819007608025
vn 0.9504611983345165 0.16937949970319802 0.26064169954328015
vn 0.9844894840555973 0.17544359715858482 0
vn 0.9504611983345165 0.16937949970319802 -0.26064169954328015
vn 0.9509438279531417 0.16946550498146484 -0.258819007608025
vn 0.8507918829939509 0.15161769696939045 -0.5031552899426831
vn 0.8525928907544401 0.15193869835236917 -0.4999999945779751
vn 0.6925372386312345 0.1234155068843856 -0.7107466396469946
vn 0.6961391822910408 0.12405739684412624 -0.7071067820120381
vn 0.49224471087187377 0.08772182193745216 -0.8660254191273138
vn 0.48684099894286487 0.08675883981161032 -0.869171298112666
vn 0.2548046081178984 0.04540816144667259 -0.9659258307737283
vn 0.24807939867153123 0.044209669763256576 -0.9677303948177898
vn 0 0 -1
vn -0.00721369067300741 -0.00128553594172737 -0.9999731546717725
vn -0.2548046081178984 -0.04540816144667259 -0.9659258307737283
vn -0.2615425093621405 -0.046608901668405985 -0.9640659345095747
usemtl material_0_0
f 1//1 2//2 3//2
f 2//2 1//1 4//3
f 2//2 4//3 5//2
f 5//2 4//3 6//2
f 7//4 8//4 9//4
f 8//4 7//4 10//4
f 8//4 10//4 11//4
f 11//4 10//4 12//4
f 11//4 12//4 13//4
f 13//4 12//4 14//4
f 13//4 14//4 15//4
f 15//4 14//4 16//4
f 15//4 16//4 17//4
f 17//4 16//4 18//4
f 17//4 18//4 19//4
f 19//4 18//4 20//4
f 19//4 20//4 21//4
f 21//4 20//4 22//4
f 21//4 22//4 23//4
f 23//4 22//4 24//4
f 23//4 24//4 25//4
f 25//4 24//4 26//4
f 25//4 26//4 27//4
f 27//4 26//4 28//4
f 27//4 28//4 29//4
f 29//4 28//4 30//4
f 2//2 31//5 3//2
f 31//5 2//2 32//6
f 32//6 2//2 5//2
f 32//6 5//2 6//2
f 33//7 34//7 35//7
f 34//7 33//7 36//7
f 34//7 36//7 37//7
f 37//7 36//7 38//7
f 37//7 38//7 39//7
f 39//7 38//7 40//7
f 39//7 40//7 41//7
f 41//7 40//7 42//7
f 41//7 42//7 43//7
f 43//7 42//7 44//7
f 43//7 44//7 45//7
f 45//7 44//7 46//7
f 45//7 46//7 47//7
f 47//7 46//7 48//7
f 47//7 48//7 49//7
f 49//7 48//7 50//7
f 49//7 50//7 51//7
f 51//7 50//7 52//7
f 51//7 52//7 53//7
f 53//7 52//7 54//7
f 53//7 54//7 55//7
f 55//7 54//7 56//7
f 57//8 4//3 1//1
f 4//3 57//8 58//9
f 4//3 58//9 59//10
f 60//11 61//12 62//13
f 61//12 60//11 63//14
f 64//15 61//12 65//16
f 61//12 64//15 62//13
f 62//13 64//15 66//17
f 32//6 65//16 31//5
f 65//16 32//6 64//15
f 64//15 32//6 66//17
f 67//18 58//9 57//8
f 58//9 67//18 68//19
f 58//9 68//19 59//10
f 67//18 69//20 68//19
f 69//20 67//18 70//21
f 70//21 71//22 69//20
f 71//22 70//21 72//23
f 72//23 73//24 71//22
f 73//24 72//23 74//25
f 74//25 75//26 73//24
f 75//26 74//25 76//27
f 76//27 77//28 75//26
f 77//28 76//27 78//29
f 78//29 79//30 77//28
f 79//30 78//29 80//31
f 81//32 79//30 80//31
f 79//30 81//32 82//33
f 83//34 82//33 81//32
f 82//33 83//34 84//35
f 85//36 84//35 83//34
f 84//35 85//36 86//36
f 84//35 86//36 87//36
f 88//37 85//36 89//38
f 85//36 88//37 86//36
f 86//36 88//37 87//36
f 90//39 89//38 91//40
f 89//38 90//39 88//37
f 92//41 91//40 93//42
f 91//40 92//41 90//39
f 92//41 94//43 95//44
f 94//43 92//41 93//42
f 95//44 96//45 97//46
f 96//45 95//44 94//43
f 97//46 98//47 99//48
f 98//47 97//46 96//45
f 99//48 100//49 101//50
f 100//49 99//48 98//47
f 101//50 63//14 60//11
f 63//14 101//50 100//49
