# SSTK version 0.8.0
# 40
mtllib original-40.mtl
o #ID254
v -0.308029 0.528065 0.362750
v -0.311037 0.475626 0.362750
v -0.308029 0.475626 0.362750
v -0.311037 0.528065 0.362750
v -0.309533 0.528263 0.362750
v -0.311037 0.475626 0.362750
v -0.311037 0.528065 0.364254
v -0.311037 0.475626 0.364254
v -0.311037 0.528065 0.362750
v -0.308029 0.528065 0.362750
v -0.308029 0.475626 0.364254
v -0.308029 0.528065 0.364254
v -0.308029 0.475626 0.362750
vn 0 0 1
vn 1 0 0
vn -1 0 0
usemtl material_0_0
f 1//1 2//1 3//1
f 2//1 1//1 4//1
f 4//1 1//1 5//1
f 6//2 7//2 8//2
f 7//2 6//2 9//2
f 10//3 11//3 12//3
f 11//3 10//3 13//3
