# SSTK version 0.8.0
# 265
mtllib original-265.mtl
o #ID1622
v 0.152917 -0.233283 0.097107
v 0.113439 -0.456875 0.096957
v 0.113082 -0.456811 0.097107
v 0.153280 -0.233315 0.096957
v 0.153280 -0.233315 0.096957
v 0.154058 -0.233384 0.096957
v 0.153669 -0.233350 0.096905
v 0.152917 -0.233283 0.097107
v 0.154421 -0.233416 0.097107
v 0.152605 -0.233256 0.097346
v 0.154732 -0.233444 0.097346
v 0.152366 -0.233235 0.097657
v 0.154971 -0.233465 0.097657
v 0.152216 -0.233221 0.098020
v 0.155122 -0.233478 0.098020
v 0.152165 -0.233217 0.098409
v 0.155173 -0.233483 0.098409
v 0.152216 -0.233221 0.098798
v 0.155122 -0.233478 0.098798
v 0.152366 -0.233235 0.099161
v 0.154971 -0.233465 0.099161
v 0.152605 -0.233256 0.099473
v 0.154732 -0.233444 0.099473
v 0.152917 -0.233283 0.099712
v 0.154421 -0.233416 0.099712
v 0.153280 -0.233315 0.099862
v 0.154058 -0.233384 0.099862
v 0.153669 -0.233350 0.099913
v 0.113823 -0.456943 0.096905
v 0.153669 -0.233350 0.096905
v 0.114206 -0.457011 0.096957
v 0.113439 -0.456875 0.096957
v 0.113823 -0.456943 0.096905
v 0.114563 -0.457075 0.097107
v 0.113082 -0.456811 0.097107
v 0.114870 -0.457129 0.097346
v 0.112776 -0.456756 0.097346
v 0.115105 -0.457171 0.097657
v 0.112541 -0.456714 0.097657
v 0.115253 -0.457198 0.098020
v 0.112392 -0.456688 0.098020
v 0.115303 -0.457207 0.098409
v 0.112342 -0.456679 0.098409
v 0.115253 -0.457198 0.098798
v 0.112392 -0.456688 0.098798
v 0.115105 -0.457171 0.099161
v 0.112541 -0.456714 0.099161
v 0.114870 -0.457129 0.099473
v 0.112776 -0.456756 0.099473
v 0.114563 -0.457075 0.099712
v 0.113082 -0.456811 0.099712
v 0.114206 -0.457011 0.099862
v 0.113439 -0.456875 0.099862
v 0.113823 -0.456943 0.099913
v 0.152605 -0.233256 0.097346
v 0.112776 -0.456756 0.097346
v 0.112342 -0.456679 0.098409
v 0.152216 -0.233221 0.098020
v 0.112392 -0.456688 0.098020
v 0.112689 -0.454734 0.098409
v 0.152165 -0.233217 0.098409
v 0.152216 -0.233221 0.098798
v 0.112392 -0.456688 0.098798
v 0.152366 -0.233235 0.099161
v 0.112541 -0.456714 0.099161
v 0.152605 -0.233256 0.099473
v 0.112776 -0.456756 0.099473
v 0.113082 -0.456811 0.099712
v 0.152917 -0.233283 0.099712
v 0.113439 -0.456875 0.099862
v 0.153280 -0.233315 0.099862
v 0.113823 -0.456943 0.099913
v 0.153669 -0.233350 0.099913
v 0.114206 -0.457011 0.099862
v 0.154058 -0.233384 0.099862
v 0.114563 -0.457075 0.099712
v 0.154421 -0.233416 0.099712
v 0.114870 -0.457129 0.099473
v 0.154732 -0.233444 0.099473
v 0.115655 -0.454084 0.099174
v 0.115105 -0.457171 0.099161
v 0.154971 -0.233465 0.099161
v 0.155122 -0.233478 0.098798
v 0.115253 -0.457198 0.098798
v 0.115744 -0.454734 0.098409
v 0.115303 -0.457207 0.098409
v 0.115878 -0.453982 0.098409
v 0.155173 -0.233483 0.098409
v 0.115253 -0.457198 0.098020
v 0.155122 -0.233478 0.098020
v 0.115105 -0.457171 0.097657
v 0.115655 -0.454084 0.097644
v 0.154971 -0.233465 0.097657
v 0.114870 -0.457129 0.097346
v 0.154732 -0.233444 0.097346
v 0.154421 -0.233416 0.097107
v 0.114563 -0.457075 0.097107
v 0.154058 -0.233384 0.096957
v 0.114206 -0.457011 0.096957
v 0.112541 -0.456714 0.097657
v 0.152366 -0.233235 0.097657
vn -0.48684099894286487 0.08675883981161032 -0.869171298112666
vn -0.2548046081178984 0.04540816144667259 -0.9659258307737283
vn -0.49224471087187377 0.08772182193745216 -0.8660254191273138
vn -0.24807939867153123 0.044209669763256576 -0.9677303948177898
vn 0.08806397186734367 0.9961148211220169 0
vn 0 0 -1
vn 0.00721369067300741 -0.00128553594172737 -0.9999731546717725
vn -0.17544359715858482 -0.9844894840555973 0
vn -0.6925372386312345 0.1234155068843856 -0.7107466396469946
vn -0.6961391822910408 0.12405739684412624 -0.7071067820120381
vn -0.9844894840555973 0.17544359715858482 0
vn -0.9504611983345165 0.16937949970319802 -0.26064169954328015
vn -0.9509438279531417 0.16946550498146484 -0.258819007608025
vn -0.9504611983345165 0.16937949970319802 0.26064169954328015
vn -0.9509438279531417 0.16946550498146484 0.258819007608025
vn -0.8507918829939509 0.15161769696939045 0.5031552899426831
vn -0.8525928907544401 0.15193869835236917 0.4999999945779751
vn -0.6925372386312345 0.1234155068843856 0.7107466396469946
vn -0.6961391822910408 0.12405739684412624 0.7071067820120381
vn -0.49224471087187377 0.08772182193745216 0.8660254191273138
vn -0.48684099894286487 0.08675883981161032 0.869171298112666
vn -0.2548046081178984 0.04540816144667259 0.9659258307737283
vn -0.24807939867153123 0.044209669763256576 0.9677303948177898
vn 0 0 1
vn 0.00721369067300741 -0.00128553594172737 0.9999731546717725
vn 0.2548046081178984 -0.04540816144667259 0.9659258307737283
vn 0.2615425093621405 -0.046608901668405985 0.9640659345095747
vn 0.49224471087187377 -0.08772182193745216 0.8660254191273138
vn 0.4976681941042189 -0.08868831894932624 0.8628213897783179
vn 0.6942291883175877 -0.12371169791819318 0.7090424880683113
vn 0.697783095712594 -0.12434479923598517 0.7054339956655844
vn 0.8521227207129989 -0.15184620369100618 0.500828912173914
vn 0.852356720097843 -0.15188790358138696 0.5004179117994266
vn 0.8540841572192162 -0.15219579237656472 0.49736977508691776
vn 0.9519130928024995 -0.16963509871737378 0.2551183980710269
vn 0.9514378134360288 -0.169550302394358 0.25694120362847617
vn 0.9844894840555973 -0.17544359715858482 0
vn 0.9514378134360288 -0.169550302394358 -0.25694120362847617
vn 0.9519130928024995 -0.16963509871737378 -0.2551183980710269
vn 0.852356720097843 -0.15188790358138696 -0.5004179117994266
vn 0.8521227207129989 -0.15184620369100618 -0.500828912173914
vn 0.8540841572192162 -0.15219579237656472 -0.49736977508691776
vn 0.6942291883175877 -0.12371169791819318 -0.7090424880683113
vn 0.697783095712594 -0.12434479923598517 -0.7054339956655844
vn 0.4976681941042189 -0.08868831894932624 -0.8628213897783179
vn 0.49224471087187377 -0.08772182193745216 -0.8660254191273138
vn 0.2615425093621405 -0.046608901668405985 -0.9640659345095747
vn 0.2548046081178984 -0.04540816144667259 -0.9659258307737283
vn -0.8525928907544401 0.15193869835236917 -0.4999999945779751
vn -0.8507918829939509 0.15161769696939045 -0.5031552899426831
usemtl material_0_0
f 1//1 2//2 3//3
f 2//2 1//1 4//4
f 5//5 6//5 7//5
f 6//5 5//5 8//5
f 6//5 8//5 9//5
f 9//5 8//5 10//5
f 9//5 10//5 11//5
f 11//5 10//5 12//5
f 11//5 12//5 13//5
f 13//5 12//5 14//5
f 13//5 14//5 15//5
f 15//5 14//5 16//5
f 15//5 16//5 17//5
f 17//5 16//5 18//5
f 17//5 18//5 19//5
f 19//5 18//5 20//5
f 19//5 20//5 21//5
f 21//5 20//5 22//5
f 21//5 22//5 23//5
f 23//5 22//5 24//5
f 23//5 24//5 25//5
f 25//5 24//5 26//5
f 25//5 26//5 27//5
f 27//5 26//5 28//5
f 4//4 29//6 2//2
f 29//6 4//4 30//7
f 31//8 32//8 33//8
f 32//8 31//8 34//8
f 32//8 34//8 35//8
f 35//8 34//8 36//8
f 35//8 36//8 37//8
f 37//8 36//8 38//8
f 37//8 38//8 39//8
f 39//8 38//8 40//8
f 39//8 40//8 41//8
f 41//8 40//8 42//8
f 41//8 42//8 43//8
f 43//8 42//8 44//8
f 43//8 44//8 45//8
f 45//8 44//8 46//8
f 45//8 46//8 47//8
f 47//8 46//8 48//8
f 47//8 48//8 49//8
f 49//8 48//8 50//8
f 49//8 50//8 51//8
f 51//8 50//8 52//8
f 51//8 52//8 53//8
f 53//8 52//8 54//8
f 55//9 3//3 56//10
f 3//3 55//9 1//1
f 57//11 58//12 59//13
f 58//12 57//11 60//11
f 58//12 60//11 61//11
f 62//14 57//11 63//15
f 57//11 62//14 60//11
f 60//11 62//14 61//11
f 64//16 63//15 65//17
f 63//15 64//16 62//14
f 66//18 65//17 67//19
f 65//17 66//18 64//16
f 68//20 66//18 67//19
f 66//18 68//20 69//21
f 70//22 69//21 68//20
f 69//21 70//22 71//23
f 72//24 71//23 70//22
f 71//23 72//24 73//25
f 74//26 73//25 72//24
f 73//25 74//26 75//27
f 76//28 75//27 74//26
f 75//27 76//28 77//29
f 78//30 77//29 76//28
f 77//29 78//30 79//31
f 80//32 78//30 81//33
f 78//30 80//32 79//31
f 79//31 80//32 82//34
f 83//35 81//33 84//36
f 81//33 83//35 80//32
f 80//32 83//35 82//34
f 85//37 84//36 86//37
f 84//36 85//37 83//35
f 83//35 85//37 87//37
f 83//35 87//37 88//37
f 89//38 85//37 86//37
f 85//37 89//38 90//39
f 85//37 90//39 87//37
f 87//37 90//39 88//37
f 91//40 90//39 89//38
f 90//39 91//40 92//41
f 90//39 92//41 93//42
f 94//43 92//41 91//40
f 92//41 94//43 95//44
f 92//41 95//44 93//42
f 96//45 94//43 97//46
f 94//43 96//45 95//44
f 98//47 97//46 99//48
f 97//46 98//47 96//45
f 30//7 99//48 29//6
f 99//48 30//7 98//47
f 100//49 55//9 56//10
f 55//9 100//49 101//50
f 59//13 101//50 100//49
f 101//50 59//13 58//12
