# SSTK version 0.8.0
# 88
mtllib original-88.mtl
o group_45/ID572#ID572
v -0.423830 0.279078 0.422500
v -0.381720 0.279378 0.421775
v -0.423830 0.279378 0.421775
v -0.381720 0.279078 0.422500
v -0.381720 0.273568 0.420218
v -0.381720 0.273568 0.421775
v -0.381720 0.273465 0.420996
v -0.381720 0.273868 0.419492
v -0.381720 0.273868 0.422500
v -0.381720 0.274346 0.418869
v -0.381720 0.274346 0.423123
v -0.381720 0.274969 0.418391
v -0.381720 0.274969 0.423601
v -0.381720 0.275695 0.418091
v -0.381720 0.275695 0.423902
v -0.381720 0.276473 0.417988
v -0.381720 0.276473 0.424004
v -0.381720 0.277252 0.418091
v -0.381720 0.277252 0.423902
v -0.381720 0.277977 0.418391
v -0.381720 0.277977 0.423601
v -0.381720 0.278600 0.418869
v -0.381720 0.278600 0.423123
v -0.381720 0.279078 0.419492
v -0.381720 0.279078 0.422500
v -0.381720 0.279378 0.420218
v -0.381720 0.279378 0.421775
v -0.381720 0.279481 0.420996
v -0.381720 0.279481 0.420996
v -0.423830 0.279481 0.420996
v -0.423830 0.273568 0.421775
v -0.423830 0.273568 0.420218
v -0.423830 0.273465 0.420996
v -0.423830 0.273868 0.422500
v -0.423830 0.273868 0.419492
v -0.423830 0.274346 0.423123
v -0.423830 0.274346 0.418869
v -0.423830 0.274969 0.423601
v -0.423830 0.274969 0.418391
v -0.423830 0.275695 0.423902
v -0.423830 0.275695 0.418091
v -0.423830 0.276473 0.424004
v -0.423830 0.276473 0.417988
v -0.423830 0.277252 0.423902
v -0.423830 0.277252 0.418091
v -0.423830 0.277977 0.423601
v -0.423830 0.277977 0.418391
v -0.423830 0.278600 0.423123
v -0.423830 0.278600 0.418869
v -0.423830 0.279078 0.422500
v -0.423830 0.279078 0.419492
v -0.423830 0.279378 0.421775
v -0.423830 0.279378 0.420218
v -0.423830 0.279481 0.420996
v -0.423830 0.278600 0.423123
v -0.381720 0.278600 0.423123
v -0.381720 0.277977 0.423601
v -0.423830 0.277977 0.423601
v -0.381720 0.277252 0.423902
v -0.423830 0.277252 0.423902
v -0.381720 0.276473 0.424004
v -0.423830 0.276473 0.424004
v -0.381720 0.275695 0.423902
v -0.423830 0.275695 0.423902
v -0.381720 0.274969 0.423601
v -0.423830 0.274969 0.423601
v -0.381720 0.274346 0.423123
v -0.423830 0.274346 0.423123
v -0.423830 0.273868 0.422500
v -0.381720 0.273868 0.422500
v -0.423830 0.273568 0.421775
v -0.381720 0.273568 0.421775
v -0.423830 0.273465 0.420996
v -0.381720 0.273465 0.420996
v -0.423830 0.273568 0.420218
v -0.381720 0.273568 0.420218
v -0.423830 0.273868 0.419492
v -0.381720 0.273868 0.419492
v -0.423830 0.274346 0.418869
v -0.381720 0.274346 0.418869
v -0.381720 0.274969 0.418391
v -0.423830 0.274969 0.418391
v -0.381720 0.275695 0.418091
v -0.423830 0.275695 0.418091
v -0.381720 0.276473 0.417988
v -0.423830 0.276473 0.417988
v -0.381720 0.277252 0.418091
v -0.423830 0.277252 0.418091
v -0.381720 0.277977 0.418391
v -0.423830 0.277977 0.418391
v -0.381720 0.278600 0.418869
v -0.423830 0.278600 0.418869
v -0.423830 0.279078 0.419492
v -0.381720 0.279078 0.419492
v -0.423830 0.279378 0.420218
v -0.381720 0.279378 0.420218
vn 0 0.866025402838329 0.5000000016387101
vn 0 0.9659258358036645 0.25881900959356163
vn 1 0 0
vn 0 1 0
vn -1 0 0
vn 0 0.7071067811865476 0.7071067811865476
vn 0 0.5000000016387101 0.866025402838329
vn 0 0.25881900959356163 0.9659258358036645
vn 0 0 1
vn 0 -0.25881900959356163 0.9659258358036645
vn 0 -0.5000000016387101 0.866025402838329
vn 0 -0.7071067811865476 0.7071067811865476
vn 0 -0.866025402838329 0.5000000016387101
vn 0 -0.9659258358036645 0.25881900959356163
vn 0 -1 0
vn 0 -0.9659258358036645 -0.25881900959356163
vn 0 -0.866025402838329 -0.5000000016387101
vn 0 -0.7071067811865476 -0.7071067811865476
vn 0 -0.5000000016387101 -0.866025402838329
vn 0 -0.25881900959356163 -0.9659258358036645
vn 0 0 -1
vn 0 0.25881900959356163 -0.9659258358036645
vn 0 0.5000000016387101 -0.866025402838329
vn 0 0.7071067811865476 -0.7071067811865476
vn 0 0.866025402838329 -0.5000000016387101
vn 0 0.9659258358036645 -0.25881900959356163
usemtl material_0_0
f 1//1 2//2 3//2
f 2//2 1//1 4//1
f 5//3 6//3 7//3
f 6//3 5//3 8//3
f 6//3 8//3 9//3
f 9//3 8//3 10//3
f 9//3 10//3 11//3
f 11//3 10//3 12//3
f 11//3 12//3 13//3
f 13//3 12//3 14//3
f 13//3 14//3 15//3
f 15//3 14//3 16//3
f 15//3 16//3 17//3
f 17//3 16//3 18//3
f 17//3 18//3 19//3
f 19//3 18//3 20//3
f 19//3 20//3 21//3
f 21//3 20//3 22//3
f 21//3 22//3 23//3
f 23//3 22//3 24//3
f 23//3 24//3 25//3
f 25//3 24//3 26//3
f 25//3 26//3 27//3
f 27//3 26//3 28//3
f 3//2 29//4 30//4
f 29//4 3//2 2//2
f 31//5 32//5 33//5
f 32//5 31//5 34//5
f 32//5 34//5 35//5
f 35//5 34//5 36//5
f 35//5 36//5 37//5
f 37//5 36//5 38//5
f 37//5 38//5 39//5
f 39//5 38//5 40//5
f 39//5 40//5 41//5
f 41//5 40//5 42//5
f 41//5 42//5 43//5
f 43//5 42//5 44//5
f 43//5 44//5 45//5
f 45//5 44//5 46//5
f 45//5 46//5 47//5
f 47//5 46//5 48//5
f 47//5 48//5 49//5
f 49//5 48//5 50//5
f 49//5 50//5 51//5
f 51//5 50//5 52//5
f 51//5 52//5 53//5
f 53//5 52//5 54//5
f 55//6 4//1 1//1
f 4//1 55//6 56//6
f 57//7 55//6 58//7
f 55//6 57//7 56//6
f 59//8 58//7 60//8
f 58//7 59//8 57//7
f 61//9 60//8 62//9
f 60//8 61//9 59//8
f 63//10 62//9 64//10
f 62//9 63//10 61//9
f 65//11 64//10 66//11
f 64//10 65//11 63//10
f 67//12 66//11 68//12
f 66//11 67//12 65//11
f 67//12 69//13 70//13
f 69//13 67//12 68//12
f 70//13 71//14 72//14
f 71//14 70//13 69//13
f 72//14 73//15 74//15
f 73//15 72//14 71//14
f 74//15 75//16 76//16
f 75//16 74//15 73//15
f 76//16 77//17 78//17
f 77//17 76//16 75//16
f 78//17 79//18 80//18
f 79//18 78//17 77//17
f 81//19 79//18 82//19
f 79//18 81//19 80//18
f 83//20 82//19 84//20
f 82//19 83//20 81//19
f 85//21 84//20 86//21
f 84//20 85//21 83//20
f 87//22 86//21 88//22
f 86//21 87//22 85//21
f 89//23 88//22 90//23
f 88//22 89//23 87//22
f 91//24 90//23 92//24
f 90//23 91//24 89//23
f 93//25 91//24 92//24
f 91//24 93//25 94//25
f 95//26 94//25 93//25
f 94//25 95//26 96//26
f 30//4 96//26 95//26
f 96//26 30//4 29//4
