# SSTK version 0.8.0
# 257
mtllib original-257.mtl
o #ID1579
v -0.082820 -0.456875 0.172152
v -0.083586 -0.457011 0.172152
v -0.083203 -0.456943 0.172101
v -0.082463 -0.456811 0.172302
v -0.083944 -0.457075 0.172302
v -0.082156 -0.456756 0.172541
v -0.084250 -0.457129 0.172541
v -0.081921 -0.456714 0.172853
v -0.084485 -0.457171 0.172853
v -0.081773 -0.456688 0.173215
v -0.084633 -0.457198 0.173215
v -0.081723 -0.456679 0.173605
v -0.084684 -0.457207 0.173605
v -0.081773 -0.456688 0.173994
v -0.084633 -0.457198 0.173994
v -0.081921 -0.456714 0.174356
v -0.084485 -0.457171 0.174356
v -0.082156 -0.456756 0.174668
v -0.084250 -0.457129 0.174668
v -0.082463 -0.456811 0.174907
v -0.083944 -0.457075 0.174907
v -0.082820 -0.456875 0.175057
v -0.083586 -0.457011 0.175057
v -0.083203 -0.456943 0.175108
v -0.122660 -0.233315 0.172152
v -0.083203 -0.456943 0.172101
v -0.123049 -0.233350 0.172101
v -0.082820 -0.456875 0.172152
v -0.122297 -0.233283 0.172302
v -0.082463 -0.456811 0.172302
v -0.121986 -0.233256 0.172541
v -0.082156 -0.456756 0.172541
v -0.081921 -0.456714 0.172853
v -0.121747 -0.233235 0.172853
v -0.081773 -0.456688 0.173215
v -0.121597 -0.233221 0.173215
v -0.081723 -0.456679 0.173605
v -0.082069 -0.454734 0.173605
v -0.121545 -0.233217 0.173605
v -0.121597 -0.233221 0.173994
v -0.081773 -0.456688 0.173994
v -0.121747 -0.233235 0.174356
v -0.081921 -0.456714 0.174356
v -0.121986 -0.233256 0.174668
v -0.082156 -0.456756 0.174668
v -0.082463 -0.456811 0.174907
v -0.122297 -0.233283 0.174907
v -0.082820 -0.456875 0.175057
v -0.122660 -0.233315 0.175057
v -0.083203 -0.456943 0.175108
v -0.123049 -0.233350 0.175108
v -0.083586 -0.457011 0.175057
v -0.123438 -0.233384 0.175057
v -0.083944 -0.457075 0.174907
v -0.123801 -0.233416 0.174907
v -0.084250 -0.457129 0.174668
v -0.124113 -0.233444 0.174668
v -0.085036 -0.454084 0.174370
v -0.084485 -0.457171 0.174356
v -0.124352 -0.233465 0.174356
v -0.124502 -0.233478 0.173994
v -0.084633 -0.457198 0.173994
v -0.085125 -0.454734 0.173605
v -0.084684 -0.457207 0.173605
v -0.085259 -0.453982 0.173605
v -0.124553 -0.233483 0.173605
v -0.084633 -0.457198 0.173215
v -0.124502 -0.233478 0.173215
v -0.084485 -0.457171 0.172853
v -0.085036 -0.454084 0.172839
v -0.124352 -0.233465 0.172853
v -0.084250 -0.457129 0.172541
v -0.124113 -0.233444 0.172541
v -0.123801 -0.233416 0.172302
v -0.083944 -0.457075 0.172302
v -0.123438 -0.233384 0.172152
v -0.083586 -0.457011 0.172152
v -0.123438 -0.233384 0.172152
v -0.122660 -0.233315 0.172152
v -0.123049 -0.233350 0.172101
v -0.123801 -0.233416 0.172302
v -0.122297 -0.233283 0.172302
v -0.124113 -0.233444 0.172541
v -0.121986 -0.233256 0.172541
v -0.124352 -0.233465 0.172853
v -0.121747 -0.233235 0.172853
v -0.124502 -0.233478 0.173215
v -0.121597 -0.233221 0.173215
v -0.124553 -0.233483 0.173605
v -0.121545 -0.233217 0.173605
v -0.124502 -0.233478 0.173994
v -0.121597 -0.233221 0.173994
v -0.124352 -0.233465 0.174356
v -0.121747 -0.233235 0.174356
v -0.124113 -0.233444 0.174668
v -0.121986 -0.233256 0.174668
v -0.123801 -0.233416 0.174907
v -0.122297 -0.233283 0.174907
v -0.123438 -0.233384 0.175057
v -0.122660 -0.233315 0.175057
v -0.123049 -0.233350 0.175108
vn 0.17544359715858482 -0.9844894840555973 0
vn 0.24807939867153123 0.044209669763256576 -0.9677303948177898
vn 0 0 -1
vn -0.00721369067300741 -0.00128553594172737 -0.9999731546717725
vn 0.2548046081178984 0.04540816144667259 -0.9659258307737283
vn 0.48684099894286487 0.08675883981161032 -0.869171298112666
vn 0.49224471087187377 0.08772182193745216 -0.8660254191273138
vn 0.6925372386312345 0.1234155068843856 -0.7107466396469946
vn 0.6961391822910408 0.12405739684412624 -0.7071067820120381
vn 0.8525928907544401 0.15193869835236917 -0.4999999945779751
vn 0.8507918829939509 0.15161769696939045 -0.5031552899426831
vn 0.9509438279531417 0.16946550498146484 -0.258819007608025
vn 0.9504611983345165 0.16937949970319802 -0.26064169954328015
vn 0.9844894840555973 0.17544359715858482 0
vn 0.9504611983345165 0.16937949970319802 0.26064169954328015
vn 0.9509438279531417 0.16946550498146484 0.258819007608025
vn 0.8507918829939509 0.15161769696939045 0.5031552899426831
vn 0.8525928907544401 0.15193869835236917 0.4999999945779751
vn 0.6925372386312345 0.1234155068843856 0.7107466396469946
vn 0.6961391822910408 0.12405739684412624 0.7071067820120381
vn 0.49224471087187377 0.08772182193745216 0.8660254191273138
vn 0.48684099894286487 0.08675883981161032 0.869171298112666
vn 0.2548046081178984 0.04540816144667259 0.9659258307737283
vn 0.24807939867153123 0.044209669763256576 0.9677303948177898
vn 0 0 1
vn -0.00721369067300741 -0.00128553594172737 0.9999731546717725
vn -0.2548046081178984 -0.04540816144667259 0.9659258307737283
vn -0.2615425093621405 -0.046608901668405985 0.9640659345095747
vn -0.49224471087187377 -0.08772182193745216 0.8660254191273138
vn -0.4976681941042189 -0.08868831894932624 0.8628213897783179
vn -0.6942145024789774 -0.12370920044175443 0.7090573025319798
vn -0.6977679415410539 -0.12434220740261344 0.7054494419983658
vn -0.8521193804322461 -0.15184589651306707 0.5008346884990177
vn -0.8523534251605017 -0.151887604483549 0.5004236147719348
vn -0.8540813171375089 -0.1521956030538702 0.49737470998003747
vn -0.951916610956446 -0.16963580195248773 0.25510480293622567
vn -0.9514414234861129 -0.16955110418533006 0.2569273063421916
vn -0.9844894840555973 -0.17544359715858482 0
vn -0.9514414234861129 -0.16955110418533006 -0.2569273063421916
vn -0.951916610956446 -0.16963580195248773 -0.25510480293622567
vn -0.8523534251605017 -0.151887604483549 -0.5004236147719348
vn -0.8521193804322461 -0.15184589651306707 -0.5008346884990177
vn -0.8540813171375089 -0.1521956030538702 -0.49737470998003747
vn -0.6942145024789774 -0.12370920044175443 -0.7090573025319798
vn -0.6977679415410539 -0.12434220740261344 -0.7054494419983658
vn -0.4976681941042189 -0.08868831894932624 -0.8628213897783179
vn -0.49224471087187377 -0.08772182193745216 -0.8660254191273138
vn -0.2615425093621405 -0.046608901668405985 -0.9640659345095747
vn -0.2548046081178984 -0.04540816144667259 -0.9659258307737283
vn -0.08806397186734367 0.9961148211220169 0
usemtl material_0_0
f 1//1 2//1 3//1
f 2//1 1//1 4//1
f 2//1 4//1 5//1
f 5//1 4//1 6//1
f 5//1 6//1 7//1
f 7//1 6//1 8//1
f 7//1 8//1 9//1
f 9//1 8//1 10//1
f 9//1 10//1 11//1
f 11//1 10//1 12//1
f 11//1 12//1 13//1
f 13//1 12//1 14//1
f 13//1 14//1 15//1
f 15//1 14//1 16//1
f 15//1 16//1 17//1
f 17//1 16//1 18//1
f 17//1 18//1 19//1
f 19//1 18//1 20//1
f 19//1 20//1 21//1
f 21//1 20//1 22//1
f 21//1 22//1 23//1
f 23//1 22//1 24//1
f 25//2 26//3 27//4
f 26//3 25//2 28//5
f 29//6 28//5 25//2
f 28//5 29//6 30//7
f 31//8 30//7 29//6
f 30//7 31//8 32//9
f 31//8 33//10 32//9
f 33//10 31//8 34//11
f 34//11 35//12 33//10
f 35//12 34//11 36//13
f 36//13 37//14 35//12
f 37//14 36//13 38//14
f 38//14 36//13 39//14
f 37//14 40//15 41//16
f 40//15 37//14 38//14
f 40//15 38//14 39//14
f 41//16 42//17 43//18
f 42//17 41//16 40//15
f 43//18 44//19 45//20
f 44//19 43//18 42//17
f 46//21 44//19 47//22
f 44//19 46//21 45//20
f 48//23 47//22 49//24
f 47//22 48//23 46//21
f 50//25 49//24 51//26
f 49//24 50//25 48//23
f 52//27 51//26 53//28
f 51//26 52//27 50//25
f 54//29 53//28 55//30
f 53//28 54//29 52//27
f 56//31 55//30 57//32
f 55//30 56//31 54//29
f 56//31 58//33 59//34
f 58//33 56//31 57//32
f 58//33 57//32 60//35
f 59//34 61//36 62//37
f 61//36 59//34 58//33
f 61//36 58//33 60//35
f 62//37 63//38 64//38
f 63//38 62//37 61//36
f 63//38 61//36 65//38
f 65//38 61//36 66//38
f 63//38 67//39 64//38
f 67//39 63//38 68//40
f 68//40 63//38 65//38
f 68//40 65//38 66//38
f 68//40 69//41 67//39
f 69//41 68//40 70//42
f 70//42 68//40 71//43
f 70//42 72//44 69//41
f 72//44 70//42 73//45
f 73//45 70//42 71//43
f 74//46 72//44 73//45
f 72//44 74//46 75//47
f 76//48 75//47 74//46
f 75//47 76//48 77//49
f 27//4 77//49 76//48
f 77//49 27//4 26//3
f 78//50 79//50 80//50
f 79//50 78//50 81//50
f 79//50 81//50 82//50
f 82//50 81//50 83//50
f 82//50 83//50 84//50
f 84//50 83//50 85//50
f 84//50 85//50 86//50
f 86//50 85//50 87//50
f 86//50 87//50 88//50
f 88//50 87//50 89//50
f 88//50 89//50 90//50
f 90//50 89//50 91//50
f 90//50 91//50 92//50
f 92//50 91//50 93//50
f 92//50 93//50 94//50
f 94//50 93//50 95//50
f 94//50 95//50 96//50
f 96//50 95//50 97//50
f 96//50 97//50 98//50
f 98//50 97//50 99//50
f 98//50 99//50 100//50
f 100//50 99//50 101//50
