# SSTK version 0.8.0
# 170
mtllib original-170.mtl
o #ID1051
v -0.325749 0.008468 -0.029422
v -0.325258 0.006004 -0.029812
v -0.325308 0.005995 -0.029422
v -0.365126 0.229724 -0.029812
v -0.325883 0.009220 -0.029422
v -0.365177 0.229719 -0.029422
v -0.364063 0.229818 -0.030875
v -0.363284 0.229886 -0.030875
v -0.363674 0.229852 -0.030926
v -0.364426 0.229786 -0.030725
v -0.362922 0.229919 -0.030725
v -0.364737 0.229758 -0.030486
v -0.362610 0.229946 -0.030486
v -0.364976 0.229737 -0.030174
v -0.362371 0.229967 -0.030174
v -0.365126 0.229724 -0.029812
v -0.362221 0.229980 -0.029812
v -0.365177 0.229719 -0.029422
v -0.362170 0.229985 -0.029422
v -0.365126 0.229724 -0.029033
v -0.362221 0.229980 -0.029033
v -0.364976 0.229737 -0.028670
v -0.362371 0.229967 -0.028670
v -0.364737 0.229758 -0.028359
v -0.362610 0.229946 -0.028359
v -0.364426 0.229786 -0.028120
v -0.362922 0.229919 -0.028120
v -0.364063 0.229818 -0.027970
v -0.363284 0.229886 -0.027970
v -0.363674 0.229852 -0.027918
v -0.325110 0.006031 -0.030174
v -0.325660 0.009118 -0.030188
v -0.364976 0.229737 -0.030174
v -0.323444 0.006327 -0.030875
v -0.324211 0.006191 -0.030875
v -0.323828 0.006259 -0.030926
v -0.323087 0.006391 -0.030725
v -0.324568 0.006127 -0.030725
v -0.322781 0.006446 -0.030486
v -0.324875 0.006072 -0.030486
v -0.322545 0.006488 -0.030174
v -0.325110 0.006031 -0.030174
v -0.322397 0.006514 -0.029812
v -0.325258 0.006004 -0.029812
v -0.322347 0.006523 -0.029422
v -0.325308 0.005995 -0.029422
v -0.322397 0.006514 -0.029033
v -0.325258 0.006004 -0.029033
v -0.322545 0.006488 -0.028670
v -0.325110 0.006031 -0.028670
v -0.322781 0.006446 -0.028359
v -0.324875 0.006072 -0.028359
v -0.323087 0.006391 -0.028120
v -0.324568 0.006127 -0.028120
v -0.323444 0.006327 -0.027970
v -0.324211 0.006191 -0.027970
v -0.323828 0.006259 -0.027918
v -0.325258 0.006004 -0.029033
v -0.365126 0.229724 -0.029033
v -0.323087 0.006391 -0.028120
v -0.362610 0.229946 -0.028359
v -0.362922 0.229919 -0.028120
v -0.322781 0.006446 -0.028359
v -0.322545 0.006488 -0.028670
v -0.362371 0.229967 -0.028670
v -0.322397 0.006514 -0.029033
v -0.362221 0.229980 -0.029033
v -0.322347 0.006523 -0.029422
v -0.322694 0.008468 -0.029422
v -0.362170 0.229985 -0.029422
v -0.362221 0.229980 -0.029812
v -0.322397 0.006514 -0.029812
v -0.362371 0.229967 -0.030174
v -0.322545 0.006488 -0.030174
v -0.362610 0.229946 -0.030486
v -0.322781 0.006446 -0.030486
v -0.323087 0.006391 -0.030725
v -0.362922 0.229919 -0.030725
v -0.323444 0.006327 -0.030875
v -0.363284 0.229886 -0.030875
v -0.323828 0.006259 -0.030926
v -0.363674 0.229852 -0.030926
v -0.324211 0.006191 -0.030875
v -0.364063 0.229818 -0.030875
v -0.324568 0.006127 -0.030725
v -0.364426 0.229786 -0.030725
v -0.324875 0.006072 -0.030486
v -0.364737 0.229758 -0.030486
v -0.325110 0.006031 -0.028670
v -0.325660 0.009118 -0.028657
v -0.364976 0.229737 -0.028670
v -0.324875 0.006072 -0.028359
v -0.364737 0.229758 -0.028359
v -0.364426 0.229786 -0.028120
v -0.324568 0.006127 -0.028120
v -0.364063 0.229818 -0.027970
v -0.324211 0.006191 -0.027970
v -0.363674 0.229852 -0.027918
v -0.323828 0.006259 -0.027918
v -0.363284 0.229886 -0.027970
v -0.323444 0.006327 -0.027970
vn -0.9844894840555973 -0.17544359715858482 0
vn -0.9514378134360288 -0.169550302394358 -0.25694120362847617
vn -0.9519130928024995 -0.16963509871737378 -0.2551183980710269
vn -0.08806397186734367 0.9961148211220169 0
vn -0.852356720097843 -0.15188790358138696 -0.5004179117994266
vn -0.8521227207129989 -0.15184620369100618 -0.500828912173914
vn -0.8540841572192162 -0.15219579237656472 -0.49736977508691776
vn 0.17544359715858482 -0.9844894840555973 0
vn -0.9514378134360288 -0.169550302394358 0.25694120362847617
vn -0.9519130928024995 -0.16963509871737378 0.2551183980710269
vn 0.49224471087187377 0.08772182193745216 0.8660254191273138
vn 0.6925372386312345 0.1234155068843856 0.7107466396469946
vn 0.48684099894286487 0.08675883981161032 0.869171298112666
vn 0.6961391822910408 0.12405739684412624 0.7071067820120381
vn 0.8525928907544401 0.15193869835236917 0.4999999945779751
vn 0.8507918829939509 0.15161769696939045 0.5031552899426831
vn 0.9509438279531417 0.16946550498146484 0.258819007608025
vn 0.9504611983345165 0.16937949970319802 0.26064169954328015
vn 0.9844894840555973 0.17544359715858482 0
vn 0.9504611983345165 0.16937949970319802 -0.26064169954328015
vn 0.9509438279531417 0.16946550498146484 -0.258819007608025
vn 0.8507918829939509 0.15161769696939045 -0.5031552899426831
vn 0.8525928907544401 0.15193869835236917 -0.4999999945779751
vn 0.6925372386312345 0.1234155068843856 -0.7107466396469946
vn 0.6961391822910408 0.12405739684412624 -0.7071067820120381
vn 0.49224471087187377 0.08772182193745216 -0.8660254191273138
vn 0.48684099894286487 0.08675883981161032 -0.869171298112666
vn 0.2548046081178984 0.04540816144667259 -0.9659258307737283
vn 0.24807939867153123 0.044209669763256576 -0.9677303948177898
vn 0 0 -1
vn -0.00721369067300741 -0.00128553594172737 -0.9999731546717725
vn -0.2548046081178984 -0.04540816144667259 -0.9659258307737283
vn -0.2615425093621405 -0.046608901668405985 -0.9640659345095747
vn -0.49224471087187377 -0.08772182193745216 -0.8660254191273138
vn -0.4976681941042189 -0.08868831894932624 -0.8628213897783179
vn -0.6942291883175877 -0.12371169791819318 -0.7090424880683113
vn -0.697783095712594 -0.12434479923598517 -0.7054339956655844
vn -0.852356720097843 -0.15188790358138696 0.5004179117994266
vn -0.8521227207129989 -0.15184620369100618 0.500828912173914
vn -0.8540841572192162 -0.15219579237656472 0.49736977508691776
vn -0.6942291883175877 -0.12371169791819318 0.7090424880683113
vn -0.697783095712594 -0.12434479923598517 0.7054339956655844
vn -0.4976681941042189 -0.08868831894932624 0.8628213897783179
vn -0.49224471087187377 -0.08772182193745216 0.8660254191273138
vn -0.2615425093621405 -0.046608901668405985 0.9640659345095747
vn -0.2548046081178984 -0.04540816144667259 0.9659258307737283
vn -0.00721369067300741 -0.00128553594172737 0.9999731546717725
vn 0 0 1
vn 0.24807939867153123 0.044209669763256576 0.9677303948177898
vn 0.2548046081178984 0.04540816144667259 0.9659258307737283
usemtl material_0_0
f 1//1 2//2 3//1
f 2//2 1//1 4//3
f 4//3 1//1 5//1
f 4//3 5//1 6//1
f 7//4 8//4 9//4
f 8//4 7//4 10//4
f 8//4 10//4 11//4
f 11//4 10//4 12//4
f 11//4 12//4 13//4
f 13//4 12//4 14//4
f 13//4 14//4 15//4
f 15//4 14//4 16//4
f 15//4 16//4 17//4
f 17//4 16//4 18//4
f 17//4 18//4 19//4
f 19//4 18//4 20//4
f 19//4 20//4 21//4
f 21//4 20//4 22//4
f 21//4 22//4 23//4
f 23//4 22//4 24//4
f 23//4 24//4 25//4
f 25//4 24//4 26//4
f 25//4 26//4 27//4
f 27//4 26//4 28//4
f 27//4 28//4 29//4
f 29//4 28//4 30//4
f 4//3 31//5 2//2
f 31//5 4//3 32//6
f 32//6 4//3 33//7
f 34//8 35//8 36//8
f 35//8 34//8 37//8
f 35//8 37//8 38//8
f 38//8 37//8 39//8
f 38//8 39//8 40//8
f 40//8 39//8 41//8
f 40//8 41//8 42//8
f 42//8 41//8 43//8
f 42//8 43//8 44//8
f 44//8 43//8 45//8
f 44//8 45//8 46//8
f 46//8 45//8 47//8
f 46//8 47//8 48//8
f 48//8 47//8 49//8
f 48//8 49//8 50//8
f 50//8 49//8 51//8
f 50//8 51//8 52//8
f 52//8 51//8 53//8
f 52//8 53//8 54//8
f 54//8 53//8 55//8
f 54//8 55//8 56//8
f 56//8 55//8 57//8
f 58//9 1//1 3//1
f 1//1 58//9 59//10
f 1//1 59//10 5//1
f 5//1 59//10 6//1
f 60//11 61//12 62//13
f 61//12 60//11 63//14
f 64//15 61//12 63//14
f 61//12 64//15 65//16
f 66//17 65//16 64//15
f 65//16 66//17 67//18
f 68//19 67//18 66//17
f 67//18 68//19 69//19
f 67//18 69//19 70//19
f 71//20 68//19 72//21
f 68//19 71//20 69//19
f 69//19 71//20 70//19
f 73//22 72//21 74//23
f 72//21 73//22 71//20
f 75//24 74//23 76//25
f 74//23 75//24 73//22
f 75//24 77//26 78//27
f 77//26 75//24 76//25
f 78//27 79//28 80//29
f 79//28 78//27 77//26
f 80//29 81//30 82//31
f 81//30 80//29 79//28
f 82//31 83//32 84//33
f 83//32 82//31 81//30
f 84//33 85//34 86//35
f 85//34 84//33 83//32
f 86//35 87//36 88//37
f 87//36 86//35 85//34
f 32//6 87//36 31//5
f 87//36 32//6 88//37
f 88//37 32//6 33//7
f 89//38 59//10 58//9
f 59//10 89//38 90//39
f 59//10 90//39 91//40
f 92//41 90//39 89//38
f 90//39 92//41 93//42
f 90//39 93//42 91//40
f 92//41 94//43 93//42
f 94//43 92//41 95//44
f 95//44 96//45 94//43
f 96//45 95//44 97//46
f 97//46 98//47 96//45
f 98//47 97//46 99//48
f 99//48 100//49 98//47
f 100//49 99//48 101//50
f 101//50 62//13 100//49
f 62//13 101//50 60//11
