# SSTK version 0.8.0
# 75
mtllib original-75.mtl
o group_36/ID479#ID479
v -0.392513 -0.616959 -0.489348
v -0.376943 -0.616959 -0.489348
v -0.384728 -0.616959 -0.490373
v -0.399767 -0.616959 -0.486343
v -0.369689 -0.616959 -0.486343
v -0.405997 -0.616959 -0.481563
v -0.363460 -0.616959 -0.481563
v -0.410777 -0.616959 -0.475334
v -0.358680 -0.616959 -0.475334
v -0.413781 -0.616959 -0.468080
v -0.355675 -0.616959 -0.468080
v -0.414806 -0.616959 -0.460295
v -0.354650 -0.616959 -0.460295
v -0.413781 -0.616959 -0.452510
v -0.355675 -0.616959 -0.452510
v -0.410777 -0.616959 -0.445256
v -0.358680 -0.616959 -0.445256
v -0.405997 -0.616959 -0.439026
v -0.363460 -0.616959 -0.439026
v -0.399767 -0.616959 -0.434247
v -0.369689 -0.616959 -0.434247
v -0.392513 -0.616959 -0.431242
v -0.376943 -0.616959 -0.431242
v -0.384728 -0.616959 -0.430217
v -0.384728 -0.616959 -0.430217
v -0.392513 -0.616959 -0.431242
v -0.376943 -0.616959 -0.431242
v -0.369689 -0.616959 -0.434247
v -0.399767 -0.616959 -0.434247
v -0.363460 -0.616959 -0.439026
v -0.405997 -0.616959 -0.439026
v -0.358680 -0.616959 -0.445256
v -0.410777 -0.616959 -0.445256
v -0.355675 -0.616959 -0.452510
v -0.413781 -0.616959 -0.452510
v -0.354650 -0.616959 -0.460295
v -0.414806 -0.616959 -0.460295
v -0.355675 -0.616959 -0.468080
v -0.413781 -0.616959 -0.468080
v -0.358680 -0.616959 -0.475334
v -0.410777 -0.616959 -0.475334
v -0.363460 -0.616959 -0.481563
v -0.405997 -0.616959 -0.481563
v -0.369689 -0.616959 -0.486343
v -0.399767 -0.616959 -0.486343
v -0.376943 -0.616959 -0.489348
v -0.392513 -0.616959 -0.489348
v -0.384728 -0.616959 -0.490373
v -0.363460 -0.616959 -0.481563
v -0.358680 -0.631998 -0.475334
v -0.363460 -0.631998 -0.481563
v -0.358680 -0.616959 -0.475334
v -0.358680 -0.616959 -0.475334
v -0.363460 -0.616959 -0.481563
v -0.358680 -0.631998 -0.475334
v -0.363460 -0.631998 -0.481563
v -0.369689 -0.631998 -0.486343
v -0.369689 -0.616959 -0.486343
v -0.369689 -0.631998 -0.486343
v -0.369689 -0.616959 -0.486343
v -0.376943 -0.631998 -0.489348
v -0.376943 -0.616959 -0.489348
v -0.376943 -0.631998 -0.489348
v -0.376943 -0.616959 -0.489348
v -0.384728 -0.631998 -0.490373
v -0.384728 -0.616959 -0.490373
v -0.384728 -0.631998 -0.490373
v -0.384728 -0.616959 -0.490373
v -0.392513 -0.631998 -0.489348
v -0.392513 -0.616959 -0.489348
v -0.392513 -0.631998 -0.489348
v -0.392513 -0.616959 -0.489348
v -0.399767 -0.631998 -0.486343
v -0.399767 -0.616959 -0.486343
v -0.399767 -0.631998 -0.486343
v -0.399767 -0.616959 -0.486343
v -0.405997 -0.631998 -0.481563
v -0.405997 -0.616959 -0.481563
v -0.405997 -0.631998 -0.481563
v -0.405997 -0.616959 -0.481563
v -0.410777 -0.616959 -0.475334
v -0.410777 -0.631998 -0.475334
v -0.410777 -0.616959 -0.475334
v -0.410777 -0.631998 -0.475334
v -0.413781 -0.616959 -0.468080
v -0.413781 -0.631998 -0.468080
v -0.413781 -0.616959 -0.468080
v -0.413781 -0.631998 -0.468080
v -0.414806 -0.616959 -0.460295
v -0.414806 -0.631998 -0.460295
v -0.414806 -0.616959 -0.460295
v -0.414806 -0.631998 -0.460295
v -0.413781 -0.616959 -0.452510
v -0.413781 -0.631998 -0.452510
v -0.413781 -0.616959 -0.452510
v -0.413781 -0.631998 -0.452510
v -0.410777 -0.616959 -0.445256
v -0.410777 -0.631998 -0.445256
v -0.410777 -0.616959 -0.445256
v -0.410777 -0.631998 -0.445256
v -0.405997 -0.616959 -0.439026
v -0.405997 -0.631998 -0.439026
v -0.405997 -0.616959 -0.439026
v -0.405997 -0.631998 -0.439026
v -0.399767 -0.631998 -0.434247
v -0.399767 -0.616959 -0.434247
v -0.399767 -0.616959 -0.434247
v -0.399767 -0.631998 -0.434247
v -0.392513 -0.631998 -0.431242
v -0.392513 -0.616959 -0.431242
v -0.392513 -0.616959 -0.431242
v -0.392513 -0.631998 -0.431242
v -0.384728 -0.631998 -0.430217
v -0.384728 -0.616959 -0.430217
v -0.384728 -0.616959 -0.430217
v -0.384728 -0.631998 -0.430217
v -0.376943 -0.631998 -0.431242
v -0.376943 -0.616959 -0.431242
v -0.376943 -0.616959 -0.431242
v -0.376943 -0.631998 -0.431242
v -0.369689 -0.631998 -0.434247
v -0.369689 -0.616959 -0.434247
v -0.369689 -0.616959 -0.434247
v -0.369689 -0.631998 -0.434247
v -0.363460 -0.631998 -0.439026
v -0.363460 -0.616959 -0.439026
v -0.363460 -0.616959 -0.439026
v -0.363460 -0.631998 -0.439026
v -0.358680 -0.616959 -0.445256
v -0.358680 -0.631998 -0.445256
v -0.358680 -0.616959 -0.445256
v -0.358680 -0.631998 -0.445256
v -0.355675 -0.616959 -0.452510
v -0.355675 -0.631998 -0.452510
v -0.355675 -0.616959 -0.452510
v -0.355675 -0.631998 -0.452510
v -0.354650 -0.616959 -0.460295
v -0.354650 -0.631998 -0.460295
v -0.354650 -0.616959 -0.460295
v -0.354650 -0.631998 -0.460295
v -0.355675 -0.616959 -0.468080
v -0.355675 -0.631998 -0.468080
v -0.355675 -0.616959 -0.468080
v -0.355675 -0.631998 -0.468080
v -0.376943 -0.631998 -0.489348
v -0.392513 -0.631998 -0.489348
v -0.384728 -0.631998 -0.490373
v -0.369689 -0.631998 -0.486343
v -0.399767 -0.631998 -0.486343
v -0.363460 -0.631998 -0.481563
v -0.405997 -0.631998 -0.481563
v -0.358680 -0.631998 -0.475334
v -0.410777 -0.631998 -0.475334
v -0.355675 -0.631998 -0.468080
v -0.413781 -0.631998 -0.468080
v -0.414806 -0.631998 -0.460295
v -0.354650 -0.631998 -0.460295
v -0.355675 -0.631998 -0.452510
v -0.413781 -0.631998 -0.452510
v -0.358680 -0.631998 -0.445256
v -0.410777 -0.631998 -0.445256
v -0.363460 -0.631998 -0.439026
v -0.405997 -0.631998 -0.439026
v -0.369689 -0.631998 -0.434247
v -0.399767 -0.631998 -0.434247
v -0.376943 -0.631998 -0.431242
v -0.392513 -0.631998 -0.431242
v -0.384728 -0.631998 -0.430217
v -0.384728 -0.631998 -0.430217
v -0.376943 -0.631998 -0.431242
v -0.392513 -0.631998 -0.431242
v -0.399767 -0.631998 -0.434247
v -0.369689 -0.631998 -0.434247
v -0.405997 -0.631998 -0.439026
v -0.363460 -0.631998 -0.439026
v -0.410777 -0.631998 -0.445256
v -0.358680 -0.631998 -0.445256
v -0.413781 -0.631998 -0.452510
v -0.355675 -0.631998 -0.452510
v -0.414806 -0.631998 -0.460295
v -0.354650 -0.631998 -0.460295
v -0.355675 -0.631998 -0.468080
v -0.413781 -0.631998 -0.468080
v -0.410777 -0.631998 -0.475334
v -0.358680 -0.631998 -0.475334
v -0.405997 -0.631998 -0.481563
v -0.363460 -0.631998 -0.481563
v -0.399767 -0.631998 -0.486343
v -0.369689 -0.631998 -0.486343
v -0.392513 -0.631998 -0.489348
v -0.376943 -0.631998 -0.489348
v -0.384728 -0.631998 -0.490373
vt 0.0004471676 0.009726784
vt 0.0004471676 0.01651993
vt 0 0.01312336
vt 0.001758197 0.00656168
vt 0.001758197 0.01968504
vt 0.003843743 0.003843743
vt 0.003843743 0.02240298
vt 0.00656168 0.001758197
vt 0.00656168 0.02448852
vt 0.009726784 0.0004471676
vt 0.009726784 0.02579955
vt 0.01312336 0
vt 0.01312336 0.02624672
vt 0.01651993 0.0004471676
vt 0.01651993 0.02579955
vt 0.01968504 0.001758197
vt 0.01968504 0.02448852
vt 0.02240298 0.003843743
vt 0.02240298 0.02240298
vt 0.02448852 0.00656168
vt 0.02448852 0.01968504
vt 0.02579955 0.009726784
vt 0.02579955 0.01651993
vt 0.02624672 0.01312336
vt -0.01668751 0.03376322
vt -0.0201134 0
vt -0.01668751 0
vt -0.0201134 0.03376322
vt -0.01885944 0.03376322
vt -0.01543355 0
vt -0.01543355 0.03376322
vt -0.01885944 0
vt -0.01643697 0.03376322
vt -0.01301109 0
vt -0.01301109 0.03376322
vt -0.01643697 0
vt -0.009585203 0
vt -0.009585203 0.03376322
vt -0.008815253 0.03376322
vt -0.005389369 0
vt -0.005389369 0.03376322
vt -0.008815253 0
vt -0.004135408 0.03376322
vt -0.0007095239 0
vt -0.0007095239 0.03376322
vt -0.004135408 0
vt 0.004135408 0.03376322
vt 0.0007095239 0
vt 0.004135408 0
vt 0.0007095239 0.03376322
vt 0.008815253 0.03376322
vt 0.005389369 0
vt 0.008815253 0
vt 0.005389369 0.03376322
vt 0.01301109 0.03376322
vt 0.009585203 0
vt 0.01301109 0
vt 0.009585203 0.03376322
vt 0.01643697 0.03376322
vt 0.01643697 0
vt 0.01885944 0.03376322
vt 0.01543355 0
vt 0.01885944 0
vt 0.01543355 0.03376322
vt 0.0201134 0.03376322
vt 0.01668751 0
vt 0.0201134 0
vt 0.01668751 0.03376322
vt -0.0004471676 0.01651993
vt -0.0004471676 0.009726784
vt -0.001758197 0.01968504
vt -0.001758197 0.00656168
vt -0.003843743 0.02240298
vt -0.003843743 0.003843743
vt -0.00656168 0.02448852
vt -0.00656168 0.001758197
vt -0.009726784 0.02579955
vt -0.009726784 0.0004471676
vt -0.01312336 0
vt -0.01312336 0.02624672
vt -0.01651993 0.02579955
vt -0.01651993 0.0004471676
vt -0.01968504 0.02448852
vt -0.01968504 0.001758197
vt -0.02240298 0.02240298
vt -0.02240298 0.003843743
vt -0.02448852 0.01968504
vt -0.02448852 0.00656168
vt -0.02579955 0.01651993
vt -0.02579955 0.009726784
vt -0.02624672 0.01312336
vn 0 1 0
vn 0 -1 0
vn 0.7071067811865495 0 -0.7071067811865457
vn 0.8660254028383303 0 -0.5000000016387077
vn -0.8660254028383303 0 0.5000000016387077
vn -0.7071067811865495 0 0.7071067811865457
vn 0.5000000016387124 0 -0.8660254028383276
vn -0.5000000016387124 0 0.8660254028383276
vn 0.25881900959356424 0 -0.9659258358036639
vn -0.25881900959356424 0 0.9659258358036639
vn 0 0 -1
vn 0 0 1
vn -0.258819009593559 0 -0.9659258358036652
vn 0.258819009593559 0 0.9659258358036652
vn -0.5000000016387077 0 -0.8660254028383303
vn 0.5000000016387077 0 0.8660254028383303
vn -0.7071067811865457 0 -0.7071067811865495
vn 0.7071067811865457 0 0.7071067811865495
vn -0.8660254028383276 0 -0.5000000016387124
vn 0.8660254028383276 0 0.5000000016387124
vn -0.9659258358036639 0 -0.25881900959356424
vn 0.9659258358036639 0 0.25881900959356424
vn -1 0 0
vn 1 0 0
vn -0.9659258358036652 0 0.258819009593559
vn 0.9659258358036652 0 -0.258819009593559
usemtl material_0_0
f 1/1/1 2/2/1 3/3/1
f 2/2/1 1/1/1 4/4/1
f 2/2/1 4/4/1 5/5/1
f 5/5/1 4/4/1 6/6/1
f 5/5/1 6/6/1 7/7/1
f 7/7/1 6/6/1 8/8/1
f 7/7/1 8/8/1 9/9/1
f 9/9/1 8/8/1 10/10/1
f 9/9/1 10/10/1 11/11/1
f 11/11/1 10/10/1 12/12/1
f 11/11/1 12/12/1 13/13/1
f 13/13/1 12/12/1 14/14/1
f 13/13/1 14/14/1 15/15/1
f 15/15/1 14/14/1 16/16/1
f 15/15/1 16/16/1 17/17/1
f 17/17/1 16/16/1 18/18/1
f 17/17/1 18/18/1 19/19/1
f 19/19/1 18/18/1 20/20/1
f 19/19/1 20/20/1 21/21/1
f 21/21/1 20/20/1 22/22/1
f 21/21/1 22/22/1 23/23/1
f 23/23/1 22/22/1 24/24/1
f 25/24/2 26/22/2 27/23/2
f 27/23/2 26/22/2 28/21/2
f 26/22/2 29/20/2 28/21/2
f 28/21/2 29/20/2 30/19/2
f 29/20/2 31/18/2 30/19/2
f 30/19/2 31/18/2 32/17/2
f 31/18/2 33/16/2 32/17/2
f 32/17/2 33/16/2 34/15/2
f 33/16/2 35/14/2 34/15/2
f 34/15/2 35/14/2 36/13/2
f 35/14/2 37/12/2 36/13/2
f 36/13/2 37/12/2 38/11/2
f 37/12/2 39/10/2 38/11/2
f 38/11/2 39/10/2 40/9/2
f 39/10/2 41/8/2 40/9/2
f 40/9/2 41/8/2 42/7/2
f 41/8/2 43/6/2 42/7/2
f 42/7/2 43/6/2 44/5/2
f 43/6/2 45/4/2 44/5/2
f 44/5/2 45/4/2 46/2/2
f 45/4/2 47/1/2 46/2/2
f 48/3/2 46/2/2 47/1/2
f 49/25/3 50/26/4 51/27/3
f 50/26/4 49/25/3 52/28/4
f 53/28/5 54/25/6 55/26/5
f 56/27/6 55/26/5 54/25/6
f 49/28/3 57/27/7 58/25/7
f 57/27/7 49/28/3 51/26/3
f 56/26/6 54/28/6 59/27/8
f 60/25/8 59/27/8 54/28/6
f 58/29/7 61/30/9 62/31/9
f 61/30/9 58/29/7 57/32/7
f 59/32/8 60/29/8 63/30/10
f 64/31/10 63/30/10 60/29/8
f 62/33/9 65/34/11 66/35/11
f 65/34/11 62/33/9 61/36/9
f 63/36/10 64/33/10 67/34/12
f 68/35/12 67/34/12 64/33/10
f 66/35/11 69/37/13 70/38/13
f 69/37/13 66/35/11 65/34/11
f 67/34/12 68/35/12 71/37/14
f 72/38/14 71/37/14 68/35/12
f 70/39/13 73/40/15 74/41/15
f 73/40/15 70/39/13 69/42/13
f 71/42/14 72/39/14 75/40/16
f 76/41/16 75/40/16 72/39/14
f 74/43/15 77/44/17 78/45/17
f 77/44/17 74/43/15 73/46/15
f 75/46/16 76/43/16 79/44/18
f 80/45/18 79/44/18 76/43/16
f 81/47/19 77/48/17 82/49/19
f 77/48/17 81/47/19 78/50/17
f 80/50/18 83/47/20 79/48/18
f 84/49/20 79/48/18 83/47/20
f 85/51/21 82/52/19 86/53/21
f 82/52/19 85/51/21 81/54/19
f 83/54/20 87/51/22 84/52/20
f 88/53/22 84/52/20 87/51/22
f 89/55/23 86/56/21 90/57/23
f 86/56/21 89/55/23 85/58/21
f 87/58/22 91/55/24 88/56/22
f 92/57/24 88/56/22 91/55/24
f 93/59/25 90/57/23 94/60/25
f 90/57/23 93/59/25 89/55/23
f 91/55/24 95/59/26 92/57/24
f 96/60/26 92/57/24 95/59/26
f 97/61/5 94/62/25 98/63/5
f 94/62/25 97/61/5 93/64/25
f 95/64/26 99/61/4 96/62/26
f 100/63/4 96/62/26 99/61/4
f 101/65/6 98/66/5 102/67/6
f 98/66/5 101/65/6 97/68/5
f 99/68/4 103/65/3 100/66/4
f 104/67/3 100/66/4 103/65/3
f 105/67/8 101/68/6 102/66/6
f 101/68/6 105/67/8 106/65/8
f 107/65/7 108/67/7 103/68/3
f 104/66/3 103/68/3 108/67/7
f 109/63/10 106/64/8 105/62/8
f 106/64/8 109/63/10 110/61/10
f 111/61/9 112/63/9 107/64/7
f 108/62/7 107/64/7 112/63/9
f 113/60/12 110/55/10 109/57/10
f 110/55/10 113/60/12 114/59/12
f 115/59/11 116/60/11 111/55/9
f 112/57/9 111/55/9 116/60/11
f 117/57/14 114/58/12 113/56/12
f 114/58/12 117/57/14 118/55/14
f 119/55/13 120/57/13 115/58/11
f 116/56/11 115/58/11 120/57/13
f 121/53/16 118/54/14 117/52/14
f 118/54/14 121/53/16 122/51/16
f 123/51/15 124/53/15 119/54/13
f 120/52/13 119/54/13 124/53/15
f 125/49/18 122/50/16 121/48/16
f 122/50/16 125/49/18 126/47/18
f 127/47/17 128/49/17 123/50/15
f 124/48/15 123/50/15 128/49/17
f 129/45/20 125/46/18 130/44/20
f 125/46/18 129/45/20 126/43/18
f 127/43/17 131/45/19 128/46/17
f 132/44/19 128/46/17 131/45/19
f 133/41/22 130/42/20 134/40/22
f 130/42/20 133/41/22 129/39/20
f 131/39/19 135/41/21 132/42/19
f 136/40/21 132/42/19 135/41/21
f 137/38/24 134/34/22 138/37/24
f 134/34/22 137/38/24 133/35/22
f 135/35/21 139/38/23 136/34/21
f 140/37/23 136/34/21 139/38/23
f 141/35/26 138/36/24 142/34/26
f 138/36/24 141/35/26 137/33/24
f 139/33/23 143/35/25 140/36/23
f 144/34/25 140/36/23 143/35/25
f 52/31/4 142/32/26 50/30/4
f 142/32/26 52/31/4 141/29/26
f 143/29/25 53/31/5 144/32/25
f 55/30/5 144/32/25 53/31/5
f 145/69/2 146/70/2 147/3/2
f 146/70/2 145/69/2 148/71/2
f 146/70/2 148/71/2 149/72/2
f 149/72/2 148/71/2 150/73/2
f 149/72/2 150/73/2 151/74/2
f 151/74/2 150/73/2 152/75/2
f 151/74/2 152/75/2 153/76/2
f 153/76/2 152/75/2 154/77/2
f 153/76/2 154/77/2 155/78/2
f 155/78/2 154/77/2 156/79/2
f 156/79/2 154/77/2 157/80/2
f 156/79/2 157/80/2 158/81/2
f 156/79/2 158/81/2 159/82/2
f 159/82/2 158/81/2 160/83/2
f 159/82/2 160/83/2 161/84/2
f 161/84/2 160/83/2 162/85/2
f 161/84/2 162/85/2 163/86/2
f 163/86/2 162/85/2 164/87/2
f 163/86/2 164/87/2 165/88/2
f 165/88/2 164/87/2 166/89/2
f 165/88/2 166/89/2 167/90/2
f 167/90/2 166/89/2 168/91/2
f 169/91/1 170/89/1 171/90/1
f 171/90/1 170/89/1 172/88/1
f 170/89/1 173/87/1 172/88/1
f 172/88/1 173/87/1 174/86/1
f 173/87/1 175/85/1 174/86/1
f 174/86/1 175/85/1 176/84/1
f 175/85/1 177/83/1 176/84/1
f 176/84/1 177/83/1 178/82/1
f 177/83/1 179/81/1 178/82/1
f 178/82/1 179/81/1 180/79/1
f 179/81/1 181/80/1 180/79/1
f 181/80/1 182/77/1 180/79/1
f 180/79/1 182/77/1 183/78/1
f 183/78/1 182/77/1 184/76/1
f 182/77/1 185/75/1 184/76/1
f 184/76/1 185/75/1 186/74/1
f 185/75/1 187/73/1 186/74/1
f 186/74/1 187/73/1 188/72/1
f 187/73/1 189/71/1 188/72/1
f 188/72/1 189/71/1 190/70/1
f 189/71/1 191/69/1 190/70/1
f 192/3/1 190/70/1 191/69/1
