# SSTK version 0.8.0
# 47
mtllib original-47.mtl
o #ID339
v -0.361630 0.445548 0.319137
v -0.367639 0.460057 0.326656
v -0.361630 0.445548 0.326656
v -0.367639 0.460057 0.319137
v -0.367639 0.460057 0.319137
v -0.361630 0.445548 0.319137
v -0.367639 0.460057 0.326656
v -0.361630 0.445548 0.326656
v -0.352070 0.433089 0.319137
v -0.352070 0.433089 0.326656
v -0.352070 0.433089 0.319137
v -0.352070 0.433089 0.326656
v -0.293964 0.417520 0.319137
v -0.325103 0.417520 0.319137
v -0.309533 0.415470 0.319137
v -0.279455 0.423529 0.319137
v -0.339611 0.423529 0.319137
v -0.266996 0.433089 0.319137
v -0.352070 0.433089 0.319137
v -0.257436 0.445548 0.319137
v -0.361630 0.445548 0.319137
v -0.251427 0.460057 0.319137
v -0.367639 0.460057 0.319137
v -0.249377 0.475626 0.319137
v -0.369689 0.475626 0.319137
v -0.251427 0.491196 0.319137
v -0.367639 0.491196 0.319137
v -0.257436 0.505704 0.319137
v -0.361630 0.505704 0.319137
v -0.266996 0.518163 0.319137
v -0.352070 0.518163 0.319137
v -0.279455 0.527723 0.319137
v -0.339611 0.527723 0.319137
v -0.293964 0.533732 0.319137
v -0.325103 0.533732 0.319137
v -0.309533 0.535782 0.319137
v -0.309533 0.535782 0.319137
v -0.293964 0.533732 0.319137
v -0.325103 0.533732 0.319137
v -0.339611 0.527723 0.319137
v -0.279455 0.527723 0.319137
v -0.352070 0.518163 0.319137
v -0.266996 0.518163 0.319137
v -0.361630 0.505704 0.319137
v -0.257436 0.505704 0.319137
v -0.367639 0.491196 0.319137
v -0.251427 0.491196 0.319137
v -0.369689 0.475626 0.319137
v -0.249377 0.475626 0.319137
v -0.367639 0.460057 0.319137
v -0.251427 0.460057 0.319137
v -0.361630 0.445548 0.319137
v -0.257436 0.445548 0.319137
v -0.352070 0.433089 0.319137
v -0.266996 0.433089 0.319137
v -0.339611 0.423529 0.319137
v -0.279455 0.423529 0.319137
v -0.325103 0.417520 0.319137
v -0.293964 0.417520 0.319137
v -0.309533 0.415470 0.319137
v -0.369689 0.475626 0.326656
v -0.369689 0.475626 0.319137
v -0.369689 0.475626 0.319137
v -0.369689 0.475626 0.326656
v -0.339611 0.423529 0.326656
v -0.339611 0.423529 0.319137
v -0.339611 0.423529 0.319137
v -0.339611 0.423529 0.326656
v -0.293964 0.533732 0.319137
v -0.309533 0.535782 0.326656
v -0.309533 0.535782 0.319137
v -0.293964 0.533732 0.326656
v -0.293964 0.533732 0.326656
v -0.293964 0.533732 0.319137
v -0.309533 0.535782 0.326656
v -0.309533 0.535782 0.319137
v -0.325103 0.533732 0.326656
v -0.325103 0.533732 0.319137
v -0.325103 0.533732 0.326656
v -0.325103 0.533732 0.319137
v -0.339611 0.527723 0.326656
v -0.339611 0.527723 0.319137
v -0.339611 0.527723 0.326656
v -0.339611 0.527723 0.319137
v -0.352070 0.518163 0.326656
v -0.352070 0.518163 0.319137
v -0.352070 0.518163 0.326656
v -0.352070 0.518163 0.319137
v -0.361630 0.505704 0.319137
v -0.361630 0.505704 0.326656
v -0.361630 0.505704 0.319137
v -0.361630 0.505704 0.326656
v -0.367639 0.491196 0.319137
v -0.367639 0.491196 0.326656
v -0.367639 0.491196 0.319137
v -0.367639 0.491196 0.326656
v -0.325103 0.417520 0.326656
v -0.325103 0.417520 0.319137
v -0.325103 0.417520 0.319137
v -0.325103 0.417520 0.326656
v -0.309533 0.415470 0.326656
v -0.309533 0.415470 0.319137
v -0.309533 0.415470 0.319137
v -0.309533 0.415470 0.326656
v -0.293964 0.417520 0.326656
v -0.293964 0.417520 0.319137
v -0.293964 0.417520 0.319137
v -0.293964 0.417520 0.326656
v -0.279455 0.423529 0.326656
v -0.279455 0.423529 0.319137
v -0.279455 0.423529 0.319137
v -0.279455 0.423529 0.326656
v -0.266996 0.433089 0.326656
v -0.266996 0.433089 0.319137
v -0.266996 0.433089 0.319137
v -0.266996 0.433089 0.326656
v -0.257436 0.445548 0.319137
v -0.257436 0.445548 0.326656
v -0.257436 0.445548 0.319137
v -0.257436 0.445548 0.326656
v -0.251427 0.460057 0.319137
v -0.251427 0.460057 0.326656
v -0.251427 0.460057 0.319137
v -0.251427 0.460057 0.326656
v -0.249377 0.475626 0.319137
v -0.249377 0.475626 0.326656
v -0.249377 0.475626 0.319137
v -0.249377 0.475626 0.326656
v -0.251427 0.491196 0.319137
v -0.251427 0.491196 0.326656
v -0.251427 0.491196 0.319137
v -0.251427 0.491196 0.326656
v -0.257436 0.505704 0.319137
v -0.257436 0.505704 0.326656
v -0.257436 0.505704 0.319137
v -0.257436 0.505704 0.326656
v -0.266996 0.518163 0.319137
v -0.266996 0.518163 0.326656
v -0.266996 0.518163 0.319137
v -0.266996 0.518163 0.326656
v -0.279455 0.527723 0.326656
v -0.279455 0.527723 0.319137
v -0.279455 0.527723 0.326656
v -0.279455 0.527723 0.319137
vt 0.005 0.01979636
vt 0 0.03023845
vt 0 0.01979636
vt 0.005 0.03023845
vt 0.005 -0.01175249
vt 0 -0.001310391
vt 0 -0.01175249
vt 0.005 -0.001310391
vt 0.1103528 0.02986297
vt 0.08964724 0.02986297
vt 0.1 0.0285
vt 0.12 0.03385898
vt 0.08 0.03385898
vt 0.1282843 0.04021573
vt 0.07171573 0.04021573
vt 0.134641 0.0485
vt 0.06535898 0.0485
vt 0.138637 0.05814724
vt 0.06136297 0.05814724
vt 0.14 0.0685
vt 0.06 0.0685
vt 0.138637 0.07885276
vt 0.06136297 0.07885276
vt 0.134641 0.0885
vt 0.06535898 0.0885
vt 0.1282843 0.09678427
vt 0.07171573 0.09678427
vt 0.12 0.103141
vt 0.08 0.103141
vt 0.1103528 0.107137
vt 0.08964724 0.107137
vt 0.1 0.1085
vt 0.005 0.04964031
vt 0 0.0600824
vt 0 0.04964031
vt 0.005 0.0600824
vt 0 -0.04285622
vt 0.005 -0.03241413
vt 0 -0.03241413
vt 0.005 -0.04285622
vt -0.005 -0.09542449
vt 0 -0.08498239
vt -0.005 -0.08498239
vt 0 -0.09542449
vt 0.005 0.1133066
vt 0 0.1028645
vt 0.005 0.1028645
vt 0 0.1133066
vt 0.005 0.1238228
vt 0 0.1133807
vt 0.005 0.1133807
vt 0 0.1238228
vt 0.005 0.1262565
vt 0 0.1158144
vt 0.005 0.1158144
vt 0 0.1262565
vt 0.005 0.1099998
vt 0 0.1204419
vt 0 0.1099998
vt 0.005 0.1204419
vt 0.005 0.09633304
vt 0 0.1067751
vt 0 0.09633304
vt 0.005 0.1067751
vt 0.005 0.07574554
vt 0 0.08618764
vt 0 0.07574554
vt 0.005 0.08618764
vt 0 -0.07139519
vt 0.005 -0.06095309
vt 0 -0.06095309
vt 0.005 -0.07139519
vt 0.005 -0.08498239
vt 0.005 -0.09542449
vt -0.005 0.1028645
vt -0.005 0.1133066
vt -0.005 0.1133807
vt -0.005 0.1238228
vt -0.005 0.1158144
vt -0.005 0.1262565
vt -0.005 0.1204419
vt -0.005 0.1099998
vt -0.005 0.1067751
vt -0.005 0.09633304
vt -0.005 0.08618764
vt -0.005 0.07574554
vt -0.005 0.0600824
vt -0.005 0.04964031
vt -0.005 0.03023845
vt -0.005 0.01979636
vt -0.005 -0.001310391
vt -0.005 -0.01175249
vt -0.005 -0.04285622
vt -0.005 -0.03241413
vt -0.005 -0.07139519
vt -0.005 -0.06095309
vn 0.866025402838329 0.5000000016387101 0
vn 0.9659258358036645 0.25881900959356163 0
vn -0.9659258358036645 -0.25881900959356163 0
vn -0.866025402838329 -0.5000000016387101 0
vn 0.7071067811865476 0.7071067811865476 0
vn -0.7071067811865476 -0.7071067811865476 0
vn 0 0 1
vn 0 0 -1
vn 1 0 0
vn -1 0 0
vn 0.5000000016387101 0.866025402838329 0
vn -0.5000000016387101 -0.866025402838329 0
vn -0.25881900959356163 -0.9659258358036645 0
vn 0 -1 0
vn 0.25881900959356163 0.9659258358036645 0
vn 0 1 0
vn 0.25881900959356163 -0.9659258358036645 0
vn -0.25881900959356163 0.9659258358036645 0
vn 0.5000000016387101 -0.866025402838329 0
vn -0.5000000016387101 0.866025402838329 0
vn 0.7071067811865476 -0.7071067811865476 0
vn -0.7071067811865476 0.7071067811865476 0
vn 0.866025402838329 -0.5000000016387101 0
vn -0.866025402838329 0.5000000016387101 0
vn 0.9659258358036645 -0.25881900959356163 0
vn -0.9659258358036645 0.25881900959356163 0
usemtl material_0_0
f 1/1/1 2/2/2 3/3/1
f 2/2/2 1/1/1 4/4/2
f 5/4/3 6/1/4 7/2/3
f 8/3/4 7/2/3 6/1/4
f 9/5/5 3/6/1 10/7/5
f 3/6/1 9/5/5 1/8/1
f 6/8/4 11/5/6 8/6/4
f 12/7/6 8/6/4 11/5/6
f 13/9/7 14/10/7 15/11/7
f 14/10/7 13/9/7 16/12/7
f 14/10/7 16/12/7 17/13/7
f 17/13/7 16/12/7 18/14/7
f 17/13/7 18/14/7 19/15/7
f 19/15/7 18/14/7 20/16/7
f 19/15/7 20/16/7 21/17/7
f 21/17/7 20/16/7 22/18/7
f 21/17/7 22/18/7 23/19/7
f 23/19/7 22/18/7 24/20/7
f 23/19/7 24/20/7 25/21/7
f 25/21/7 24/20/7 26/22/7
f 25/21/7 26/22/7 27/23/7
f 27/23/7 26/22/7 28/24/7
f 27/23/7 28/24/7 29/25/7
f 29/25/7 28/24/7 30/26/7
f 29/25/7 30/26/7 31/27/7
f 31/27/7 30/26/7 32/28/7
f 31/27/7 32/28/7 33/29/7
f 33/29/7 32/28/7 34/30/7
f 33/29/7 34/30/7 35/31/7
f 35/31/7 34/30/7 36/32/7
f 37/32/8 38/30/8 39/31/8
f 39/31/8 38/30/8 40/29/8
f 38/30/8 41/28/8 40/29/8
f 40/29/8 41/28/8 42/27/8
f 41/28/8 43/26/8 42/27/8
f 42/27/8 43/26/8 44/25/8
f 43/26/8 45/24/8 44/25/8
f 44/25/8 45/24/8 46/23/8
f 45/24/8 47/22/8 46/23/8
f 46/23/8 47/22/8 48/21/8
f 47/22/8 49/20/8 48/21/8
f 48/21/8 49/20/8 50/19/8
f 49/20/8 51/18/8 50/19/8
f 50/19/8 51/18/8 52/17/8
f 51/18/8 53/16/8 52/17/8
f 52/17/8 53/16/8 54/15/8
f 53/16/8 55/14/8 54/15/8
f 54/15/8 55/14/8 56/13/8
f 55/14/8 57/12/8 56/13/8
f 56/13/8 57/12/8 58/10/8
f 57/12/8 59/9/8 58/10/8
f 60/11/8 58/10/8 59/9/8
f 4/33/2 61/34/9 2/35/2
f 61/34/9 4/33/2 62/36/9
f 63/36/10 5/33/3 64/34/10
f 7/35/3 64/34/10 5/33/3
f 65/37/11 9/38/5 10/39/5
f 9/38/5 65/37/11 66/40/11
f 67/40/12 68/37/12 11/38/6
f 12/39/6 11/38/6 68/37/12
f 69/41/13 70/42/14 71/43/14
f 70/42/14 69/41/13 72/44/13
f 73/44/15 74/41/15 75/42/16
f 76/43/16 75/42/16 74/41/15
f 71/45/14 77/46/17 78/47/17
f 77/46/17 71/45/14 70/48/14
f 75/48/16 76/45/16 79/46/18
f 80/47/18 79/46/18 76/45/16
f 78/49/17 81/50/19 82/51/19
f 81/50/19 78/49/17 77/52/17
f 79/52/18 80/49/18 83/50/20
f 84/51/20 83/50/20 80/49/18
f 82/53/19 85/54/21 86/55/21
f 85/54/21 82/53/19 81/56/19
f 83/56/20 84/53/20 87/54/22
f 88/55/22 87/54/22 84/53/20
f 89/57/23 85/58/21 90/59/23
f 85/58/21 89/57/23 86/60/21
f 88/60/22 91/57/24 87/58/22
f 92/59/24 87/58/22 91/57/24
f 93/61/25 90/62/23 94/63/25
f 90/62/23 93/61/25 89/64/23
f 91/64/24 95/61/26 92/62/24
f 96/63/26 92/62/24 95/61/26
f 62/65/9 94/66/25 61/67/9
f 94/66/25 62/65/9 93/68/25
f 95/68/26 63/65/10 96/66/26
f 64/67/10 96/66/26 63/65/10
f 97/69/15 66/70/11 65/71/11
f 66/70/11 97/69/15 98/72/15
f 99/72/13 100/69/13 67/70/12
f 68/71/12 67/70/12 100/69/13
f 101/44/16 98/73/15 97/42/15
f 98/73/15 101/44/16 102/74/16
f 103/74/14 104/44/14 99/73/13
f 100/42/13 99/73/13 104/44/14
f 105/48/18 102/75/16 101/46/16
f 102/75/16 105/48/18 106/76/18
f 107/76/17 108/48/17 103/75/14
f 104/46/14 103/75/14 108/48/17
f 109/52/20 106/77/18 105/50/18
f 106/77/18 109/52/20 110/78/20
f 111/78/19 112/52/19 107/77/17
f 108/50/17 107/77/17 112/52/19
f 113/56/22 110/79/20 109/54/20
f 110/79/20 113/56/22 114/80/22
f 115/80/21 116/56/21 111/79/19
f 112/54/19 111/79/19 116/56/21
f 117/81/24 113/59/22 118/58/24
f 113/59/22 117/81/24 114/82/22
f 115/82/21 119/81/23 116/59/21
f 120/58/23 116/59/21 119/81/23
f 121/83/26 118/63/24 122/62/26
f 118/63/24 121/83/26 117/84/24
f 119/84/23 123/83/25 120/63/23
f 124/62/25 120/63/23 123/83/25
f 125/85/10 122/67/26 126/66/10
f 122/67/26 125/85/10 121/86/26
f 123/86/25 127/85/9 124/67/25
f 128/66/9 124/67/25 127/85/9
f 129/87/3 126/35/10 130/34/3
f 126/35/10 129/87/3 125/88/10
f 127/88/9 131/87/2 128/35/9
f 132/34/2 128/35/9 131/87/2
f 133/89/4 130/3/3 134/2/4
f 130/3/3 133/89/4 129/90/3
f 131/90/2 135/89/1 132/3/2
f 136/2/1 132/3/2 135/89/1
f 137/91/6 134/7/4 138/6/6
f 134/7/4 137/91/6 133/92/4
f 135/92/1 139/91/5 136/7/1
f 140/6/5 136/7/1 139/91/5
f 137/93/6 141/39/12 142/94/12
f 141/39/12 137/93/6 138/37/6
f 140/37/5 139/93/5 143/39/11
f 144/94/11 143/39/11 139/93/5
f 142/95/12 72/71/13 69/96/13
f 72/71/13 142/95/12 141/69/12
f 143/69/11 144/95/11 73/71/15
f 74/96/15 73/71/15 144/95/11
