# SSTK version 0.8.0
# 69
mtllib original-69.mtl
o #ID461
v 0.361915 -0.588157 -0.425955
v 0.342453 -0.588157 -0.425955
v 0.352184 -0.588157 -0.424673
v 0.370982 -0.588157 -0.429711
v 0.333385 -0.588157 -0.429711
v 0.378769 -0.588157 -0.435686
v 0.325598 -0.588157 -0.435686
v 0.384744 -0.588157 -0.443472
v 0.319623 -0.588157 -0.443472
v 0.388500 -0.588157 -0.452540
v 0.315867 -0.588157 -0.452540
v 0.389781 -0.588157 -0.462271
v 0.314586 -0.588157 -0.462271
v 0.388500 -0.588157 -0.472002
v 0.315867 -0.588157 -0.472002
v 0.384744 -0.588157 -0.481070
v 0.319623 -0.588157 -0.481070
v 0.378769 -0.588157 -0.488856
v 0.325598 -0.588157 -0.488856
v 0.370982 -0.588157 -0.494831
v 0.333385 -0.588157 -0.494831
v 0.361915 -0.588157 -0.498587
v 0.342453 -0.588157 -0.498587
v 0.352184 -0.588157 -0.499869
v 0.352184 -0.588157 -0.499869
v 0.361915 -0.588157 -0.498587
v 0.342453 -0.588157 -0.498587
v 0.333385 -0.588157 -0.494831
v 0.370982 -0.588157 -0.494831
v 0.325598 -0.588157 -0.488856
v 0.378769 -0.588157 -0.488856
v 0.319623 -0.588157 -0.481070
v 0.384744 -0.588157 -0.481070
v 0.315867 -0.588157 -0.472002
v 0.388500 -0.588157 -0.472002
v 0.314586 -0.588157 -0.462271
v 0.389781 -0.588157 -0.462271
v 0.315867 -0.588157 -0.452540
v 0.388500 -0.588157 -0.452540
v 0.319623 -0.588157 -0.443472
v 0.384744 -0.588157 -0.443472
v 0.325598 -0.588157 -0.435686
v 0.378769 -0.588157 -0.435686
v 0.333385 -0.588157 -0.429711
v 0.370982 -0.588157 -0.429711
v 0.342453 -0.588157 -0.425955
v 0.361915 -0.588157 -0.425955
v 0.352184 -0.588157 -0.424673
v 0.325598 -0.588157 -0.435686
v 0.319623 -0.603196 -0.443472
v 0.325598 -0.603196 -0.435686
v 0.319623 -0.588157 -0.443472
v 0.319623 -0.588157 -0.443472
v 0.325598 -0.588157 -0.435686
v 0.319623 -0.603196 -0.443472
v 0.325598 -0.603196 -0.435686
v 0.333385 -0.603196 -0.429711
v 0.333385 -0.588157 -0.429711
v 0.333385 -0.603196 -0.429711
v 0.333385 -0.588157 -0.429711
v 0.342453 -0.603196 -0.425955
v 0.342453 -0.588157 -0.425955
v 0.342453 -0.603196 -0.425955
v 0.342453 -0.588157 -0.425955
v 0.352184 -0.603196 -0.424673
v 0.352184 -0.588157 -0.424673
v 0.352184 -0.603196 -0.424673
v 0.352184 -0.588157 -0.424673
v 0.361915 -0.603196 -0.425955
v 0.361915 -0.588157 -0.425955
v 0.361915 -0.603196 -0.425955
v 0.361915 -0.588157 -0.425955
v 0.370982 -0.603196 -0.429711
v 0.370982 -0.588157 -0.429711
v 0.370982 -0.603196 -0.429711
v 0.370982 -0.588157 -0.429711
v 0.378769 -0.603196 -0.435686
v 0.378769 -0.588157 -0.435686
v 0.378769 -0.603196 -0.435686
v 0.378769 -0.588157 -0.435686
v 0.384744 -0.588157 -0.443472
v 0.384744 -0.603196 -0.443472
v 0.384744 -0.588157 -0.443472
v 0.384744 -0.603196 -0.443472
v 0.388500 -0.588157 -0.452540
v 0.388500 -0.603196 -0.452540
v 0.388500 -0.588157 -0.452540
v 0.388500 -0.603196 -0.452540
v 0.389781 -0.588157 -0.462271
v 0.389781 -0.603196 -0.462271
v 0.389781 -0.588157 -0.462271
v 0.389781 -0.603196 -0.462271
v 0.388500 -0.588157 -0.472002
v 0.388500 -0.603196 -0.472002
v 0.388500 -0.588157 -0.472002
v 0.388500 -0.603196 -0.472002
v 0.384744 -0.588157 -0.481070
v 0.384744 -0.603196 -0.481070
v 0.384744 -0.588157 -0.481070
v 0.384744 -0.603196 -0.481070
v 0.378769 -0.588157 -0.488856
v 0.378769 -0.603196 -0.488856
v 0.378769 -0.588157 -0.488856
v 0.378769 -0.603196 -0.488856
v 0.370982 -0.603196 -0.494831
v 0.370982 -0.588157 -0.494831
v 0.370982 -0.588157 -0.494831
v 0.370982 -0.603196 -0.494831
v 0.361915 -0.603196 -0.498587
v 0.361915 -0.588157 -0.498587
v 0.361915 -0.588157 -0.498587
v 0.361915 -0.603196 -0.498587
v 0.352184 -0.603196 -0.499869
v 0.352184 -0.588157 -0.499869
v 0.352184 -0.588157 -0.499869
v 0.352184 -0.603196 -0.499869
v 0.342453 -0.603196 -0.498587
v 0.342453 -0.588157 -0.498587
v 0.342453 -0.588157 -0.498587
v 0.342453 -0.603196 -0.498587
v 0.333385 -0.603196 -0.494831
v 0.333385 -0.588157 -0.494831
v 0.333385 -0.588157 -0.494831
v 0.333385 -0.603196 -0.494831
v 0.325598 -0.603196 -0.488856
v 0.325598 -0.588157 -0.488856
v 0.325598 -0.588157 -0.488856
v 0.325598 -0.603196 -0.488856
v 0.319623 -0.588157 -0.481070
v 0.319623 -0.603196 -0.481070
v 0.319623 -0.588157 -0.481070
v 0.319623 -0.603196 -0.481070
v 0.315867 -0.588157 -0.472002
v 0.315867 -0.603196 -0.472002
v 0.315867 -0.588157 -0.472002
v 0.315867 -0.603196 -0.472002
v 0.314586 -0.588157 -0.462271
v 0.314586 -0.603196 -0.462271
v 0.314586 -0.588157 -0.462271
v 0.314586 -0.603196 -0.462271
v 0.315867 -0.588157 -0.452540
v 0.315867 -0.603196 -0.452540
v 0.315867 -0.588157 -0.452540
v 0.315867 -0.603196 -0.452540
v 0.342453 -0.603196 -0.425955
v 0.361915 -0.603196 -0.425955
v 0.352184 -0.603196 -0.424673
v 0.333385 -0.603196 -0.429711
v 0.370982 -0.603196 -0.429711
v 0.325598 -0.603196 -0.435686
v 0.378769 -0.603196 -0.435686
v 0.319623 -0.603196 -0.443472
v 0.352184 -0.603196 -0.439712
v 0.346345 -0.603196 -0.440481
v 0.340904 -0.603196 -0.442735
v 0.336232 -0.603196 -0.446320
v 0.315867 -0.603196 -0.452540
v 0.332647 -0.603196 -0.450992
v 0.330394 -0.603196 -0.456432
v 0.314586 -0.603196 -0.462271
v 0.329625 -0.603196 -0.462271
v 0.330394 -0.603196 -0.468110
v 0.315867 -0.603196 -0.472002
v 0.332647 -0.603196 -0.473550
v 0.319623 -0.603196 -0.481070
v 0.336232 -0.603196 -0.478222
v 0.340904 -0.603196 -0.481807
v 0.325598 -0.603196 -0.488856
v 0.346345 -0.603196 -0.484061
v 0.352184 -0.603196 -0.484830
v 0.384744 -0.603196 -0.443472
v 0.358022 -0.603196 -0.440481
v 0.363463 -0.603196 -0.442735
v 0.368135 -0.603196 -0.446320
v 0.388500 -0.603196 -0.452540
v 0.371720 -0.603196 -0.450992
v 0.373974 -0.603196 -0.456432
v 0.389781 -0.603196 -0.462271
v 0.374742 -0.603196 -0.462271
v 0.373974 -0.603196 -0.468110
v 0.388500 -0.603196 -0.472002
v 0.371720 -0.603196 -0.473550
v 0.384744 -0.603196 -0.481070
v 0.368135 -0.603196 -0.478222
v 0.363463 -0.603196 -0.481807
v 0.378769 -0.603196 -0.488856
v 0.358022 -0.603196 -0.484061
v 0.333385 -0.603196 -0.494831
v 0.370982 -0.603196 -0.494831
v 0.342453 -0.603196 -0.498587
v 0.361915 -0.603196 -0.498587
v 0.352184 -0.603196 -0.499869
v 0.352184 -0.603196 -0.499869
v 0.342453 -0.603196 -0.498587
v 0.361915 -0.603196 -0.498587
v 0.370982 -0.603196 -0.494831
v 0.333385 -0.603196 -0.494831
v 0.378769 -0.603196 -0.488856
v 0.325598 -0.603196 -0.488856
v 0.352184 -0.603196 -0.484830
v 0.358022 -0.603196 -0.484061
v 0.363463 -0.603196 -0.481807
v 0.384744 -0.603196 -0.481070
v 0.368135 -0.603196 -0.478222
v 0.371720 -0.603196 -0.473550
v 0.388500 -0.603196 -0.472002
v 0.373974 -0.603196 -0.468110
v 0.389781 -0.603196 -0.462271
v 0.374742 -0.603196 -0.462271
v 0.373974 -0.603196 -0.456432
v 0.388500 -0.603196 -0.452540
v 0.371720 -0.603196 -0.450992
v 0.368135 -0.603196 -0.446320
v 0.384744 -0.603196 -0.443472
v 0.363463 -0.603196 -0.442735
v 0.358022 -0.603196 -0.440481
v 0.352184 -0.603196 -0.439712
v 0.378769 -0.603196 -0.435686
v 0.346345 -0.603196 -0.484061
v 0.340904 -0.603196 -0.481807
v 0.319623 -0.603196 -0.481070
v 0.336232 -0.603196 -0.478222
v 0.332647 -0.603196 -0.473550
v 0.315867 -0.603196 -0.472002
v 0.330394 -0.603196 -0.468110
v 0.314586 -0.603196 -0.462271
v 0.329625 -0.603196 -0.462271
v 0.330394 -0.603196 -0.456432
v 0.315867 -0.603196 -0.452540
v 0.332647 -0.603196 -0.450992
v 0.336232 -0.603196 -0.446320
v 0.319623 -0.603196 -0.443472
v 0.340904 -0.603196 -0.442735
v 0.346345 -0.603196 -0.440481
v 0.325598 -0.603196 -0.435686
v 0.370982 -0.603196 -0.429711
v 0.333385 -0.603196 -0.429711
v 0.361915 -0.603196 -0.425955
v 0.342453 -0.603196 -0.425955
v 0.352184 -0.603196 -0.424673
vt 0.01696316 0.02856268
vt 0.01696316 0.03705412
vt 0.0164042 0.0328084
vt 0.01860195 0.0246063
vt 0.01860195 0.0410105
vt 0.02120888 0.02120888
vt 0.02120888 0.04440792
vt 0.0246063 0.01860195
vt 0.0246063 0.04701485
vt 0.02856268 0.01696316
vt 0.02856268 0.04865364
vt 0.0328084 0.0164042
vt 0.0328084 0.0492126
vt 0.03705412 0.01696316
vt 0.03705412 0.04865364
vt 0.0410105 0.01860195
vt 0.0410105 0.04701485
vt 0.04440792 0.02120888
vt 0.04440792 0.04440792
vt 0.04701485 0.0246063
vt 0.04701485 0.0410105
vt 0.04865364 0.02856268
vt 0.04865364 0.03705412
vt 0.0492126 0.0328084
vt -0.04385996 0.0984252
vt -0.04814232 0.06466198
vt -0.04385996 0.06466198
vt -0.04814232 0.0984252
vt -0.04500742 0.0984252
vt -0.04072506 0.06466198
vt -0.04072506 0.0984252
vt -0.04500742 0.06466198
vt -0.03895125 0.0984252
vt -0.0346689 0.06466198
vt -0.0346689 0.0984252
vt -0.03895125 0.06466198
vt -0.03038654 0.0984252
vt -0.02610419 0.06466198
vt -0.02610419 0.0984252
vt -0.03038654 0.06466198
vt -0.01989696 0.0984252
vt -0.0156146 0.06466198
vt -0.0156146 0.0984252
vt -0.01989696 0.06466198
vt -0.008197343 0.0984252
vt -0.003914987 0.06466198
vt -0.003914987 0.0984252
vt -0.008197343 0.06466198
vt 0.008197343 0.0984252
vt 0.003914987 0.06466198
vt 0.008197343 0.06466198
vt 0.003914987 0.0984252
vt 0.01989696 0.0984252
vt 0.0156146 0.06466198
vt 0.01989696 0.06466198
vt 0.0156146 0.0984252
vt 0.03038654 0.0984252
vt 0.02610419 0.06466198
vt 0.03038654 0.06466198
vt 0.02610419 0.0984252
vt 0.03895125 0.0984252
vt 0.0346689 0.06466198
vt 0.03895125 0.06466198
vt 0.0346689 0.0984252
vt 0.04500742 0.0984252
vt 0.04072506 0.06466198
vt 0.04500742 0.06466198
vt 0.04072506 0.0984252
vt 0.04814232 0.0984252
vt 0.04385996 0.06466198
vt 0.04814232 0.06466198
vt 0.04385996 0.0984252
vt -0.01696316 0.03705412
vt -0.01696316 0.02856268
vt -0.0164042 0.0328084
vt -0.01860195 0.0410105
vt -0.01860195 0.0246063
vt -0.02120888 0.04440792
vt -0.02120888 0.02120888
vt -0.0246063 0.04701485
vt -0.02296588 0.0328084
vt -0.02330125 0.03535583
vt -0.02428453 0.03772966
vt -0.02584869 0.03976811
vt -0.02856268 0.04865364
vt -0.02788714 0.04133227
vt -0.03026097 0.04231554
vt -0.0328084 0.0492126
vt -0.0328084 0.04265092
vt -0.03535583 0.04231554
vt -0.03705412 0.04865364
vt -0.03772966 0.04133227
vt -0.0410105 0.04701485
vt -0.03976811 0.03976811
vt -0.04133227 0.03772966
vt -0.04440792 0.04440792
vt -0.04231554 0.03535583
vt -0.04265092 0.0328084
vt -0.0246063 0.01860195
vt -0.02330125 0.03026097
vt -0.02428453 0.02788714
vt -0.02584869 0.02584869
vt -0.02856268 0.01696316
vt -0.02788714 0.02428453
vt -0.03026097 0.02330125
vt -0.0328084 0.0164042
vt -0.0328084 0.02296588
vt -0.03535583 0.02330125
vt -0.03705412 0.01696316
vt -0.03772966 0.02428453
vt -0.0410105 0.01860195
vt -0.03976811 0.02584869
vt -0.04133227 0.02788714
vt -0.04440792 0.02120888
vt -0.04231554 0.03026097
vt -0.04701485 0.0410105
vt -0.04701485 0.0246063
vt -0.04865364 0.03705412
vt -0.04865364 0.02856268
vt -0.0492126 0.0328084
vn 0 1 0
vn -0.7071067811865496 0 0.7071067811865456
vn -0.8660254028383304 0 0.5000000016387075
vn -0.5000000016387125 0 0.8660254028383275
vn -0.2588190095935644 0 0.9659258358036638
vn 0 0 1
vn 0.25881900959355886 0 0.9659258358036653
vn 0.5000000016387075 0 0.8660254028383304
vn 0.7071067811865456 0 0.7071067811865496
vn 0.8660254028383275 0 0.5000000016387125
vn 0.9659258358036638 0 0.2588190095935644
vn 1 0 0
vn 0.9659258358036653 0 -0.25881900959355886
vn 0.8660254028383304 0 -0.5000000016387075
vn 0.7071067811865496 0 -0.7071067811865456
vn 0.5000000016387125 0 -0.8660254028383275
vn 0.2588190095935644 0 -0.9659258358036638
vn 0 0 -1
vn -0.25881900959355886 0 -0.9659258358036653
vn -0.5000000016387075 0 -0.8660254028383304
vn -0.7071067811865456 0 -0.7071067811865496
vn -0.8660254028383275 0 -0.5000000016387125
vn -0.9659258358036638 0 -0.2588190095935644
vn -1 0 0
vn -0.9659258358036653 0 0.25881900959355886
vn 0 -1 0
usemtl material_0_0
f 25//26 26//26 27//26
f 27//26 26//26 28//26
f 26//26 29//26 28//26
f 28//26 29//26 30//26
f 29//26 31//26 30//26
f 30//26 31//26 32//26
f 31//26 33//26 32//26
f 32//26 33//26 34//26
f 33//26 35//26 34//26
f 34//26 35//26 36//26
f 35//26 37//26 36//26
f 36//26 37//26 38//26
f 37//26 39//26 38//26
f 38//26 39//26 40//26
f 39//26 41//26 40//26
f 40//26 41//26 42//26
f 41//26 43//26 42//26
f 42//26 43//26 44//26
f 43//26 45//26 44//26
f 44//26 45//26 46//26
f 45//26 47//26 46//26
f 48//26 46//26 47//26
f 53//14 54//15 55//14
f 56//15 55//14 54//15
f 56//15 54//15 59//16
f 60//16 59//16 54//15
f 59//16 60//16 63//17
f 64//17 63//17 60//16
f 63//17 64//17 67//18
f 68//18 67//18 64//17
f 67//18 68//18 71//19
f 72//19 71//19 68//18
f 71//19 72//19 75//20
f 76//20 75//20 72//19
f 75//20 76//20 79//21
f 80//21 79//21 76//20
f 80//21 83//22 79//21
f 84//22 79//21 83//22
f 83//22 87//23 84//22
f 88//23 84//22 87//23
f 87//23 91//24 88//23
f 92//24 88//23 91//24
f 91//24 95//25 92//24
f 96//25 92//24 95//25
f 95//25 99//3 96//25
f 100//3 96//25 99//3
f 99//3 103//2 100//3
f 104//2 100//3 103//2
f 107//4 108//4 103//2
f 104//2 103//2 108//4
f 111//5 112//5 107//4
f 108//4 107//4 112//5
f 115//6 116//6 111//5
f 112//5 111//5 116//6
f 119//7 120//7 115//6
f 116//6 115//6 120//7
f 123//8 124//8 119//7
f 120//7 119//7 124//8
f 127//9 128//9 123//8
f 124//8 123//8 128//9
f 127//9 131//10 128//9
f 132//10 128//9 131//10
f 131//10 135//11 132//10
f 136//11 132//10 135//11
f 135//11 139//12 136//11
f 140//12 136//11 139//12
f 139//12 143//13 140//12
f 144//13 140//12 143//13
f 143//13 53//14 144//13
f 55//14 144//13 53//14
f 193//1 194//1 195//1
f 195//1 194//1 196//1
f 194//1 197//1 196//1
f 196//1 197//1 198//1
f 197//1 199//1 198//1
f 199//1 200//1 198//1
f 200//1 201//1 198//1
f 201//1 202//1 198//1
f 198//1 202//1 203//1
f 202//1 204//1 203//1
f 204//1 205//1 203//1
f 203//1 205//1 206//1
f 205//1 207//1 206//1
f 206//1 207//1 208//1
f 207//1 209//1 208//1
f 209//1 210//1 208//1
f 208//1 210//1 211//1
f 210//1 212//1 211//1
f 212//1 213//1 211//1
f 211//1 213//1 214//1
f 213//1 215//1 214//1
f 215//1 216//1 214//1
f 216//1 217//1 214//1
f 218//1 214//1 217//1
f 200//1 199//1 219//1
f 219//1 199//1 220//1
f 199//1 221//1 220//1
f 220//1 221//1 222//1
f 222//1 221//1 223//1
f 221//1 224//1 223//1
f 223//1 224//1 225//1
f 224//1 226//1 225//1
f 225//1 226//1 227//1
f 227//1 226//1 228//1
f 226//1 229//1 228//1
f 228//1 229//1 230//1
f 230//1 229//1 231//1
f 229//1 232//1 231//1
f 231//1 232//1 233//1
f 233//1 232//1 234//1
f 234//1 232//1 217//1
f 217//1 232//1 218//1
f 232//1 235//1 218//1
f 218//1 235//1 236//1
f 235//1 237//1 236//1
f 236//1 237//1 238//1
f 237//1 239//1 238//1
f 240//1 238//1 239//1
usemtl material_1_0
f 1/1/1 2/2/1 3/3/1
f 2/2/1 1/1/1 4/4/1
f 2/2/1 4/4/1 5/5/1
f 5/5/1 4/4/1 6/6/1
f 5/5/1 6/6/1 7/7/1
f 7/7/1 6/6/1 8/8/1
f 7/7/1 8/8/1 9/9/1
f 9/9/1 8/8/1 10/10/1
f 9/9/1 10/10/1 11/11/1
f 11/11/1 10/10/1 12/12/1
f 11/11/1 12/12/1 13/13/1
f 13/13/1 12/12/1 14/14/1
f 13/13/1 14/14/1 15/15/1
f 15/15/1 14/14/1 16/16/1
f 15/15/1 16/16/1 17/17/1
f 17/17/1 16/16/1 18/18/1
f 17/17/1 18/18/1 19/19/1
f 19/19/1 18/18/1 20/20/1
f 19/19/1 20/20/1 21/21/1
f 21/21/1 20/20/1 22/22/1
f 21/21/1 22/22/1 23/23/1
f 23/23/1 22/22/1 24/24/1
f 49/25/2 50/26/3 51/27/2
f 50/26/3 49/25/2 52/28/3
f 49/28/2 57/27/4 58/25/4
f 57/27/4 49/28/2 51/26/2
f 58/29/4 61/30/5 62/31/5
f 61/30/5 58/29/4 57/32/4
f 62/33/5 65/34/6 66/35/6
f 65/34/6 62/33/5 61/36/5
f 66/37/6 69/38/7 70/39/7
f 69/38/7 66/37/6 65/40/6
f 70/41/7 73/42/8 74/43/8
f 73/42/8 70/41/7 69/44/7
f 74/45/8 77/46/9 78/47/9
f 77/46/9 74/45/8 73/48/8
f 81/49/10 77/50/9 82/51/10
f 77/50/9 81/49/10 78/52/9
f 85/53/11 82/54/10 86/55/11
f 82/54/10 85/53/11 81/56/10
f 89/57/12 86/58/11 90/59/12
f 86/58/11 89/57/12 85/60/11
f 93/61/13 90/62/12 94/63/13
f 90/62/12 93/61/13 89/64/12
f 97/65/14 94/66/13 98/67/14
f 94/66/13 97/65/14 93/68/13
f 101/69/15 98/70/14 102/71/15
f 98/70/14 101/69/15 97/72/14
f 105/71/16 101/72/15 102/70/15
f 101/72/15 105/71/16 106/69/16
f 109/67/17 106/68/16 105/66/16
f 106/68/16 109/67/17 110/65/17
f 113/63/18 110/64/17 109/62/17
f 110/64/17 113/63/18 114/61/18
f 117/59/19 114/60/18 113/58/18
f 114/60/18 117/59/19 118/57/19
f 121/55/20 118/56/19 117/54/19
f 118/56/19 121/55/20 122/53/20
f 125/51/21 122/52/20 121/50/20
f 122/52/20 125/51/21 126/49/21
f 129/47/22 125/48/21 130/46/22
f 125/48/21 129/47/22 126/45/21
f 133/43/23 130/44/22 134/42/23
f 130/44/22 133/43/23 129/41/22
f 137/39/24 134/40/23 138/38/24
f 134/40/23 137/39/24 133/37/23
f 141/35/25 138/36/24 142/34/25
f 138/36/24 141/35/25 137/33/24
f 52/31/3 142/32/25 50/30/3
f 142/32/25 52/31/3 141/29/25
f 145/73/26 146/74/26 147/75/26
f 146/74/26 145/73/26 148/76/26
f 146/74/26 148/76/26 149/77/26
f 149/77/26 148/76/26 150/78/26
f 149/77/26 150/78/26 151/79/26
f 151/79/26 150/78/26 152/80/26
f 151/79/26 152/80/26 153/81/26
f 153/81/26 152/80/26 154/82/26
f 154/82/26 152/80/26 155/83/26
f 155/83/26 152/80/26 156/84/26
f 156/84/26 152/80/26 157/85/26
f 156/84/26 157/85/26 158/86/26
f 158/86/26 157/85/26 159/87/26
f 159/87/26 157/85/26 160/88/26
f 159/87/26 160/88/26 161/89/26
f 161/89/26 160/88/26 162/90/26
f 162/90/26 160/88/26 163/91/26
f 162/90/26 163/91/26 164/92/26
f 164/92/26 163/91/26 165/93/26
f 164/92/26 165/93/26 166/94/26
f 166/94/26 165/93/26 167/95/26
f 167/95/26 165/93/26 168/96/26
f 167/95/26 168/96/26 169/97/26
f 169/97/26 168/96/26 170/98/26
f 153/81/26 171/99/26 151/79/26
f 171/99/26 153/81/26 172/100/26
f 171/99/26 172/100/26 173/101/26
f 171/99/26 173/101/26 174/102/26
f 171/99/26 174/102/26 175/103/26
f 175/103/26 174/102/26 176/104/26
f 175/103/26 176/104/26 177/105/26
f 175/103/26 177/105/26 178/106/26
f 178/106/26 177/105/26 179/107/26
f 178/106/26 179/107/26 180/108/26
f 178/106/26 180/108/26 181/109/26
f 181/109/26 180/108/26 182/110/26
f 181/109/26 182/110/26 183/111/26
f 183/111/26 182/110/26 184/112/26
f 183/111/26 184/112/26 185/113/26
f 183/111/26 185/113/26 186/114/26
f 186/114/26 185/113/26 187/115/26
f 186/114/26 187/115/26 170/98/26
f 186/114/26 170/98/26 168/96/26
f 186/114/26 168/96/26 188/116/26
f 186/114/26 188/116/26 189/117/26
f 189/117/26 188/116/26 190/118/26
f 189/117/26 190/118/26 191/119/26
f 191/119/26 190/118/26 192/120/26
