# SSTK version 0.8.0
# 297
mtllib original-297.mtl
o #ID1804
v 0.294674 -0.457011 -0.203824
v 0.293908 -0.456875 -0.203824
v 0.294291 -0.456943 -0.203875
v 0.295031 -0.457075 -0.203674
v 0.293551 -0.456811 -0.203674
v 0.295338 -0.457129 -0.203435
v 0.293244 -0.456756 -0.203435
v 0.295573 -0.457171 -0.203123
v 0.293009 -0.456714 -0.203123
v 0.295721 -0.457198 -0.202760
v 0.292861 -0.456688 -0.202760
v 0.295771 -0.457207 -0.202371
v 0.292810 -0.456679 -0.202371
v 0.295721 -0.457198 -0.201982
v 0.292861 -0.456688 -0.201982
v 0.295573 -0.457171 -0.201619
v 0.293009 -0.456714 -0.201619
v 0.295338 -0.457129 -0.201308
v 0.293244 -0.456756 -0.201308
v 0.295031 -0.457075 -0.201069
v 0.293551 -0.456811 -0.201069
v 0.294674 -0.457011 -0.200918
v 0.293908 -0.456875 -0.200918
v 0.294291 -0.456943 -0.200867
v 0.332684 -0.233221 -0.201982
v 0.292810 -0.456679 -0.202371
v 0.292861 -0.456688 -0.201982
v 0.293157 -0.454734 -0.202371
v 0.332633 -0.233217 -0.202371
v 0.332684 -0.233221 -0.202760
v 0.292861 -0.456688 -0.202760
v 0.332835 -0.233235 -0.203123
v 0.293009 -0.456714 -0.203123
v 0.333074 -0.233256 -0.203435
v 0.293244 -0.456756 -0.203435
v 0.293551 -0.456811 -0.203674
v 0.333385 -0.233283 -0.203674
v 0.293908 -0.456875 -0.203824
v 0.333748 -0.233315 -0.203824
v 0.294291 -0.456943 -0.203875
v 0.334137 -0.233350 -0.203875
v 0.294674 -0.457011 -0.203824
v 0.334526 -0.233384 -0.203824
v 0.295031 -0.457075 -0.203674
v 0.334889 -0.233416 -0.203674
v 0.295338 -0.457129 -0.203435
v 0.335201 -0.233444 -0.203435
v 0.296123 -0.454084 -0.203136
v 0.295573 -0.457171 -0.203123
v 0.335439 -0.233465 -0.203123
v 0.335590 -0.233478 -0.202760
v 0.295721 -0.457198 -0.202760
v 0.296212 -0.454734 -0.202371
v 0.295771 -0.457207 -0.202371
v 0.296346 -0.453982 -0.202371
v 0.335641 -0.233483 -0.202371
v 0.295721 -0.457198 -0.201982
v 0.335590 -0.233478 -0.201982
v 0.295573 -0.457171 -0.201619
v 0.296123 -0.454084 -0.201606
v 0.335439 -0.233465 -0.201619
v 0.295338 -0.457129 -0.201308
v 0.335201 -0.233444 -0.201308
v 0.334889 -0.233416 -0.201069
v 0.295031 -0.457075 -0.201069
v 0.334526 -0.233384 -0.200918
v 0.294674 -0.457011 -0.200918
v 0.334137 -0.233350 -0.200867
v 0.294291 -0.456943 -0.200867
v 0.333748 -0.233315 -0.200918
v 0.293908 -0.456875 -0.200918
v 0.333385 -0.233283 -0.201069
v 0.293551 -0.456811 -0.201069
v 0.333074 -0.233256 -0.201308
v 0.293244 -0.456756 -0.201308
v 0.293009 -0.456714 -0.201619
v 0.332835 -0.233235 -0.201619
v 0.333748 -0.233315 -0.203824
v 0.334526 -0.233384 -0.203824
v 0.334137 -0.233350 -0.203875
v 0.333385 -0.233283 -0.203674
v 0.334889 -0.233416 -0.203674
v 0.333074 -0.233256 -0.203435
v 0.335201 -0.233444 -0.203435
v 0.332835 -0.233235 -0.203123
v 0.335439 -0.233465 -0.203123
v 0.332684 -0.233221 -0.202760
v 0.335590 -0.233478 -0.202760
v 0.332633 -0.233217 -0.202371
v 0.335641 -0.233483 -0.202371
v 0.332684 -0.233221 -0.201982
v 0.335590 -0.233478 -0.201982
v 0.332835 -0.233235 -0.201619
v 0.335439 -0.233465 -0.201619
v 0.333074 -0.233256 -0.201308
v 0.335201 -0.233444 -0.201308
v 0.333385 -0.233283 -0.201069
v 0.334889 -0.233416 -0.201069
v 0.333748 -0.233315 -0.200918
v 0.334526 -0.233384 -0.200918
v 0.334137 -0.233350 -0.200867
vn -0.17544359715858482 -0.9844894840555973 0
vn -0.9504611983345165 0.16937949970319802 0.26064169954328015
vn -0.9844894840555973 0.17544359715858482 0
vn -0.9509438279531417 0.16946550498146484 0.258819007608025
vn -0.9504611983345165 0.16937949970319802 -0.26064169954328015
vn -0.9509438279531417 0.16946550498146484 -0.258819007608025
vn -0.8507918829939509 0.15161769696939045 -0.5031552899426831
vn -0.8525928907544401 0.15193869835236917 -0.4999999945779751
vn -0.6925372386312345 0.1234155068843856 -0.7107466396469946
vn -0.6961391822910408 0.12405739684412624 -0.7071067820120381
vn -0.49224471087187377 0.08772182193745216 -0.8660254191273138
vn -0.48684099894286487 0.08675883981161032 -0.869171298112666
vn -0.2548046081178984 0.04540816144667259 -0.9659258307737283
vn -0.24807939867153123 0.044209669763256576 -0.9677303948177898
vn 0 0 -1
vn 0.00721369067300741 -0.00128553594172737 -0.9999731546717725
vn 0.2548046081178984 -0.04540816144667259 -0.9659258307737283
vn 0.2615425093621405 -0.046608901668405985 -0.9640659345095747
vn 0.49224471087187377 -0.08772182193745216 -0.8660254191273138
vn 0.4976681941042189 -0.08868831894932624 -0.8628213897783179
vn 0.6942291883175877 -0.12371169791819318 -0.7090424880683113
vn 0.697783095712594 -0.12434479923598517 -0.7054339956655844
vn 0.8521227207129989 -0.15184620369100618 -0.500828912173914
vn 0.852356720097843 -0.15188790358138696 -0.5004179117994266
vn 0.8540841572192162 -0.15219579237656472 -0.49736977508691776
vn 0.9519130928024995 -0.16963509871737378 -0.2551183980710269
vn 0.9514378134360288 -0.169550302394358 -0.25694120362847617
vn 0.9844894840555973 -0.17544359715858482 0
vn 0.9514378134360288 -0.169550302394358 0.25694120362847617
vn 0.9519130928024995 -0.16963509871737378 0.2551183980710269
vn 0.852356720097843 -0.15188790358138696 0.5004179117994266
vn 0.8521227207129989 -0.15184620369100618 0.500828912173914
vn 0.8540841572192162 -0.15219579237656472 0.49736977508691776
vn 0.6942291883175877 -0.12371169791819318 0.7090424880683113
vn 0.697783095712594 -0.12434479923598517 0.7054339956655844
vn 0.4976681941042189 -0.08868831894932624 0.8628213897783179
vn 0.49224471087187377 -0.08772182193745216 0.8660254191273138
vn 0.2615425093621405 -0.046608901668405985 0.9640659345095747
vn 0.2548046081178984 -0.04540816144667259 0.9659258307737283
vn 0.00721369067300741 -0.00128553594172737 0.9999731546717725
vn 0 0 1
vn -0.24807939867153123 0.044209669763256576 0.9677303948177898
vn -0.2548046081178984 0.04540816144667259 0.9659258307737283
vn -0.48684099894286487 0.08675883981161032 0.869171298112666
vn -0.49224471087187377 0.08772182193745216 0.8660254191273138
vn -0.6925372386312345 0.1234155068843856 0.7107466396469946
vn -0.6961391822910408 0.12405739684412624 0.7071067820120381
vn -0.8525928907544401 0.15193869835236917 0.4999999945779751
vn -0.8507918829939509 0.15161769696939045 0.5031552899426831
vn 0.08806397186734367 0.9961148211220169 0
usemtl material_0_0
f 1//1 2//1 3//1
f 2//1 1//1 4//1
f 2//1 4//1 5//1
f 5//1 4//1 6//1
f 5//1 6//1 7//1
f 7//1 6//1 8//1
f 7//1 8//1 9//1
f 9//1 8//1 10//1
f 9//1 10//1 11//1
f 11//1 10//1 12//1
f 11//1 12//1 13//1
f 13//1 12//1 14//1
f 13//1 14//1 15//1
f 15//1 14//1 16//1
f 15//1 16//1 17//1
f 17//1 16//1 18//1
f 17//1 18//1 19//1
f 19//1 18//1 20//1
f 19//1 20//1 21//1
f 21//1 20//1 22//1
f 21//1 22//1 23//1
f 23//1 22//1 24//1
f 25//2 26//3 27//4
f 26//3 25//2 28//3
f 28//3 25//2 29//3
f 26//3 30//5 31//6
f 30//5 26//3 28//3
f 30//5 28//3 29//3
f 31//6 32//7 33//8
f 32//7 31//6 30//5
f 33//8 34//9 35//10
f 34//9 33//8 32//7
f 34//9 36//11 35//10
f 36//11 34//9 37//12
f 37//12 38//13 36//11
f 38//13 37//12 39//14
f 39//14 40//15 38//13
f 40//15 39//14 41//16
f 41//16 42//17 40//15
f 42//17 41//16 43//18
f 43//18 44//19 42//17
f 44//19 43//18 45//20
f 45//20 46//21 44//19
f 46//21 45//20 47//22
f 46//21 48//23 49//24
f 48//23 46//21 47//22
f 48//23 47//22 50//25
f 49//24 51//26 52//27
f 51//26 49//24 48//23
f 51//26 48//23 50//25
f 52//27 53//28 54//28
f 53//28 52//27 51//26
f 53//28 51//26 55//28
f 55//28 51//26 56//28
f 53//28 57//29 54//28
f 57//29 53//28 58//30
f 58//30 53//28 55//28
f 58//30 55//28 56//28
f 58//30 59//31 57//29
f 59//31 58//30 60//32
f 60//32 58//30 61//33
f 60//32 62//34 59//31
f 62//34 60//32 63//35
f 63//35 60//32 61//33
f 62//34 64//36 65//37
f 64//36 62//34 63//35
f 65//37 66//38 67//39
f 66//38 65//37 64//36
f 67//39 68//40 69//41
f 68//40 67//39 66//38
f 69//41 70//42 71//43
f 70//42 69//41 68//40
f 71//43 72//44 73//45
f 72//44 71//43 70//42
f 73//45 74//46 75//47
f 74//46 73//45 72//44
f 74//46 76//48 75//47
f 76//48 74//46 77//49
f 77//49 27//4 76//48
f 27//4 77//49 25//2
f 78//50 79//50 80//50
f 79//50 78//50 81//50
f 79//50 81//50 82//50
f 82//50 81//50 83//50
f 82//50 83//50 84//50
f 84//50 83//50 85//50
f 84//50 85//50 86//50
f 86//50 85//50 87//50
f 86//50 87//50 88//50
f 88//50 87//50 89//50
f 88//50 89//50 90//50
f 90//50 89//50 91//50
f 90//50 91//50 92//50
f 92//50 91//50 93//50
f 92//50 93//50 94//50
f 94//50 93//50 95//50
f 94//50 95//50 96//50
f 96//50 95//50 97//50
f 96//50 97//50 98//50
f 98//50 97//50 99//50
f 98//50 99//50 100//50
f 100//50 99//50 101//50
