# SSTK version 0.8.0
# 200
mtllib original-200.mtl
o group_73/ID1237#ID1237
v 0.391285 -0.189634 0.248021
v 0.391285 -0.189634 0.249578
v 0.391285 -0.189737 0.248800
v 0.391285 -0.189334 0.247296
v 0.391285 -0.189334 0.250304
v 0.391285 -0.188856 0.246673
v 0.391285 -0.188856 0.250926
v 0.391285 -0.188233 0.246195
v 0.391285 -0.188233 0.251404
v 0.391285 -0.187507 0.251705
v 0.391285 -0.187507 0.245894
v 0.391285 -0.186729 0.245792
v 0.391285 -0.186729 0.251807
v 0.391285 -0.185950 0.245894
v 0.391285 -0.185950 0.251705
v 0.391285 -0.185225 0.246195
v 0.391285 -0.185225 0.251404
v 0.391285 -0.184602 0.250926
v 0.391285 -0.184602 0.246673
v 0.391285 -0.184124 0.247296
v 0.391285 -0.184124 0.250304
v 0.391285 -0.183824 0.248021
v 0.391285 -0.183824 0.249578
v 0.391285 -0.183721 0.248800
v 0.391285 -0.186729 0.245792
v 0.349176 -0.187507 0.245894
v 0.349176 -0.186729 0.245792
v 0.391285 -0.187507 0.245894
v 0.391285 -0.185950 0.245894
v 0.349176 -0.185950 0.245894
v 0.391285 -0.185225 0.246195
v 0.349176 -0.185225 0.246195
v 0.391285 -0.184602 0.246673
v 0.349176 -0.184602 0.246673
v 0.349176 -0.184124 0.247296
v 0.391285 -0.184124 0.247296
v 0.349176 -0.183824 0.248021
v 0.391285 -0.183824 0.248021
v 0.349176 -0.183721 0.248800
v 0.391285 -0.183721 0.248800
v 0.349176 -0.183824 0.249578
v 0.391285 -0.183824 0.249578
v 0.349176 -0.184124 0.250304
v 0.391285 -0.184124 0.250304
v 0.349176 -0.184602 0.250926
v 0.391285 -0.184602 0.250926
v 0.391285 -0.185225 0.251404
v 0.349176 -0.185225 0.251404
v 0.391285 -0.185950 0.251705
v 0.349176 -0.185950 0.251705
v 0.391285 -0.186729 0.251807
v 0.349176 -0.186729 0.251807
v 0.391285 -0.187507 0.251705
v 0.349176 -0.187507 0.251705
v 0.391285 -0.188233 0.251404
v 0.349176 -0.188233 0.251404
v 0.391285 -0.188856 0.250926
v 0.349176 -0.188856 0.250926
v 0.349176 -0.189334 0.250304
v 0.391285 -0.189334 0.250304
v 0.349176 -0.189634 0.249578
v 0.391285 -0.189634 0.249578
v 0.349176 -0.189737 0.248800
v 0.391285 -0.189737 0.248800
v 0.349176 -0.189634 0.248021
v 0.391285 -0.189634 0.248021
v 0.349176 -0.189334 0.247296
v 0.391285 -0.189334 0.247296
v 0.349176 -0.188856 0.246673
v 0.391285 -0.188856 0.246673
v 0.391285 -0.188233 0.246195
v 0.349176 -0.188233 0.246195
v 0.349176 -0.189634 0.249578
v 0.349176 -0.189634 0.248021
v 0.349176 -0.189737 0.248800
v 0.349176 -0.189334 0.250304
v 0.349176 -0.189334 0.247296
v 0.349176 -0.188856 0.250926
v 0.349176 -0.188856 0.246673
v 0.349176 -0.188233 0.251404
v 0.349176 -0.188233 0.246195
v 0.349176 -0.187507 0.251705
v 0.349176 -0.187507 0.245894
v 0.349176 -0.186729 0.251807
v 0.349176 -0.186729 0.245792
v 0.349176 -0.185950 0.251705
v 0.349176 -0.185950 0.245894
v 0.349176 -0.185225 0.251404
v 0.349176 -0.185225 0.246195
v 0.349176 -0.184602 0.250926
v 0.349176 -0.184602 0.246673
v 0.349176 -0.184124 0.250304
v 0.349176 -0.184124 0.247296
v 0.349176 -0.183824 0.249578
v 0.349176 -0.183824 0.248021
v 0.349176 -0.183721 0.248800
vn 1 0 0
vn 0 0 -1
vn 0 -0.25881900959356163 -0.9659258358036645
vn 0 0.25881900959356163 -0.9659258358036645
vn 0 0.5000000016387101 -0.866025402838329
vn 0 0.7071067811865476 -0.7071067811865476
vn 0 0.866025402838329 -0.5000000016387101
vn 0 0.9659258358036645 -0.25881900959356163
vn 0 1 0
vn 0 0.9659258358036645 0.25881900959356163
vn 0 0.866025402838329 0.5000000016387101
vn 0 0.7071067811865476 0.7071067811865476
vn 0 0.5000000016387101 0.866025402838329
vn 0 0.25881900959356163 0.9659258358036645
vn 0 0 1
vn 0 -0.25881900959356163 0.9659258358036645
vn 0 -0.5000000016387101 0.866025402838329
vn 0 -0.7071067811865476 0.7071067811865476
vn 0 -0.866025402838329 0.5000000016387101
vn 0 -0.9659258358036645 0.25881900959356163
vn 0 -1 0
vn 0 -0.9659258358036645 -0.25881900959356163
vn 0 -0.866025402838329 -0.5000000016387101
vn 0 -0.7071067811865476 -0.7071067811865476
vn 0 -0.5000000016387101 -0.866025402838329
vn -1 0 0
usemtl material_0_0
f 1//1 2//1 3//1
f 2//1 1//1 4//1
f 2//1 4//1 5//1
f 5//1 4//1 6//1
f 5//1 6//1 7//1
f 7//1 6//1 8//1
f 7//1 8//1 9//1
f 9//1 8//1 10//1
f 10//1 8//1 11//1
f 10//1 11//1 12//1
f 10//1 12//1 13//1
f 13//1 12//1 14//1
f 13//1 14//1 15//1
f 15//1 14//1 16//1
f 15//1 16//1 17//1
f 17//1 16//1 18//1
f 18//1 16//1 19//1
f 18//1 19//1 20//1
f 18//1 20//1 21//1
f 21//1 20//1 22//1
f 21//1 22//1 23//1
f 23//1 22//1 24//1
f 25//2 26//3 27//2
f 26//3 25//2 28//3
f 29//4 27//2 30//4
f 27//2 29//4 25//2
f 31//5 30//4 32//5
f 30//4 31//5 29//4
f 33//6 32//5 34//6
f 32//5 33//6 31//5
f 35//7 33//6 34//6
f 33//6 35//7 36//7
f 37//8 36//7 35//7
f 36//7 37//8 38//8
f 39//9 38//8 37//8
f 38//8 39//9 40//9
f 41//10 40//9 39//9
f 40//9 41//10 42//10
f 43//11 42//10 41//10
f 42//10 43//11 44//11
f 45//12 44//11 43//11
f 44//11 45//12 46//12
f 47//13 45//12 48//13
f 45//12 47//13 46//12
f 49//14 48//13 50//14
f 48//13 49//14 47//13
f 51//15 50//14 52//15
f 50//14 51//15 49//14
f 53//16 52//15 54//16
f 52//15 53//16 51//15
f 55//17 54//16 56//17
f 54//16 55//17 53//16
f 57//18 56//17 58//18
f 56//17 57//18 55//17
f 57//18 59//19 60//19
f 59//19 57//18 58//18
f 60//19 61//20 62//20
f 61//20 60//19 59//19
f 62//20 63//21 64//21
f 63//21 62//20 61//20
f 64//21 65//22 66//22
f 65//22 64//21 63//21
f 66//22 67//23 68//23
f 67//23 66//22 65//22
f 68//23 69//24 70//24
f 69//24 68//23 67//23
f 71//25 69//24 72//25
f 69//24 71//25 70//24
f 28//3 72//25 26//3
f 72//25 28//3 71//25
f 73//26 74//26 75//26
f 74//26 73//26 76//26
f 74//26 76//26 77//26
f 77//26 76//26 78//26
f 77//26 78//26 79//26
f 79//26 78//26 80//26
f 79//26 80//26 81//26
f 81//26 80//26 82//26
f 81//26 82//26 83//26
f 83//26 82//26 84//26
f 83//26 84//26 85//26
f 85//26 84//26 86//26
f 85//26 86//26 87//26
f 87//26 86//26 88//26
f 87//26 88//26 89//26
f 89//26 88//26 90//26
f 89//26 90//26 91//26
f 91//26 90//26 92//26
f 91//26 92//26 93//26
f 93//26 92//26 94//26
f 93//26 94//26 95//26
f 95//26 94//26 96//26
