# SSTK version 0.8.0
# 154
mtllib original-154.mtl
o #ID960
v 0.175409 0.006004 0.045384
v 0.175900 0.008468 0.045773
v 0.175460 0.005995 0.045773
v 0.215277 0.229724 0.045384
v 0.176034 0.009220 0.045773
v 0.215329 0.229719 0.045773
v 0.213436 0.229886 0.044320
v 0.214214 0.229818 0.044320
v 0.213825 0.229852 0.044269
v 0.213073 0.229919 0.044470
v 0.214577 0.229786 0.044470
v 0.212761 0.229946 0.044709
v 0.214888 0.229758 0.044709
v 0.212522 0.229967 0.045021
v 0.215127 0.229737 0.045021
v 0.212372 0.229980 0.045384
v 0.215277 0.229724 0.045384
v 0.212321 0.229985 0.045773
v 0.215329 0.229719 0.045773
v 0.212372 0.229980 0.046162
v 0.215277 0.229724 0.046162
v 0.212522 0.229967 0.046525
v 0.215127 0.229737 0.046525
v 0.212761 0.229946 0.046836
v 0.214888 0.229758 0.046836
v 0.213073 0.229919 0.047075
v 0.214577 0.229786 0.047075
v 0.213436 0.229886 0.047225
v 0.214214 0.229818 0.047225
v 0.213825 0.229852 0.047277
v 0.175409 0.006004 0.046162
v 0.215277 0.229724 0.046162
v 0.174362 0.006191 0.044320
v 0.173596 0.006327 0.044320
v 0.173979 0.006259 0.044269
v 0.174719 0.006127 0.044470
v 0.173239 0.006391 0.044470
v 0.175026 0.006072 0.044709
v 0.172932 0.006446 0.044709
v 0.175261 0.006031 0.045021
v 0.172697 0.006488 0.045021
v 0.175409 0.006004 0.045384
v 0.172549 0.006514 0.045384
v 0.175460 0.005995 0.045773
v 0.172498 0.006523 0.045773
v 0.175409 0.006004 0.046162
v 0.172549 0.006514 0.046162
v 0.175261 0.006031 0.046525
v 0.172697 0.006488 0.046525
v 0.175026 0.006072 0.046836
v 0.172932 0.006446 0.046836
v 0.174719 0.006127 0.047075
v 0.173239 0.006391 0.047075
v 0.174362 0.006191 0.047225
v 0.173596 0.006327 0.047225
v 0.173979 0.006259 0.047277
v 0.175261 0.006031 0.045021
v 0.175811 0.009118 0.045008
v 0.215127 0.229737 0.045021
v 0.175026 0.006072 0.046836
v 0.214577 0.229786 0.047075
v 0.174719 0.006127 0.047075
v 0.214888 0.229758 0.046836
v 0.175811 0.009118 0.046538
v 0.175261 0.006031 0.046525
v 0.215127 0.229737 0.046525
v 0.175026 0.006072 0.044709
v 0.214888 0.229758 0.044709
v 0.214577 0.229786 0.044470
v 0.174719 0.006127 0.044470
v 0.214214 0.229818 0.044320
v 0.174362 0.006191 0.044320
v 0.213825 0.229852 0.044269
v 0.173979 0.006259 0.044269
v 0.213436 0.229886 0.044320
v 0.173596 0.006327 0.044320
v 0.213073 0.229919 0.044470
v 0.173239 0.006391 0.044470
v 0.212761 0.229946 0.044709
v 0.172932 0.006446 0.044709
v 0.172697 0.006488 0.045021
v 0.212522 0.229967 0.045021
v 0.172549 0.006514 0.045384
v 0.212372 0.229980 0.045384
v 0.172498 0.006523 0.045773
v 0.172845 0.008468 0.045773
v 0.212321 0.229985 0.045773
v 0.212372 0.229980 0.046162
v 0.172549 0.006514 0.046162
v 0.212522 0.229967 0.046525
v 0.172697 0.006488 0.046525
v 0.212761 0.229946 0.046836
v 0.172932 0.006446 0.046836
v 0.173239 0.006391 0.047075
v 0.213073 0.229919 0.047075
v 0.173596 0.006327 0.047225
v 0.213436 0.229886 0.047225
v 0.173979 0.006259 0.047277
v 0.213825 0.229852 0.047277
v 0.174362 0.006191 0.047225
v 0.214214 0.229818 0.047225
vn 0.9514378134360288 -0.169550302394358 -0.25694120362847617
vn 0.9844894840555973 -0.17544359715858482 0
vn 0.9519130928024995 -0.16963509871737378 -0.2551183980710269
vn 0.08806397186734367 0.9961148211220169 0
vn 0.9514378134360288 -0.169550302394358 0.25694120362847617
vn 0.9519130928024995 -0.16963509871737378 0.2551183980710269
vn -0.17544359715858482 -0.9844894840555973 0
vn 0.852356720097843 -0.15188790358138696 -0.5004179117994266
vn 0.8521227207129989 -0.15184620369100618 -0.500828912173914
vn 0.8540841572192162 -0.15219579237656472 -0.49736977508691776
vn 0.6942291883175877 -0.12371169791819318 0.7090424880683113
vn 0.4976681941042189 -0.08868831894932624 0.8628213897783179
vn 0.49224471087187377 -0.08772182193745216 0.8660254191273138
vn 0.697783095712594 -0.12434479923598517 0.7054339956655844
vn 0.8521227207129989 -0.15184620369100618 0.500828912173914
vn 0.852356720097843 -0.15188790358138696 0.5004179117994266
vn 0.8540841572192162 -0.15219579237656472 0.49736977508691776
vn 0.6942291883175877 -0.12371169791819318 -0.7090424880683113
vn 0.697783095712594 -0.12434479923598517 -0.7054339956655844
vn 0.4976681941042189 -0.08868831894932624 -0.8628213897783179
vn 0.49224471087187377 -0.08772182193745216 -0.8660254191273138
vn 0.2615425093621405 -0.046608901668405985 -0.9640659345095747
vn 0.2548046081178984 -0.04540816144667259 -0.9659258307737283
vn 0.00721369067300741 -0.00128553594172737 -0.9999731546717725
vn 0 0 -1
vn -0.24807939867153123 0.044209669763256576 -0.9677303948177898
vn -0.2548046081178984 0.04540816144667259 -0.9659258307737283
vn -0.48684099894286487 0.08675883981161032 -0.869171298112666
vn -0.49224471087187377 0.08772182193745216 -0.8660254191273138
vn -0.6925372386312345 0.1234155068843856 -0.7107466396469946
vn -0.6961391822910408 0.12405739684412624 -0.7071067820120381
vn -0.8525928907544401 0.15193869835236917 -0.4999999945779751
vn -0.8507918829939509 0.15161769696939045 -0.5031552899426831
vn -0.9509438279531417 0.16946550498146484 -0.258819007608025
vn -0.9504611983345165 0.16937949970319802 -0.26064169954328015
vn -0.9844894840555973 0.17544359715858482 0
vn -0.9504611983345165 0.16937949970319802 0.26064169954328015
vn -0.9509438279531417 0.16946550498146484 0.258819007608025
vn -0.8507918829939509 0.15161769696939045 0.5031552899426831
vn -0.8525928907544401 0.15193869835236917 0.4999999945779751
vn -0.6925372386312345 0.1234155068843856 0.7107466396469946
vn -0.6961391822910408 0.12405739684412624 0.7071067820120381
vn -0.49224471087187377 0.08772182193745216 0.8660254191273138
vn -0.48684099894286487 0.08675883981161032 0.869171298112666
vn -0.2548046081178984 0.04540816144667259 0.9659258307737283
vn -0.24807939867153123 0.044209669763256576 0.9677303948177898
vn 0 0 1
vn 0.00721369067300741 -0.00128553594172737 0.9999731546717725
vn 0.2548046081178984 -0.04540816144667259 0.9659258307737283
vn 0.2615425093621405 -0.046608901668405985 0.9640659345095747
usemtl material_0_0
f 1//1 2//2 3//2
f 2//2 1//1 4//3
f 2//2 4//3 5//2
f 5//2 4//3 6//2
f 7//4 8//4 9//4
f 8//4 7//4 10//4
f 8//4 10//4 11//4
f 11//4 10//4 12//4
f 11//4 12//4 13//4
f 13//4 12//4 14//4
f 13//4 14//4 15//4
f 15//4 14//4 16//4
f 15//4 16//4 17//4
f 17//4 16//4 18//4
f 17//4 18//4 19//4
f 19//4 18//4 20//4
f 19//4 20//4 21//4
f 21//4 20//4 22//4
f 21//4 22//4 23//4
f 23//4 22//4 24//4
f 23//4 24//4 25//4
f 25//4 24//4 26//4
f 25//4 26//4 27//4
f 27//4 26//4 28//4
f 27//4 28//4 29//4
f 29//4 28//4 30//4
f 2//2 31//5 3//2
f 31//5 2//2 32//6
f 32//6 2//2 5//2
f 32//6 5//2 6//2
f 33//7 34//7 35//7
f 34//7 33//7 36//7
f 34//7 36//7 37//7
f 37//7 36//7 38//7
f 37//7 38//7 39//7
f 39//7 38//7 40//7
f 39//7 40//7 41//7
f 41//7 40//7 42//7
f 41//7 42//7 43//7
f 43//7 42//7 44//7
f 43//7 44//7 45//7
f 45//7 44//7 46//7
f 45//7 46//7 47//7
f 47//7 46//7 48//7
f 47//7 48//7 49//7
f 49//7 48//7 50//7
f 49//7 50//7 51//7
f 51//7 50//7 52//7
f 51//7 52//7 53//7
f 53//7 52//7 54//7
f 53//7 54//7 55//7
f 55//7 54//7 56//7
f 57//8 4//3 1//1
f 4//3 57//8 58//9
f 4//3 58//9 59//10
f 60//11 61//12 62//13
f 61//12 60//11 63//14
f 64//15 60//11 65//16
f 60//11 64//15 63//14
f 63//14 64//15 66//17
f 32//6 65//16 31//5
f 65//16 32//6 64//15
f 64//15 32//6 66//17
f 67//18 58//9 57//8
f 58//9 67//18 68//19
f 58//9 68//19 59//10
f 69//20 67//18 70//21
f 67//18 69//20 68//19
f 71//22 70//21 72//23
f 70//21 71//22 69//20
f 73//24 72//23 74//25
f 72//23 73//24 71//22
f 75//26 74//25 76//27
f 74//25 75//26 73//24
f 77//28 76//27 78//29
f 76//27 77//28 75//26
f 79//30 78//29 80//31
f 78//29 79//30 77//28
f 81//32 79//30 80//31
f 79//30 81//32 82//33
f 83//34 82//33 81//32
f 82//33 83//34 84//35
f 85//36 84//35 83//34
f 84//35 85//36 86//36
f 84//35 86//36 87//36
f 88//37 85//36 89//38
f 85//36 88//37 86//36
f 86//36 88//37 87//36
f 90//39 89//38 91//40
f 89//38 90//39 88//37
f 92//41 91//40 93//42
f 91//40 92//41 90//39
f 94//43 92//41 93//42
f 92//41 94//43 95//44
f 96//45 95//44 94//43
f 95//44 96//45 97//46
f 98//47 97//46 96//45
f 97//46 98//47 99//48
f 100//49 99//48 98//47
f 99//48 100//49 101//50
f 62//13 101//50 100//49
f 101//50 62//13 61//12
