# SSTK version 0.8.0
# 33
mtllib original-33.mtl
o #ID217
v 0.427379 -0.588157 0.286908
v -0.459923 -0.588157 -0.540238
v 0.427379 -0.588157 -0.540238
v -0.459923 -0.588157 0.286908
v -0.459923 -0.588157 0.286908
v 0.427379 -0.588157 0.286908
v -0.459923 -0.588157 -0.540238
v 0.427379 -0.588157 -0.540238
v -0.459923 -0.588157 0.286908
v -0.429845 -0.528001 0.286908
v -0.459923 0.402687 0.286908
v -0.429588 -0.531927 0.286908
v -0.428820 -0.535785 0.286908
v -0.427556 -0.539511 0.286908
v -0.425816 -0.543040 0.286908
v -0.423630 -0.546311 0.286908
v -0.421036 -0.549269 0.286908
v -0.418078 -0.551863 0.286908
v -0.414806 -0.554049 0.286908
v -0.411278 -0.555789 0.286908
v -0.407552 -0.557054 0.286908
v -0.403693 -0.557821 0.286908
v -0.399767 -0.558079 0.286908
v 0.427379 -0.588157 0.286908
v 0.367223 -0.558079 0.286908
v 0.371149 -0.557821 0.286908
v 0.375008 -0.557054 0.286908
v 0.378733 -0.555789 0.286908
v 0.382262 -0.554049 0.286908
v 0.385533 -0.551863 0.286908
v 0.388491 -0.549269 0.286908
v 0.391085 -0.546311 0.286908
v 0.393271 -0.543040 0.286908
v 0.395011 -0.539511 0.286908
v 0.396276 -0.535785 0.286908
v 0.397044 -0.531927 0.286908
v 0.397301 -0.528001 0.286908
v 0.397301 0.342531 0.286908
v -0.399767 0.372609 0.286908
v 0.427379 0.402687 0.286908
v -0.403693 0.372352 0.286908
v -0.407552 0.371584 0.286908
v -0.411278 0.370319 0.286908
v -0.414806 0.368579 0.286908
v -0.418078 0.366393 0.286908
v -0.421036 0.363799 0.286908
v -0.423630 0.360841 0.286908
v -0.425816 0.357570 0.286908
v -0.427556 0.354041 0.286908
v -0.428820 0.350315 0.286908
v -0.429588 0.346457 0.286908
v -0.429845 0.342531 0.286908
v 0.367223 0.372609 0.286908
v 0.371149 0.372352 0.286908
v 0.375008 0.371584 0.286908
v 0.378733 0.370319 0.286908
v 0.382262 0.368579 0.286908
v 0.385533 0.366393 0.286908
v 0.388491 0.363799 0.286908
v 0.391085 0.360841 0.286908
v 0.393271 0.357570 0.286908
v 0.395011 0.354041 0.286908
v 0.396276 0.350315 0.286908
v 0.397044 0.346457 0.286908
v 0.427379 -0.588157 0.286908
v 0.397301 0.342531 0.286908
v 0.427379 0.402687 0.286908
v 0.397044 0.346457 0.286908
v 0.396276 0.350315 0.286908
v 0.395011 0.354041 0.286908
v 0.393271 0.357570 0.286908
v 0.391085 0.360841 0.286908
v 0.388491 0.363799 0.286908
v 0.385533 0.366393 0.286908
v 0.382262 0.368579 0.286908
v 0.378733 0.370319 0.286908
v 0.375008 0.371584 0.286908
v 0.371149 0.372352 0.286908
v 0.367223 0.372609 0.286908
v -0.399767 0.372609 0.286908
v -0.429845 -0.528001 0.286908
v -0.459923 0.402687 0.286908
v -0.429845 0.342531 0.286908
v -0.429588 0.346457 0.286908
v -0.428820 0.350315 0.286908
v -0.427556 0.354041 0.286908
v -0.425816 0.357570 0.286908
v -0.423630 0.360841 0.286908
v -0.421036 0.363799 0.286908
v -0.418078 0.366393 0.286908
v -0.414806 0.368579 0.286908
v -0.411278 0.370319 0.286908
v -0.407552 0.371584 0.286908
v -0.403693 0.372352 0.286908
v 0.397301 -0.528001 0.286908
v 0.397044 -0.531927 0.286908
v 0.396276 -0.535785 0.286908
v 0.395011 -0.539511 0.286908
v 0.393271 -0.543040 0.286908
v 0.391085 -0.546311 0.286908
v 0.388491 -0.549269 0.286908
v 0.385533 -0.551863 0.286908
v 0.382262 -0.554049 0.286908
v 0.378733 -0.555789 0.286908
v 0.375008 -0.557054 0.286908
v 0.371149 -0.557821 0.286908
v 0.367223 -0.558079 0.286908
v -0.399767 -0.558079 0.286908
v -0.459923 -0.588157 0.286908
v -0.403693 -0.557821 0.286908
v -0.407552 -0.557054 0.286908
v -0.411278 -0.555789 0.286908
v -0.414806 -0.554049 0.286908
v -0.418078 -0.551863 0.286908
v -0.421036 -0.549269 0.286908
v -0.423630 -0.546311 0.286908
v -0.425816 -0.543040 0.286908
v -0.427556 -0.539511 0.286908
v -0.428820 -0.535785 0.286908
v -0.429588 -0.531927 0.286908
v -0.459923 0.402687 0.286908
v -0.459923 -0.588157 -0.540238
v -0.459923 -0.588157 0.286908
v -0.459923 0.402687 -0.540238
v -0.459923 0.402687 -0.540238
v -0.459923 0.402687 0.286908
v -0.459923 -0.588157 -0.540238
v -0.459923 -0.588157 0.286908
v 0.427379 0.402687 -0.540238
v -0.459923 -0.588157 -0.540238
v -0.459923 0.402687 -0.540238
v 0.427379 -0.588157 -0.540238
v 0.427379 -0.588157 -0.540238
v 0.427379 0.402687 -0.540238
v -0.459923 -0.588157 -0.540238
v -0.459923 0.402687 -0.540238
v 0.427379 0.402687 -0.540238
v 0.427379 -0.588157 0.286908
v 0.427379 -0.588157 -0.540238
v 0.427379 0.402687 0.286908
v 0.427379 0.402687 0.286908
v 0.427379 0.402687 -0.540238
v 0.427379 -0.588157 0.286908
v 0.427379 -0.588157 -0.540238
v -0.459923 0.402687 0.286908
v 0.427379 0.402687 -0.540238
v -0.459923 0.402687 -0.540238
v 0.427379 0.402687 0.286908
v 0.427379 0.402687 0.286908
v -0.459923 0.402687 0.286908
v 0.427379 0.402687 -0.540238
v -0.459923 0.402687 -0.540238
vt -25.3975 14.48008
vt -24.8475 13.89008
vt -24.8475 14.48008
vt -25.3975 13.89008
vt 13.89008 0.347
vt 13.91008 0.387
vt 13.89008 1.005848
vt 13.91026 0.3843895
vt 13.91077 0.3818236
vt 13.91161 0.3793463
vt 13.91276 0.377
vt 13.91422 0.3748248
vt 13.91594 0.3728579
vt 13.91791 0.3711329
vt 13.92008 0.3696795
vt 13.92243 0.3685224
vt 13.92491 0.3676815
vt 13.92747 0.3671711
vt 13.93008 0.367
vt 14.48008 0.347
vt 14.44008 0.367
vt 14.44269 0.3671711
vt 14.44526 0.3676815
vt 14.44774 0.3685224
vt 14.45008 0.3696795
vt 14.45226 0.3711329
vt 14.45423 0.3728579
vt 14.45595 0.3748248
vt 14.4574 0.377
vt 14.45856 0.3793463
vt 14.4594 0.3818236
vt 14.45991 0.3843895
vt 14.46008 0.387
vt 14.46008 0.9658484
vt 13.93008 0.9858484
vt 14.48008 1.005848
vt 13.92747 0.9856773
vt 13.92491 0.9851669
vt 13.92243 0.984326
vt 13.92008 0.9831689
vt 13.91791 0.9817155
vt 13.91594 0.9799905
vt 13.91422 0.9780236
vt 13.91276 0.9758484
vt 13.91161 0.9735021
vt 13.91077 0.9710248
vt 13.91026 0.9684589
vt 13.91008 0.9658484
vt 14.44008 0.9858484
vt 14.44269 0.9856773
vt 14.44526 0.9851669
vt 14.44774 0.984326
vt 14.45008 0.9831689
vt 14.45226 0.9817155
vt 14.45423 0.9799905
vt 14.45595 0.9780236
vt 14.4574 0.9758484
vt 14.45856 0.9735021
vt 14.4594 0.9710248
vt 14.45991 0.9684589
vt 25.3975 1.005848
vt 24.8475 0.347
vt 25.3975 0.347
vt 24.8475 1.005848
vt -14.48008 1.005848
vt -13.89008 0.347
vt -13.89008 1.005848
vt -14.48008 0.347
vt -24.8475 1.005848
vt -25.3975 0.347
vt -24.8475 0.347
vt -25.3975 1.005848
vt 25.3975 13.89008
vt 24.8475 14.48008
vt 24.8475 13.89008
vt 25.3975 14.48008
vn 0 -1 0
vn 0 1 0
vn 0 0 1
vn 0 0 -1
vn -1 0 0
vn 1 0 0
usemtl material_0_0
f 1/1/1 2/2/1 3/3/1
f 2/2/1 1/1/1 4/4/1
f 5/4/2 6/1/2 7/2/2
f 8/3/2 7/2/2 6/1/2
f 9/5/3 10/6/3 11/7/3
f 10/6/3 9/5/3 12/8/3
f 12/8/3 9/5/3 13/9/3
f 13/9/3 9/5/3 14/10/3
f 14/10/3 9/5/3 15/11/3
f 15/11/3 9/5/3 16/12/3
f 16/12/3 9/5/3 17/13/3
f 17/13/3 9/5/3 18/14/3
f 18/14/3 9/5/3 19/15/3
f 19/15/3 9/5/3 20/16/3
f 20/16/3 9/5/3 21/17/3
f 21/17/3 9/5/3 22/18/3
f 22/18/3 9/5/3 23/19/3
f 23/19/3 9/5/3 24/20/3
f 23/19/3 24/20/3 25/21/3
f 25/21/3 24/20/3 26/22/3
f 26/22/3 24/20/3 27/23/3
f 27/23/3 24/20/3 28/24/3
f 28/24/3 24/20/3 29/25/3
f 29/25/3 24/20/3 30/26/3
f 30/26/3 24/20/3 31/27/3
f 31/27/3 24/20/3 32/28/3
f 32/28/3 24/20/3 33/29/3
f 33/29/3 24/20/3 34/30/3
f 34/30/3 24/20/3 35/31/3
f 35/31/3 24/20/3 36/32/3
f 36/32/3 24/20/3 37/33/3
f 37/33/3 24/20/3 38/34/3
f 11/7/3 39/35/3 40/36/3
f 39/35/3 11/7/3 41/37/3
f 41/37/3 11/7/3 42/38/3
f 42/38/3 11/7/3 43/39/3
f 43/39/3 11/7/3 44/40/3
f 44/40/3 11/7/3 45/41/3
f 45/41/3 11/7/3 46/42/3
f 46/42/3 11/7/3 47/43/3
f 47/43/3 11/7/3 48/44/3
f 48/44/3 11/7/3 49/45/3
f 49/45/3 11/7/3 50/46/3
f 50/46/3 11/7/3 51/47/3
f 51/47/3 11/7/3 52/48/3
f 52/48/3 11/7/3 10/6/3
f 40/36/3 39/35/3 53/49/3
f 40/36/3 53/49/3 54/50/3
f 40/36/3 54/50/3 55/51/3
f 40/36/3 55/51/3 56/52/3
f 40/36/3 56/52/3 57/53/3
f 40/36/3 57/53/3 58/54/3
f 40/36/3 58/54/3 59/55/3
f 40/36/3 59/55/3 60/56/3
f 40/36/3 60/56/3 61/57/3
f 40/36/3 61/57/3 62/58/3
f 40/36/3 62/58/3 63/59/3
f 40/36/3 63/59/3 64/60/3
f 40/36/3 64/60/3 38/34/3
f 40/36/3 38/34/3 24/20/3
f 65/20/4 66/34/4 67/36/4
f 66/34/4 68/60/4 67/36/4
f 68/60/4 69/59/4 67/36/4
f 69/59/4 70/58/4 67/36/4
f 70/58/4 71/57/4 67/36/4
f 71/57/4 72/56/4 67/36/4
f 72/56/4 73/55/4 67/36/4
f 73/55/4 74/54/4 67/36/4
f 74/54/4 75/53/4 67/36/4
f 75/53/4 76/52/4 67/36/4
f 76/52/4 77/51/4 67/36/4
f 77/51/4 78/50/4 67/36/4
f 78/50/4 79/49/4 67/36/4
f 79/49/4 80/35/4 67/36/4
f 81/6/4 82/7/4 83/48/4
f 83/48/4 82/7/4 84/47/4
f 84/47/4 82/7/4 85/46/4
f 85/46/4 82/7/4 86/45/4
f 86/45/4 82/7/4 87/44/4
f 87/44/4 82/7/4 88/43/4
f 88/43/4 82/7/4 89/42/4
f 89/42/4 82/7/4 90/41/4
f 90/41/4 82/7/4 91/40/4
f 91/40/4 82/7/4 92/39/4
f 92/39/4 82/7/4 93/38/4
f 93/38/4 82/7/4 94/37/4
f 94/37/4 82/7/4 80/35/4
f 67/36/4 80/35/4 82/7/4
f 66/34/4 65/20/4 95/33/4
f 95/33/4 65/20/4 96/32/4
f 96/32/4 65/20/4 97/31/4
f 97/31/4 65/20/4 98/30/4
f 98/30/4 65/20/4 99/29/4
f 99/29/4 65/20/4 100/28/4
f 100/28/4 65/20/4 101/27/4
f 101/27/4 65/20/4 102/26/4
f 102/26/4 65/20/4 103/25/4
f 103/25/4 65/20/4 104/24/4
f 104/24/4 65/20/4 105/23/4
f 105/23/4 65/20/4 106/22/4
f 106/22/4 65/20/4 107/21/4
f 107/21/4 65/20/4 108/19/4
f 65/20/4 109/5/4 108/19/4
f 108/19/4 109/5/4 110/18/4
f 110/18/4 109/5/4 111/17/4
f 111/17/4 109/5/4 112/16/4
f 112/16/4 109/5/4 113/15/4
f 113/15/4 109/5/4 114/14/4
f 114/14/4 109/5/4 115/13/4
f 115/13/4 109/5/4 116/12/4
f 116/12/4 109/5/4 117/11/4
f 117/11/4 109/5/4 118/10/4
f 118/10/4 109/5/4 119/9/4
f 119/9/4 109/5/4 120/8/4
f 120/8/4 109/5/4 81/6/4
f 82/7/4 81/6/4 109/5/4
f 121/61/5 122/62/5 123/63/5
f 122/62/5 121/61/5 124/64/5
f 125/64/6 126/61/6 127/62/6
f 128/63/6 127/62/6 126/61/6
f 129/65/4 130/66/4 131/67/4
f 130/66/4 129/65/4 132/68/4
f 133/68/3 134/65/3 135/66/3
f 136/67/3 135/66/3 134/65/3
f 137/69/6 138/70/6 139/71/6
f 138/70/6 137/69/6 140/72/6
f 141/72/5 142/69/5 143/70/5
f 144/71/5 143/70/5 142/69/5
f 145/73/2 146/74/2 147/75/2
f 146/74/2 145/73/2 148/76/2
f 149/76/1 150/73/1 151/74/1
f 152/75/1 151/74/1 150/73/1
