# SSTK version 0.8.0
# 18
mtllib original-18.mtl
o #ID116
v 0.346168 -0.588162 0.274026
v 0.345443 -0.591889 0.273725
v 0.345443 -0.588162 0.273725
v 0.346168 -0.591889 0.274026
v 0.346168 -0.591889 0.274026
v 0.346168 -0.588162 0.274026
v 0.345443 -0.591889 0.273725
v 0.345443 -0.588162 0.273725
v 0.344664 -0.591889 0.273623
v 0.344664 -0.588162 0.273623
v 0.344664 -0.591889 0.273623
v 0.344664 -0.588162 0.273623
v 0.346791 -0.588162 0.274504
v 0.346791 -0.591889 0.274504
v 0.346791 -0.591889 0.274504
v 0.346791 -0.588162 0.274504
v 0.343886 -0.591889 0.273725
v 0.343886 -0.588162 0.273725
v 0.343886 -0.591889 0.273725
v 0.343886 -0.588162 0.273725
v 0.347269 -0.591889 0.275126
v 0.347269 -0.588162 0.275126
v 0.347269 -0.588162 0.275126
v 0.347269 -0.591889 0.275126
v 0.343160 -0.591889 0.274026
v 0.343160 -0.588162 0.274026
v 0.343160 -0.591889 0.274026
v 0.343160 -0.588162 0.274026
v 0.347570 -0.591889 0.275852
v 0.347570 -0.588162 0.275852
v 0.347570 -0.588162 0.275852
v 0.347570 -0.591889 0.275852
v 0.342538 -0.591889 0.274504
v 0.342538 -0.588162 0.274504
v 0.342538 -0.591889 0.274504
v 0.342538 -0.588162 0.274504
v 0.347672 -0.591889 0.276630
v 0.347672 -0.588162 0.276630
v 0.347672 -0.588162 0.276630
v 0.347672 -0.591889 0.276630
v 0.342060 -0.591889 0.275126
v 0.342060 -0.588162 0.275126
v 0.342060 -0.588162 0.275126
v 0.342060 -0.591889 0.275126
v 0.347570 -0.591889 0.277409
v 0.347570 -0.588162 0.277409
v 0.347570 -0.588162 0.277409
v 0.347570 -0.591889 0.277409
v 0.341759 -0.591889 0.275852
v 0.341759 -0.588162 0.275852
v 0.341759 -0.588162 0.275852
v 0.341759 -0.591889 0.275852
v 0.347269 -0.591889 0.278134
v 0.347269 -0.588162 0.278134
v 0.347269 -0.588162 0.278134
v 0.347269 -0.591889 0.278134
v 0.341657 -0.591889 0.276630
v 0.341657 -0.588162 0.276630
v 0.341657 -0.588162 0.276630
v 0.341657 -0.591889 0.276630
v 0.346791 -0.591889 0.278757
v 0.346791 -0.588162 0.278757
v 0.346791 -0.588162 0.278757
v 0.346791 -0.591889 0.278757
v 0.341759 -0.591889 0.277409
v 0.341759 -0.588162 0.277409
v 0.341759 -0.588162 0.277409
v 0.341759 -0.591889 0.277409
v 0.346168 -0.588162 0.279235
v 0.346168 -0.591889 0.279235
v 0.346168 -0.588162 0.279235
v 0.346168 -0.591889 0.279235
v 0.342060 -0.591889 0.278134
v 0.342060 -0.588162 0.278134
v 0.342060 -0.588162 0.278134
v 0.342060 -0.591889 0.278134
v 0.345443 -0.588162 0.279536
v 0.345443 -0.591889 0.279536
v 0.345443 -0.588162 0.279536
v 0.345443 -0.591889 0.279536
v 0.342538 -0.591889 0.278757
v 0.342538 -0.588162 0.278757
v 0.342538 -0.588162 0.278757
v 0.342538 -0.591889 0.278757
v 0.344664 -0.588162 0.279638
v 0.344664 -0.591889 0.279638
v 0.344664 -0.588162 0.279638
v 0.344664 -0.591889 0.279638
v 0.343160 -0.591889 0.279235
v 0.343160 -0.588162 0.279235
v 0.343160 -0.588162 0.279235
v 0.343160 -0.591889 0.279235
v 0.343886 -0.588162 0.279536
v 0.343886 -0.591889 0.279536
v 0.343886 -0.588162 0.279536
v 0.343886 -0.591889 0.279536
vt -0.0483809 0.002478612
vt -0.04785879 5.708379e-15
vt -0.04785879 0.002478612
vt -0.0483809 5.753498e-15
vt -0.04710854 0.002478612
vt -0.04658643 2.299802e-15
vt -0.04658643 0.002478612
vt -0.04710854 2.299802e-15
vt -0.04637396 0.002478612
vt -0.04585186 8.386664e-15
vt -0.04585186 0.002478612
vt -0.04637396 8.476903e-15
vt -0.0426436 0.002478612
vt -0.0421215 -9.633606e-16
vt -0.0421215 0.002478612
vt -0.0426436 -9.633606e-16
vt -0.04070241 0.002478612
vt -0.04122452 9.749973e-15
vt -0.04070241 9.614615e-15
vt -0.04122452 0.002478612
vt -0.03529037 0.002478612
vt -0.03476826 -3.161628e-15
vt -0.03476826 0.002478612
vt -0.03529037 -3.206747e-15
vt -0.03276137 0.002478612
vt -0.03328347 9.20225e-15
vt -0.03276137 9.066892e-15
vt -0.03328347 0.002478612
vt -0.02554994 0.002478612
vt -0.02502784 -3.701386e-15
vt -0.02502784 0.002478612
vt -0.02554994 -3.791625e-15
vt -0.0225699 0.002478612
vt -0.02309201 6.99167e-15
vt -0.0225699 6.856312e-15
vt -0.02309201 0.002478612
vt -0.01356401 -2.428316e-15
vt -0.01408612 0.002478612
vt -0.01408612 -2.563674e-15
vt -0.01356401 0.002478612
vt -0.01082255 0.002478612
vt -0.01134465 3.718837e-15
vt -0.01082255 3.583478e-15
vt -0.01134465 0.002478612
vt -0.001158036 2.871239e-16
vt -0.001680141 0.002478612
vt -0.001680141 1.517655e-16
vt -0.001158036 0.002478612
vt 0.001680141 0.002478612
vt 0.001158036 2.679942e-16
vt 0.001680141 1.326358e-16
vt 0.001158036 0.002478612
vt 0.01134465 3.728508e-15
vt 0.01082255 0.002478612
vt 0.01082255 3.593149e-15
vt 0.01134465 0.002478612
vt 0.01408612 0.002478612
vt 0.01356401 -2.427927e-15
vt 0.01408612 -2.563285e-15
vt 0.01356401 0.002478612
vt 0.02309201 6.981999e-15
vt 0.0225699 0.002478612
vt 0.0225699 6.846641e-15
vt 0.02309201 0.002478612
vt 0.02554994 -3.770741e-15
vt 0.02502784 0.002478612
vt 0.02502784 -3.680502e-15
vt 0.02554994 0.002478612
vt 0.03328347 9.18312e-15
vt 0.03276137 0.002478612
vt 0.03276137 9.047762e-15
vt 0.03328347 0.002478612
vt 0.03529037 -3.195535e-15
vt 0.03476826 0.002478612
vt 0.03476826 -3.150415e-15
vt 0.03529037 0.002478612
vt 0.04122452 9.750362e-15
vt 0.04070241 0.002478612
vt 0.04070241 9.615003e-15
vt 0.04122452 0.002478612
vt 0.0426436 -9.821015e-16
vt 0.0421215 0.002478612
vt 0.0421215 -9.821015e-16
vt 0.0426436 0.002478612
vt 0.04637396 8.497786e-15
vt 0.04585186 0.002478612
vt 0.04585186 8.407547e-15
vt 0.04637396 0.002478612
vt 0.04710854 2.281061e-15
vt 0.04658643 0.002478612
vt 0.04658643 2.281061e-15
vt 0.04710854 0.002478612
vt 0.0483809 5.764711e-15
vt 0.04785879 0.002478612
vt 0.04785879 5.719591e-15
vt 0.0483809 0.002478612
vn 0.5000000016387101 0 -0.866025402838329
vn 0.25881900959356163 0 -0.9659258358036645
vn -0.5000000016387101 0 0.866025402838329
vn -0.25881900959356163 0 0.9659258358036645
vn 0 0 -1
vn 0 0 1
vn 0.7071067811865476 0 -0.7071067811865476
vn -0.7071067811865476 0 0.7071067811865476
vn -0.25881900959356163 0 -0.9659258358036645
vn 0.25881900959356163 0 0.9659258358036645
vn 0.866025402838329 0 -0.5000000016387101
vn -0.866025402838329 0 0.5000000016387101
vn -0.5000000016387101 0 -0.866025402838329
vn 0.5000000016387101 0 0.866025402838329
vn 0.9659258358036645 0 -0.25881900959356163
vn -0.9659258358036645 0 0.25881900959356163
vn -0.7071067811865476 0 -0.7071067811865476
vn 0.7071067811865476 0 0.7071067811865476
vn 1 0 0
vn -1 0 0
vn -0.866025402838329 0 -0.5000000016387101
vn 0.866025402838329 0 0.5000000016387101
vn 0.9659258358036645 0 0.25881900959356163
vn -0.9659258358036645 0 -0.25881900959356163
usemtl material_0_0
f 1/1/1 2/2/2 3/3/2
f 2/2/2 1/1/1 4/4/1
f 5/4/3 6/1/3 7/2/4
f 8/3/4 7/2/4 6/1/3
f 3/5/2 9/6/5 10/7/5
f 9/6/5 3/5/2 2/8/2
f 7/8/4 8/5/4 11/6/6
f 12/7/6 11/6/6 8/5/4
f 13/9/7 4/10/1 1/11/1
f 4/10/1 13/9/7 14/12/7
f 15/12/8 16/9/8 5/10/3
f 6/11/3 5/10/3 16/9/8
f 10/13/5 17/14/9 18/15/9
f 17/14/9 10/13/5 9/16/5
f 11/16/6 12/13/6 19/14/10
f 20/15/10 19/14/10 12/13/6
f 13/17/7 21/18/11 14/19/7
f 21/18/11 13/17/7 22/20/11
f 23/20/12 16/17/8 24/18/12
f 15/19/8 24/18/12 16/17/8
f 18/21/9 25/22/13 26/23/13
f 25/22/13 18/21/9 17/24/9
f 19/24/10 20/21/10 27/22/14
f 28/23/14 27/22/14 20/21/10
f 22/25/11 29/26/15 21/27/11
f 29/26/15 22/25/11 30/28/15
f 31/28/16 23/25/12 32/26/16
f 24/27/12 32/26/16 23/25/12
f 26/29/13 33/30/17 34/31/17
f 33/30/17 26/29/13 25/32/13
f 27/32/14 28/29/14 35/30/18
f 36/31/18 35/30/18 28/29/14
f 30/33/15 37/34/19 29/35/15
f 37/34/19 30/33/15 38/36/19
f 39/36/20 31/33/16 40/34/20
f 32/35/16 40/34/20 31/33/16
f 41/37/21 34/38/17 33/39/17
f 34/38/17 41/37/21 42/40/21
f 43/40/22 44/37/22 36/38/18
f 35/39/18 36/38/18 44/37/22
f 38/41/19 45/42/23 37/43/19
f 45/42/23 38/41/19 46/44/23
f 47/44/24 39/41/20 48/42/24
f 40/43/20 48/42/24 39/41/20
f 49/45/24 42/46/21 41/47/21
f 42/46/21 49/45/24 50/48/24
f 51/48/23 52/45/23 43/46/22
f 44/47/22 43/46/22 52/45/23
f 46/49/23 53/50/22 45/51/23
f 53/50/22 46/49/23 54/52/22
f 55/52/21 47/49/24 56/50/21
f 48/51/24 56/50/21 47/49/24
f 57/53/20 50/54/24 49/55/24
f 50/54/24 57/53/20 58/56/20
f 59/56/19 60/53/19 51/54/23
f 52/55/23 51/54/23 60/53/19
f 54/57/22 61/58/18 53/59/22
f 61/58/18 54/57/22 62/60/18
f 63/60/17 55/57/21 64/58/17
f 56/59/21 64/58/17 55/57/21
f 65/61/16 58/62/20 57/63/20
f 58/62/20 65/61/16 66/64/16
f 67/64/15 68/61/15 59/62/19
f 60/63/19 59/62/19 68/61/15
f 61/65/18 69/66/14 70/67/14
f 69/66/14 61/65/18 62/68/18
f 63/68/17 64/65/17 71/66/13
f 72/67/13 71/66/13 64/65/17
f 73/69/12 66/70/16 65/71/16
f 66/70/16 73/69/12 74/72/12
f 75/72/11 76/69/11 67/70/15
f 68/71/15 67/70/15 76/69/11
f 70/73/14 77/74/10 78/75/10
f 77/74/10 70/73/14 69/76/14
f 71/76/13 72/73/13 79/74/9
f 80/75/9 79/74/9 72/73/13
f 81/77/8 74/78/12 73/79/12
f 74/78/12 81/77/8 82/80/8
f 83/80/7 84/77/7 75/78/11
f 76/79/11 75/78/11 84/77/7
f 78/81/10 85/82/6 86/83/6
f 85/82/6 78/81/10 77/84/10
f 79/84/9 80/81/9 87/82/5
f 88/83/5 87/82/5 80/81/9
f 89/85/3 82/86/8 81/87/8
f 82/86/8 89/85/3 90/88/3
f 91/88/1 92/85/1 83/86/7
f 84/87/7 83/86/7 92/85/1
f 86/89/6 93/90/4 94/91/4
f 93/90/4 86/89/6 85/92/6
f 87/92/5 88/89/5 95/90/2
f 96/91/2 95/90/2 88/89/5
f 94/93/4 90/94/3 89/95/3
f 90/94/3 94/93/4 93/96/4
f 95/96/2 96/93/2 91/94/1
f 92/95/1 91/94/1 96/93/2
