# SSTK version 0.8.0
# 42
mtllib original-42.mtl
o #ID299
v 0.427379 0.541046 0.326656
v -0.459923 0.541046 0.286908
v -0.459923 0.541046 0.326656
v 0.427379 0.541046 0.286908
v 0.427379 0.541046 0.286908
v 0.427379 0.541046 0.326656
v -0.459923 0.541046 0.286908
v -0.459923 0.541046 0.326656
v -0.459923 0.541046 0.286908
v 0.427379 0.410206 0.286908
v -0.459923 0.410206 0.286908
v 0.427379 0.541046 0.286908
v 0.427379 0.541046 0.286908
v -0.459923 0.541046 0.286908
v 0.427379 0.410206 0.286908
v -0.459923 0.410206 0.286908
v -0.459923 0.541046 0.286908
v -0.459923 0.410206 0.326656
v -0.459923 0.541046 0.326656
v -0.459923 0.410206 0.286908
v -0.459923 0.410206 0.286908
v -0.459923 0.541046 0.286908
v -0.459923 0.410206 0.326656
v -0.459923 0.541046 0.326656
v 0.427379 0.410206 0.326656
v 0.371734 0.428253 0.326656
v -0.459923 0.410206 0.326656
v 0.427379 0.541046 0.326656
v -0.309533 0.415470 0.326656
v -0.293964 0.417520 0.326656
v -0.279455 0.423529 0.326656
v 0.371734 0.522999 0.326656
v 0.242399 0.522999 0.326656
v -0.279455 0.527723 0.326656
v -0.293964 0.533732 0.326656
v -0.309533 0.535782 0.326656
v -0.352070 0.433089 0.326656
v -0.459923 0.541046 0.326656
v -0.339611 0.423529 0.326656
v -0.325103 0.417520 0.326656
v -0.361630 0.445548 0.326656
v -0.367639 0.460057 0.326656
v -0.369689 0.475626 0.326656
v -0.367639 0.491196 0.326656
v -0.361630 0.505704 0.326656
v -0.352070 0.518163 0.326656
v -0.339611 0.527723 0.326656
v -0.325103 0.533732 0.326656
v 0.242399 0.428253 0.326656
v -0.266996 0.433089 0.326656
v 0.021758 0.438029 0.326656
v 0.022740 0.438093 0.326656
v 0.023704 0.438285 0.326656
v 0.024635 0.438601 0.326656
v 0.025518 0.439036 0.326656
v 0.026336 0.439582 0.326656
v 0.027075 0.440231 0.326656
v 0.027724 0.440970 0.326656
v 0.028270 0.441788 0.326656
v 0.028705 0.442670 0.326656
v 0.029021 0.443602 0.326656
v 0.029213 0.444567 0.326656
v 0.029277 0.445548 0.326656
v 0.029277 0.505704 0.326656
v 0.029213 0.506686 0.326656
v 0.029021 0.507650 0.326656
v 0.028705 0.508582 0.326656
v 0.028270 0.509464 0.326656
v 0.027724 0.510282 0.326656
v 0.027075 0.511021 0.326656
v 0.026336 0.511670 0.326656
v 0.025518 0.512216 0.326656
v 0.024635 0.512651 0.326656
v 0.023704 0.512967 0.326656
v 0.022740 0.513159 0.326656
v 0.021758 0.513224 0.326656
v -0.166230 0.513224 0.326656
v -0.266996 0.518163 0.326656
v -0.167211 0.438093 0.326656
v -0.257436 0.445548 0.326656
v -0.166230 0.438029 0.326656
v -0.168176 0.438285 0.326656
v -0.169107 0.438601 0.326656
v -0.169989 0.439036 0.326656
v -0.170807 0.439582 0.326656
v -0.171547 0.440231 0.326656
v -0.172195 0.440970 0.326656
v -0.172742 0.441788 0.326656
v -0.173177 0.442670 0.326656
v -0.173493 0.443602 0.326656
v -0.173685 0.444567 0.326656
v -0.173749 0.445548 0.326656
v -0.251427 0.460057 0.326656
v -0.173749 0.505704 0.326656
v -0.249377 0.475626 0.326656
v -0.251427 0.491196 0.326656
v -0.257436 0.505704 0.326656
v -0.173685 0.506686 0.326656
v -0.173493 0.507650 0.326656
v -0.173177 0.508582 0.326656
v -0.172742 0.509464 0.326656
v -0.172195 0.510282 0.326656
v -0.171547 0.511021 0.326656
v -0.170807 0.511670 0.326656
v -0.169989 0.512216 0.326656
v -0.169107 0.512651 0.326656
v -0.168176 0.512967 0.326656
v -0.167211 0.513159 0.326656
v -0.166230 0.513224 0.326656
v -0.167211 0.513159 0.326656
v -0.266996 0.518163 0.326656
v -0.168176 0.512967 0.326656
v -0.169107 0.512651 0.326656
v -0.169989 0.512216 0.326656
v -0.170807 0.511670 0.326656
v -0.171547 0.511021 0.326656
v -0.172195 0.510282 0.326656
v -0.172742 0.509464 0.326656
v -0.173177 0.508582 0.326656
v -0.173493 0.507650 0.326656
v -0.173685 0.506686 0.326656
v -0.173749 0.505704 0.326656
v -0.257436 0.505704 0.326656
v -0.251427 0.491196 0.326656
v -0.249377 0.475626 0.326656
v -0.251427 0.460057 0.326656
v -0.173749 0.445548 0.326656
v -0.257436 0.445548 0.326656
v -0.173685 0.444567 0.326656
v -0.173493 0.443602 0.326656
v -0.173177 0.442670 0.326656
v -0.172742 0.441788 0.326656
v -0.172195 0.440970 0.326656
v -0.171547 0.440231 0.326656
v -0.170807 0.439582 0.326656
v -0.169989 0.439036 0.326656
v -0.169107 0.438601 0.326656
v -0.168176 0.438285 0.326656
v -0.167211 0.438093 0.326656
v 0.021758 0.438029 0.326656
v -0.266996 0.433089 0.326656
v -0.166230 0.438029 0.326656
v -0.279455 0.527723 0.326656
v 0.242399 0.522999 0.326656
v 0.021758 0.513224 0.326656
v 0.022740 0.513159 0.326656
v 0.023704 0.512967 0.326656
v 0.024635 0.512651 0.326656
v 0.025518 0.512216 0.326656
v 0.026336 0.511670 0.326656
v 0.027075 0.511021 0.326656
v 0.027724 0.510282 0.326656
v 0.028270 0.509464 0.326656
v 0.028705 0.508582 0.326656
v 0.029021 0.507650 0.326656
v 0.029213 0.506686 0.326656
v 0.029277 0.505704 0.326656
v 0.029277 0.445548 0.326656
v 0.029213 0.444567 0.326656
v 0.029021 0.443602 0.326656
v 0.028705 0.442670 0.326656
v 0.028270 0.441788 0.326656
v 0.027724 0.440970 0.326656
v 0.027075 0.440231 0.326656
v 0.026336 0.439582 0.326656
v 0.025518 0.439036 0.326656
v 0.024635 0.438601 0.326656
v 0.242399 0.428253 0.326656
v 0.023704 0.438285 0.326656
v 0.022740 0.438093 0.326656
v 0.371734 0.428253 0.326656
v -0.279455 0.423529 0.326656
v 0.427379 0.541046 0.326656
v -0.309533 0.535782 0.326656
v -0.459923 0.541046 0.326656
v -0.325103 0.533732 0.326656
v -0.339611 0.527723 0.326656
v -0.352070 0.518163 0.326656
v -0.361630 0.505704 0.326656
v -0.367639 0.491196 0.326656
v -0.369689 0.475626 0.326656
v -0.367639 0.460057 0.326656
v -0.361630 0.445548 0.326656
v -0.352070 0.433089 0.326656
v -0.309533 0.415470 0.326656
v -0.459923 0.410206 0.326656
v -0.325103 0.417520 0.326656
v -0.339611 0.423529 0.326656
v -0.293964 0.533732 0.326656
v 0.371734 0.522999 0.326656
v -0.293964 0.417520 0.326656
v 0.427379 0.410206 0.326656
v 0.427379 0.410206 0.286908
v 0.427379 0.541046 0.326656
v 0.427379 0.410206 0.326656
v 0.427379 0.541046 0.286908
v 0.427379 0.541046 0.286908
v 0.427379 0.410206 0.286908
v 0.427379 0.541046 0.326656
v 0.427379 0.410206 0.326656
v 0.427379 0.410206 0.286908
v -0.459923 0.410206 0.326656
v -0.459923 0.410206 0.286908
v 0.427379 0.410206 0.326656
v 0.427379 0.410206 0.326656
v 0.427379 0.410206 0.286908
v -0.459923 0.410206 0.326656
v -0.459923 0.410206 0.286908
vt 0.59 0
vt 0 0.02642992
vt 0 0
vt 0.59 0.02642992
vt 0 0.112
vt -0.59 0.025
vt 0 0.025
vt -0.59 0.112
vt -0.02642992 0.112
vt -0.02642992 0.025
vt 0.59 0.025
vt 0.553 0.037
vt 0.59 0.112
vt 0.1 0.0285
vt 0.1103528 0.02986297
vt 0.12 0.03385898
vt 0.553 0.1
vt 0.467 0.1
vt 0.12 0.103141
vt 0.1103528 0.107137
vt 0.1 0.1085
vt 0.07171573 0.04021573
vt 0.08 0.03385898
vt 0.08964724 0.02986297
vt 0.06535898 0.0485
vt 0.06136297 0.05814724
vt 0.06 0.0685
vt 0.06136297 0.07885276
vt 0.06535898 0.0885
vt 0.07171573 0.09678427
vt 0.08 0.103141
vt 0.08964724 0.107137
vt 0.467 0.037
vt 0.1282843 0.04021573
vt 0.3202877 0.0435
vt 0.3209403 0.04354278
vt 0.3215818 0.04367037
vt 0.3222011 0.0438806
vt 0.3227877 0.04416987
vt 0.3233315 0.04453323
vt 0.3238232 0.04496447
vt 0.3242545 0.04545619
vt 0.3246178 0.046
vt 0.3249071 0.04658658
vt 0.3251173 0.0472059
vt 0.3252449 0.04784737
vt 0.3252877 0.0485
vt 0.3252877 0.0885
vt 0.3252449 0.08915263
vt 0.3251173 0.0897941
vt 0.3249071 0.09041342
vt 0.3246178 0.091
vt 0.3242545 0.09154381
vt 0.3238232 0.09203553
vt 0.3233315 0.09246677
vt 0.3227877 0.09283013
vt 0.3222011 0.0931194
vt 0.3215818 0.09332963
vt 0.3209403 0.09345722
vt 0.3202877 0.0935
vt 0.1952877 0.0935
vt 0.1282843 0.09678427
vt 0.1946351 0.04354278
vt 0.134641 0.0485
vt 0.1952877 0.0435
vt 0.1939936 0.04367037
vt 0.1933743 0.0438806
vt 0.1927877 0.04416987
vt 0.1922439 0.04453323
vt 0.1917522 0.04496447
vt 0.1913209 0.04545619
vt 0.1909576 0.046
vt 0.1906683 0.04658658
vt 0.1904581 0.0472059
vt 0.1903305 0.04784737
vt 0.1902877 0.0485
vt 0.138637 0.05814724
vt 0.1902877 0.0885
vt 0.14 0.0685
vt 0.138637 0.07885276
vt 0.134641 0.0885
vt 0.1903305 0.08915263
vt 0.1904581 0.0897941
vt 0.1906683 0.09041342
vt 0.1909576 0.091
vt 0.1913209 0.09154381
vt 0.1917522 0.09203553
vt 0.1922439 0.09246677
vt 0.1927877 0.09283013
vt 0.1933743 0.0931194
vt 0.1939936 0.09332963
vt 0.1946351 0.09345722
vt 0.02642992 0.025
vt 0.02642992 0.112
vt -0.59 0.02642992
vt -0.59 0
vn 0 1 0
vn 0 -1 0
vn 0 0 -1
vn 0 0 1
vn -1 0 0
vn 1 0 0
usemtl material_0_0
f 1/1/1 2/2/1 3/3/1
f 2/2/1 1/1/1 4/4/1
f 5/4/2 6/1/2 7/2/2
f 8/3/2 7/2/2 6/1/2
f 9/5/3 10/6/3 11/7/3
f 10/6/3 9/5/3 12/8/3
f 13/8/4 14/5/4 15/6/4
f 16/7/4 15/6/4 14/5/4
f 17/9/5 18/7/5 19/5/5
f 18/7/5 17/9/5 20/10/5
f 21/10/6 22/9/6 23/7/6
f 24/5/6 23/7/6 22/9/6
f 25/11/4 26/12/4 27/7/4
f 26/12/4 25/11/4 28/13/4
f 27/7/4 26/12/4 29/14/4
f 29/14/4 26/12/4 30/15/4
f 30/15/4 26/12/4 31/16/4
f 26/12/4 28/13/4 32/17/4
f 32/17/4 28/13/4 33/18/4
f 33/18/4 28/13/4 34/19/4
f 34/19/4 28/13/4 35/20/4
f 35/20/4 28/13/4 36/21/4
f 27/7/4 37/22/4 38/5/4
f 37/22/4 27/7/4 39/23/4
f 39/23/4 27/7/4 40/24/4
f 40/24/4 27/7/4 29/14/4
f 38/5/4 37/22/4 41/25/4
f 38/5/4 41/25/4 42/26/4
f 38/5/4 42/26/4 43/27/4
f 38/5/4 43/27/4 44/28/4
f 38/5/4 44/28/4 45/29/4
f 38/5/4 45/29/4 46/30/4
f 38/5/4 46/30/4 47/31/4
f 38/5/4 47/31/4 48/32/4
f 38/5/4 48/32/4 36/21/4
f 38/5/4 36/21/4 28/13/4
f 31/16/4 49/33/4 50/34/4
f 49/33/4 31/16/4 26/12/4
f 50/34/4 49/33/4 51/35/4
f 51/35/4 49/33/4 52/36/4
f 52/36/4 49/33/4 53/37/4
f 53/37/4 49/33/4 54/38/4
f 54/38/4 49/33/4 33/18/4
f 54/38/4 33/18/4 55/39/4
f 55/39/4 33/18/4 56/40/4
f 56/40/4 33/18/4 57/41/4
f 57/41/4 33/18/4 58/42/4
f 58/42/4 33/18/4 59/43/4
f 59/43/4 33/18/4 60/44/4
f 60/44/4 33/18/4 61/45/4
f 61/45/4 33/18/4 62/46/4
f 62/46/4 33/18/4 63/47/4
f 63/47/4 33/18/4 64/48/4
f 64/48/4 33/18/4 65/49/4
f 65/49/4 33/18/4 66/50/4
f 66/50/4 33/18/4 67/51/4
f 67/51/4 33/18/4 68/52/4
f 68/52/4 33/18/4 69/53/4
f 69/53/4 33/18/4 70/54/4
f 70/54/4 33/18/4 71/55/4
f 71/55/4 33/18/4 72/56/4
f 72/56/4 33/18/4 73/57/4
f 73/57/4 33/18/4 74/58/4
f 74/58/4 33/18/4 75/59/4
f 75/59/4 33/18/4 76/60/4
f 76/60/4 33/18/4 77/61/4
f 77/61/4 33/18/4 78/62/4
f 78/62/4 33/18/4 34/19/4
f 50/34/4 79/63/4 80/64/4
f 79/63/4 50/34/4 81/65/4
f 81/65/4 50/34/4 51/35/4
f 80/64/4 79/63/4 82/66/4
f 80/64/4 82/66/4 83/67/4
f 80/64/4 83/67/4 84/68/4
f 80/64/4 84/68/4 85/69/4
f 80/64/4 85/69/4 86/70/4
f 80/64/4 86/70/4 87/71/4
f 80/64/4 87/71/4 88/72/4
f 80/64/4 88/72/4 89/73/4
f 80/64/4 89/73/4 90/74/4
f 80/64/4 90/74/4 91/75/4
f 80/64/4 91/75/4 92/76/4
f 80/64/4 92/76/4 93/77/4
f 93/77/4 92/76/4 94/78/4
f 93/77/4 94/78/4 95/79/4
f 95/79/4 94/78/4 96/80/4
f 96/80/4 94/78/4 97/81/4
f 97/81/4 94/78/4 78/62/4
f 78/62/4 94/78/4 98/82/4
f 78/62/4 98/82/4 99/83/4
f 78/62/4 99/83/4 100/84/4
f 78/62/4 100/84/4 101/85/4
f 78/62/4 101/85/4 102/86/4
f 78/62/4 102/86/4 103/87/4
f 78/62/4 103/87/4 104/88/4
f 78/62/4 104/88/4 105/89/4
f 78/62/4 105/89/4 106/90/4
f 78/62/4 106/90/4 107/91/4
f 78/62/4 107/91/4 108/92/4
f 78/62/4 108/92/4 77/61/4
f 109/61/3 110/92/3 111/62/3
f 110/92/3 112/91/3 111/62/3
f 112/91/3 113/90/3 111/62/3
f 113/90/3 114/89/3 111/62/3
f 114/89/3 115/88/3 111/62/3
f 115/88/3 116/87/3 111/62/3
f 116/87/3 117/86/3 111/62/3
f 117/86/3 118/85/3 111/62/3
f 118/85/3 119/84/3 111/62/3
f 119/84/3 120/83/3 111/62/3
f 120/83/3 121/82/3 111/62/3
f 121/82/3 122/78/3 111/62/3
f 111/62/3 122/78/3 123/81/3
f 123/81/3 122/78/3 124/80/3
f 124/80/3 122/78/3 125/79/3
f 125/79/3 122/78/3 126/77/3
f 122/78/3 127/76/3 126/77/3
f 126/77/3 127/76/3 128/64/3
f 127/76/3 129/75/3 128/64/3
f 129/75/3 130/74/3 128/64/3
f 130/74/3 131/73/3 128/64/3
f 131/73/3 132/72/3 128/64/3
f 132/72/3 133/71/3 128/64/3
f 133/71/3 134/70/3 128/64/3
f 134/70/3 135/69/3 128/64/3
f 135/69/3 136/68/3 128/64/3
f 136/68/3 137/67/3 128/64/3
f 137/67/3 138/66/3 128/64/3
f 138/66/3 139/63/3 128/64/3
f 140/35/3 141/34/3 142/65/3
f 142/65/3 141/34/3 139/63/3
f 128/64/3 139/63/3 141/34/3
f 143/19/3 144/18/3 111/62/3
f 111/62/3 144/18/3 109/61/3
f 109/61/3 144/18/3 145/60/3
f 145/60/3 144/18/3 146/59/3
f 146/59/3 144/18/3 147/58/3
f 147/58/3 144/18/3 148/57/3
f 148/57/3 144/18/3 149/56/3
f 149/56/3 144/18/3 150/55/3
f 150/55/3 144/18/3 151/54/3
f 151/54/3 144/18/3 152/53/3
f 152/53/3 144/18/3 153/52/3
f 153/52/3 144/18/3 154/51/3
f 154/51/3 144/18/3 155/50/3
f 155/50/3 144/18/3 156/49/3
f 156/49/3 144/18/3 157/48/3
f 157/48/3 144/18/3 158/47/3
f 158/47/3 144/18/3 159/46/3
f 159/46/3 144/18/3 160/45/3
f 160/45/3 144/18/3 161/44/3
f 161/44/3 144/18/3 162/43/3
f 162/43/3 144/18/3 163/42/3
f 163/42/3 144/18/3 164/41/3
f 164/41/3 144/18/3 165/40/3
f 165/40/3 144/18/3 166/39/3
f 166/39/3 144/18/3 167/38/3
f 144/18/3 168/33/3 167/38/3
f 167/38/3 168/33/3 169/37/3
f 169/37/3 168/33/3 170/36/3
f 170/36/3 168/33/3 140/35/3
f 140/35/3 168/33/3 141/34/3
f 171/12/3 172/16/3 168/33/3
f 141/34/3 168/33/3 172/16/3
f 173/13/3 174/21/3 175/5/3
f 174/21/3 176/32/3 175/5/3
f 176/32/3 177/31/3 175/5/3
f 177/31/3 178/30/3 175/5/3
f 178/30/3 179/29/3 175/5/3
f 179/29/3 180/28/3 175/5/3
f 180/28/3 181/27/3 175/5/3
f 181/27/3 182/26/3 175/5/3
f 182/26/3 183/25/3 175/5/3
f 183/25/3 184/22/3 175/5/3
f 185/14/3 186/7/3 187/24/3
f 187/24/3 186/7/3 188/23/3
f 188/23/3 186/7/3 184/22/3
f 175/5/3 184/22/3 186/7/3
f 174/21/3 173/13/3 189/20/3
f 189/20/3 173/13/3 143/19/3
f 143/19/3 173/13/3 144/18/3
f 144/18/3 173/13/3 190/17/3
f 190/17/3 173/13/3 171/12/3
f 172/16/3 171/12/3 191/15/3
f 191/15/3 171/12/3 185/14/3
f 185/14/3 171/12/3 186/7/3
f 173/13/3 192/11/3 171/12/3
f 186/7/3 171/12/3 192/11/3
f 193/93/6 194/5/6 195/7/6
f 194/5/6 193/93/6 196/94/6
f 197/94/5 198/93/5 199/5/5
f 200/7/5 199/5/5 198/93/5
f 201/95/2 202/3/2 203/2/2
f 202/3/2 201/95/2 204/96/2
f 205/96/1 206/95/1 207/3/1
f 208/2/1 207/3/1 206/95/1
