# SSTK version 0.8.0
# 14
mtllib original-14.mtl
o mesh9/mesh9-geometry#mesh9-geometry
v -0.678770 0.630610 0.152408
v -0.678770 -0.676253 0.145420
v -0.678770 -0.676253 0.152408
v -0.678770 0.630610 0.145420
v 0.020088 -0.676253 0.152408
v 0.020088 0.630610 0.145420
v 0.020088 -0.676253 0.145420
v 0.020088 0.630610 0.152408
vt 0 7.362205
vt -0.03937 0
vt 0 0
vt -0.03937 7.362205
vt -0.03937 3.937008
vt 0 3.937008
vt -3.937008 7.362205
vt -3.937008 0
vt 0.03937 0
vt 0.03937 3.937008
vt 3.937008 0
vt 3.937008 7.362205
vt 0.03937 7.362205
vn -1 0 0
vn 0 -1 0
vn 0 0 1
vn 0 1 0
vn 0 0 -1
vn 1 0 0
usemtl material_0_0
f 1/1/1 2/2/1 3/3/1
f 2/2/1 1/1/1 4/4/1
f 2/5/2 5/3/2 3/6/2
f 5/3/3 1/7/3 3/8/3
f 1/6/4 6/9/4 4/10/4
f 6/1/5 2/11/5 4/12/5
f 5/3/2 2/5/2 7/2/2
f 1/7/3 5/3/3 8/1/3
f 6/9/4 1/6/4 8/3/4
f 2/11/5 6/1/5 7/3/5
f 6/13/6 5/3/6 7/9/6
f 5/3/6 6/13/6 8/1/6
usemtl material_1_0
f 3//6 2//6 1//6
f 4//6 1//6 2//6
f 3//4 5//4 2//4
f 3//5 1//5 5//5
f 4//2 6//2 1//2
f 4//3 2//3 6//3
f 7//4 2//4 5//4
f 8//5 5//5 1//5
f 8//2 1//2 6//2
f 7//3 6//3 2//3
f 7//1 5//1 6//1
f 8//1 6//1 5//1
