# SSTK version 0.8.0
# 4
mtllib original-4.mtl
o Component_53_1/Component_53/mesh3/mesh3-geometry#mesh3-geometry
v 0.684002 0.665553 -0.155089
v 0.684002 -0.725173 -0.151595
v 0.684002 -0.725173 -0.155089
v 0.684002 0.665553 -0.151595
v -0.678770 -0.725173 -0.151595
v -0.678770 -0.725173 -0.155089
v -0.678770 0.665553 -0.151595
v -0.678770 0.665553 -0.155089
vt 0.016404 7.921285
vt 0 0
vt 0.016404 0
vt 0 7.921285
vt 0 7.762063
vt -0.016404 0
vt 6.397638 0
vt -0.016404 7.762063
vt 6.397638 7.921285
vt 0.016404 7.762063
vt -0.016404 7.921285
vn 1 0 0
vn 0 -1 0
vn 0 0 -1
vn 0 1 0
vn -1 0 0
vn 0 0 1
usemtl material_0_0
f 1/1/1 2/2/1 3/3/1
f 2/2/1 1/1/1 4/4/1
f 5/5/2 3/6/2 2/2/2
f 6/7/3 1/4/3 3/2/3
f 1/3/4 7/5/4 4/2/4
f 3/6/2 5/5/2 6/8/2
f 1/4/3 6/7/3 8/9/3
f 7/5/4 1/3/4 8/10/4
f 7/4/5 6/6/5 5/2/5
f 6/6/5 7/4/5 8/11/5
usemtl material_1_0
f 3//5 2//5 1//5
f 4//5 1//5 2//5
f 2//4 3//4 5//4
f 3//6 1//6 6//6
f 4//2 7//2 1//2
f 4//3 2//3 7//3
f 6//4 5//4 3//4
f 5//3 7//3 2//3
f 8//6 6//6 1//6
f 8//2 1//2 7//2
f 5//1 6//1 7//1
f 8//1 7//1 6//1
usemtl material_2_0
f 7//6 2//6 4//6
f 2//6 7//6 5//6
