# SSTK version 0.8.0
# 10
mtllib original-10.mtl
o Component_1_3/Component_1/mesh4/mesh4-geometry#mesh4-geometry
v -0.678770 0.403482 -0.151595
v -0.006120 0.403482 0.099994
v -0.678770 0.403482 0.099994
v -0.006120 0.403482 -0.151595
v -0.678770 0.417459 0.099994
v -0.006120 0.417459 -0.151595
v -0.006120 0.417459 0.099994
v -0.678770 0.417459 -0.151595
vn 0 -1 0
vn 0 0 1
vn -1 0 0
vn 0 0 -1
vn 1 0 0
vn 0 1 0
usemtl material_0_0
f 1//1 2//1 3//1
f 2//1 1//1 4//1
f 2//2 5//2 3//2
f 5//3 1//3 3//3
f 1//4 6//4 4//4
f 4//5 7//5 2//5
f 5//2 2//2 7//2
f 1//3 5//3 8//3
f 6//4 1//4 8//4
f 7//5 4//5 6//5
f 6//6 5//6 7//6
f 5//6 6//6 8//6
usemtl material_1_0
f 3//6 2//6 1//6
f 4//6 1//6 2//6
f 3//4 5//4 2//4
f 3//5 1//5 5//5
f 4//2 6//2 1//2
f 2//3 7//3 4//3
f 7//4 2//4 5//4
f 8//5 5//5 1//5
f 8//2 1//2 6//2
f 6//3 4//3 7//3
f 7//1 5//1 6//1
f 8//1 6//1 5//1
