# SSTK version 0.8.0
# 51
mtllib original-51.mtl
o mesh16/mesh16-geometry/material_5#mesh16-geometry
v -0.458865 0.431902 -0.385739
v 0.474245 0.805146 -0.385739
v -0.458865 -0.672278 -0.385739
v 0.474245 0.805146 -0.385739
v -0.458865 0.431902 -0.385739
v -0.458865 0.805146 -0.385739
v -0.458865 -0.672278 -0.385739
v 0.474245 0.805146 -0.385739
v 0.474245 -0.672278 -0.385739
v 0.474245 -0.672278 -0.385739
v 0.474245 0.805146 -0.385739
v 0.474245 0.431902 -0.385739
v 0.474245 0.513138 -0.290838
v 0.474245 0.431902 -0.385739
v 0.474245 0.805146 -0.385739
v 0.474245 0.618524 -0.245772
v 0.474245 0.805146 -0.385739
v 0.474245 0.805146 -0.292428
v 0.474245 0.507359 -0.288877
v 0.474245 0.431902 -0.385739
v 0.474245 0.513138 -0.290838
v 0.474245 0.513138 -0.290838
v 0.474245 0.805146 -0.385739
v 0.474245 0.519123 -0.292029
v 0.474245 0.431902 -0.385739
v 0.474245 0.478957 -0.251862
v 0.474245 0.431902 0.404607
v 0.474245 0.618524 -0.256138
v 0.474245 0.805146 -0.385739
v 0.474245 0.618524 -0.245772
v 0.474245 0.501885 -0.286177
v 0.474245 0.431902 -0.385739
v 0.474245 0.507359 -0.288877
v 0.474245 0.519123 -0.292029
v 0.474245 0.805146 -0.385739
v 0.474245 0.525213 -0.292428
v 0.474245 0.478957 -0.251862
v 0.474245 0.431902 -0.385739
v 0.474245 0.480147 -0.257848
v 0.474245 0.431902 0.404607
v 0.474245 0.478957 -0.251862
v 0.474245 0.478558 -0.245772
v 0.474245 0.577700 -0.292428
v 0.474245 0.805146 -0.385739
v 0.474245 0.618524 -0.256138
v 0.474245 0.496811 -0.282787
v 0.474245 0.431902 -0.385739
v 0.474245 0.501885 -0.286177
v 0.474245 0.525213 -0.292428
v 0.474245 0.805146 -0.385739
v 0.474245 0.577700 -0.292428
v 0.474245 0.480147 -0.257848
v 0.474245 0.431902 -0.385739
v 0.474245 0.482109 -0.263627
v 0.474245 0.431902 0.404607
v 0.474245 0.478558 -0.245772
v 0.474245 0.470781 0.396126
v 0.474245 0.492223 -0.278763
v 0.474245 0.431902 -0.385739
v 0.474245 0.496811 -0.282787
v 0.474245 0.482109 -0.263627
v 0.474245 0.431902 -0.385739
v 0.474245 0.484808 -0.269100
v 0.474245 0.470781 0.396126
v 0.474245 0.478558 -0.245772
v 0.474245 0.471953 0.394781
v 0.474245 0.488199 -0.274175
v 0.474245 0.431902 -0.385739
v 0.474245 0.492223 -0.278763
v 0.474245 0.484808 -0.269100
v 0.474245 0.431902 -0.385739
v 0.474245 0.488199 -0.274175
v 0.474245 0.478479 0.378469
v 0.474245 0.478558 -0.245772
v 0.474245 0.478558 0.376686
v 0.474245 0.471953 0.394781
v 0.474245 0.478558 -0.245772
v 0.474245 0.473042 0.393367
v 0.474245 0.478292 0.380243
v 0.474245 0.478558 -0.245772
v 0.474245 0.478479 0.378469
v 0.474245 0.473042 0.393367
v 0.474245 0.478558 -0.245772
v 0.474245 0.474042 0.391889
v 0.474245 0.477997 0.382003
v 0.474245 0.478558 -0.245772
v 0.474245 0.478292 0.380243
v 0.474245 0.474042 0.391889
v 0.474245 0.478558 -0.245772
v 0.474245 0.474949 0.390353
v 0.474245 0.477594 0.383741
v 0.474245 0.478558 -0.245772
v 0.474245 0.477997 0.382003
v 0.474245 0.474949 0.390353
v 0.474245 0.478558 -0.245772
v 0.474245 0.475761 0.388764
v 0.474245 0.477086 0.385452
v 0.474245 0.478558 -0.245772
v 0.474245 0.477594 0.383741
v 0.474245 0.475761 0.388764
v 0.474245 0.478558 -0.245772
v 0.474245 0.476474 0.387128
v 0.474245 0.476474 0.387128
v 0.474245 0.478558 -0.245772
v 0.474245 0.477086 0.385452
v -0.458865 -0.672278 -0.385739
v 0.474245 0.805146 -0.385739
v -0.458865 0.431902 -0.385739
v -0.458865 0.805146 -0.385739
v -0.458865 0.431902 -0.385739
v 0.474245 0.805146 -0.385739
v 0.474245 -0.672278 -0.385739
v 0.474245 0.805146 -0.385739
v -0.458865 -0.672278 -0.385739
v 0.474245 0.431902 -0.385739
v 0.474245 0.805146 -0.385739
v 0.474245 -0.672278 -0.385739
v 0.474245 0.805146 -0.385739
v 0.474245 0.431902 -0.385739
v 0.474245 0.513138 -0.290838
v 0.474245 0.805146 -0.292428
v 0.474245 0.805146 -0.385739
v 0.474245 0.618524 -0.245772
v 0.474245 0.513138 -0.290838
v 0.474245 0.431902 -0.385739
v 0.474245 0.507359 -0.288877
v 0.474245 0.519123 -0.292029
v 0.474245 0.805146 -0.385739
v 0.474245 0.513138 -0.290838
v 0.474245 0.431902 0.404607
v 0.474245 0.478957 -0.251862
v 0.474245 0.431902 -0.385739
v 0.474245 0.618524 -0.245772
v 0.474245 0.805146 -0.385739
v 0.474245 0.618524 -0.256138
v 0.474245 0.507359 -0.288877
v 0.474245 0.431902 -0.385739
v 0.474245 0.501885 -0.286177
v 0.474245 0.525213 -0.292428
v 0.474245 0.805146 -0.385739
v 0.474245 0.519123 -0.292029
v 0.474245 0.480147 -0.257848
v 0.474245 0.431902 -0.385739
v 0.474245 0.478957 -0.251862
v 0.474245 0.478558 -0.245772
v 0.474245 0.478957 -0.251862
v 0.474245 0.431902 0.404607
v 0.474245 0.618524 -0.256138
v 0.474245 0.805146 -0.385739
v 0.474245 0.577700 -0.292428
v 0.474245 0.501885 -0.286177
v 0.474245 0.431902 -0.385739
v 0.474245 0.496811 -0.282787
v 0.474245 0.577700 -0.292428
v 0.474245 0.805146 -0.385739
v 0.474245 0.525213 -0.292428
v 0.474245 0.482109 -0.263627
v 0.474245 0.431902 -0.385739
v 0.474245 0.480147 -0.257848
v 0.474245 0.470781 0.396126
v 0.474245 0.478558 -0.245772
v 0.474245 0.431902 0.404607
v 0.474245 0.496811 -0.282787
v 0.474245 0.431902 -0.385739
v 0.474245 0.492223 -0.278763
v 0.474245 0.484808 -0.269100
v 0.474245 0.431902 -0.385739
v 0.474245 0.482109 -0.263627
v 0.474245 0.471953 0.394781
v 0.474245 0.478558 -0.245772
v 0.474245 0.470781 0.396126
v 0.474245 0.492223 -0.278763
v 0.474245 0.431902 -0.385739
v 0.474245 0.488199 -0.274175
v 0.474245 0.488199 -0.274175
v 0.474245 0.431902 -0.385739
v 0.474245 0.484808 -0.269100
v 0.474245 0.478558 0.376686
v 0.474245 0.478558 -0.245772
v 0.474245 0.478479 0.378469
v 0.474245 0.473042 0.393367
v 0.474245 0.478558 -0.245772
v 0.474245 0.471953 0.394781
v 0.474245 0.478479 0.378469
v 0.474245 0.478558 -0.245772
v 0.474245 0.478292 0.380243
v 0.474245 0.474042 0.391889
v 0.474245 0.478558 -0.245772
v 0.474245 0.473042 0.393367
v 0.474245 0.478292 0.380243
v 0.474245 0.478558 -0.245772
v 0.474245 0.477997 0.382003
v 0.474245 0.474949 0.390353
v 0.474245 0.478558 -0.245772
v 0.474245 0.474042 0.391889
v 0.474245 0.477997 0.382003
v 0.474245 0.478558 -0.245772
v 0.474245 0.477594 0.383741
v 0.474245 0.475761 0.388764
v 0.474245 0.478558 -0.245772
v 0.474245 0.474949 0.390353
v 0.474245 0.477594 0.383741
v 0.474245 0.478558 -0.245772
v 0.474245 0.477086 0.385452
v 0.474245 0.476474 0.387128
v 0.474245 0.478558 -0.245772
v 0.474245 0.475761 0.388764
v 0.474245 0.477086 0.385452
v 0.474245 0.478558 -0.245772
v 0.474245 0.476474 0.387128
vn 0 0 -1
vn 1 0 0
vn 0 0 1
vn -1 0 0
usemtl material_0_0
f 1//1 2//1 3//1
f 4//1 5//1 6//1
f 7//1 8//1 9//1
f 10//1 11//1 12//1
usemtl material_1_0
f 13//2 14//2 15//2
f 16//2 17//2 18//2
f 19//2 20//2 21//2
f 22//2 23//2 24//2
f 25//2 26//2 27//2
f 28//2 29//2 30//2
f 31//2 32//2 33//2
f 34//2 35//2 36//2
f 37//2 38//2 39//2
f 40//2 41//2 42//2
f 43//2 44//2 45//2
f 46//2 47//2 48//2
f 49//2 50//2 51//2
f 52//2 53//2 54//2
f 55//2 56//2 57//2
f 58//2 59//2 60//2
f 61//2 62//2 63//2
f 64//2 65//2 66//2
f 67//2 68//2 69//2
f 70//2 71//2 72//2
f 73//2 74//2 75//2
f 76//2 77//2 78//2
f 79//2 80//2 81//2
f 82//2 83//2 84//2
f 85//2 86//2 87//2
f 88//2 89//2 90//2
f 91//2 92//2 93//2
f 94//2 95//2 96//2
f 97//2 98//2 99//2
f 100//2 101//2 102//2
f 103//2 104//2 105//2
usemtl material_2_0
f 106//3 107//3 108//3
f 109//3 110//3 111//3
f 112//3 113//3 114//3
f 115//3 116//3 117//3
f 118//4 119//4 120//4
f 121//4 122//4 123//4
f 124//4 125//4 126//4
f 127//4 128//4 129//4
f 130//4 131//4 132//4
f 133//4 134//4 135//4
f 136//4 137//4 138//4
f 139//4 140//4 141//4
f 142//4 143//4 144//4
f 145//4 146//4 147//4
f 148//4 149//4 150//4
f 151//4 152//4 153//4
f 154//4 155//4 156//4
f 157//4 158//4 159//4
f 160//4 161//4 162//4
f 163//4 164//4 165//4
f 166//4 167//4 168//4
f 169//4 170//4 171//4
f 172//4 173//4 174//4
f 175//4 176//4 177//4
f 178//4 179//4 180//4
f 181//4 182//4 183//4
f 184//4 185//4 186//4
f 187//4 188//4 189//4
f 190//4 191//4 192//4
f 193//4 194//4 195//4
f 196//4 197//4 198//4
f 199//4 200//4 201//4
f 202//4 203//4 204//4
f 205//4 206//4 207//4
f 208//4 209//4 210//4
