# SSTK version 0.8.0
# 45
mtllib original-45.mtl
o mesh16/mesh16-geometry/material_3/component_0#mesh16-geometry
v -0.458865 0.338782 0.423264
v -0.458865 0.346376 0.421591
v -0.449513 0.338782 0.423264
v 0.474245 0.346376 0.421591
v -0.449513 0.338782 0.423264
v -0.458865 0.346376 0.421591
v -0.298221 0.338782 0.423264
v -0.449513 0.338782 0.423264
v 0.474245 0.346376 0.421591
v 0.474245 0.338782 0.423264
v 0.464157 0.338782 0.423264
v 0.474245 0.346376 0.421591
v 0.294280 0.338782 0.423264
v -0.298221 0.338782 0.423264
v 0.474245 0.346376 0.421591
v 0.464157 0.338782 0.423264
v 0.294280 0.338782 0.423264
v 0.474245 0.346376 0.421591
v -0.449513 0.338782 0.423264
v -0.458865 0.346376 0.421591
v -0.458865 0.338782 0.423264
v -0.458865 0.346376 0.421591
v -0.449513 0.338782 0.423264
v 0.474245 0.346376 0.421591
v 0.474245 0.346376 0.421591
v -0.449513 0.338782 0.423264
v -0.298221 0.338782 0.423264
v 0.474245 0.346376 0.421591
v 0.464157 0.338782 0.423264
v 0.474245 0.338782 0.423264
v 0.474245 0.346376 0.421591
v -0.298221 0.338782 0.423264
v 0.294280 0.338782 0.423264
v 0.474245 0.346376 0.421591
v 0.294280 0.338782 0.423264
v 0.464157 0.338782 0.423264
vn 0 -0.21516303918244445 -0.9765781415584591
vn 0 0.21516303918244445 0.9765781415584591
usemtl material_0_0
f 1//1 2//1 3//1
f 4//1 5//1 6//1
f 7//1 8//1 9//1
f 10//1 11//1 12//1
f 13//1 14//1 15//1
f 16//1 17//1 18//1
usemtl material_1_0
f 19//2 20//2 21//2
f 22//2 23//2 24//2
f 25//2 26//2 27//2
f 28//2 29//2 30//2
f 31//2 32//2 33//2
f 34//2 35//2 36//2
