# SSTK version 0.8.0
# 52
mtllib original-52.mtl
o mesh16/mesh16-geometry/material_6#mesh16-geometry
v -0.149443 0.750208 -0.284705
v -0.147444 0.670111 -0.264681
v -0.147331 0.750699 -0.284828
v -0.151470 0.749450 -0.284515
v -0.149560 0.670574 -0.264796
v -0.149443 0.750208 -0.284705
v -0.147331 0.750699 -0.284828
v -0.145126 0.669917 -0.264632
v -0.145074 0.750924 -0.284884
v -0.153376 0.748438 -0.284262
v -0.151591 0.671310 -0.264980
v -0.151470 0.749450 -0.284515
v -0.145074 0.750924 -0.284884
v -0.101431 0.729776 -0.279597
v 0.029536 0.750924 -0.284884
v 0.029536 0.750924 -0.284884
v 0.031557 0.669957 -0.264642
v 0.031553 0.750857 -0.284867
v -0.155127 0.747191 -0.283950
v -0.153501 0.672306 -0.265229
v -0.153376 0.748438 -0.284262
v -0.156692 0.745729 -0.283585
v -0.155254 0.673544 -0.265539
v -0.155127 0.747191 -0.283950
v -0.149443 0.750208 -0.284705
v -0.149560 0.670574 -0.264796
v -0.147444 0.670111 -0.264681
v -0.147331 0.750699 -0.284828
v -0.147444 0.670111 -0.264681
v -0.145126 0.669917 -0.264632
v -0.151470 0.749450 -0.284515
v -0.151591 0.671310 -0.264980
v -0.149560 0.670574 -0.264796
v -0.145074 0.750924 -0.284884
v -0.145126 0.669917 -0.264632
v -0.101450 0.691003 -0.269904
v -0.153376 0.748438 -0.284262
v -0.153501 0.672306 -0.265229
v -0.151591 0.671310 -0.264980
v -0.101431 0.729776 -0.279597
v -0.145074 0.750924 -0.284884
v -0.101450 0.691003 -0.269904
v 0.029536 0.750924 -0.284884
v -0.101431 0.729776 -0.279597
v -0.014119 0.729776 -0.279597
v 0.029536 0.750924 -0.284884
v 0.029536 0.669917 -0.264632
v 0.031557 0.669957 -0.264642
v 0.031553 0.750857 -0.284867
v 0.031557 0.669957 -0.264642
v 0.033543 0.750529 -0.284785
v -0.155127 0.747191 -0.283950
v -0.155254 0.673544 -0.265539
v -0.153501 0.672306 -0.265229
v -0.158044 0.744079 -0.283173
v -0.158166 0.676650 -0.266315
v -0.156819 0.675001 -0.265903
v -0.159159 0.742270 -0.282720
v -0.159270 0.678460 -0.266768
v -0.158166 0.676650 -0.266315
v -0.156692 0.745729 -0.283585
v -0.156819 0.675001 -0.265903
v -0.155254 0.673544 -0.265539
v -0.158044 0.744079 -0.283173
v -0.156819 0.675001 -0.265903
v -0.156692 0.745729 -0.283585
v -0.101450 0.691003 -0.269904
v -0.145126 0.669917 -0.264632
v 0.029536 0.669917 -0.264632
v 0.029536 0.750924 -0.284884
v -0.014119 0.729776 -0.279597
v 0.029536 0.669917 -0.264632
v 0.033543 0.750529 -0.284785
v 0.031557 0.669957 -0.264642
v 0.033554 0.670262 -0.264718
v 0.033543 0.750529 -0.284785
v 0.033554 0.670262 -0.264718
v 0.035469 0.749946 -0.284639
v -0.160017 0.740334 -0.282236
v -0.160112 0.680399 -0.267253
v -0.159270 0.678460 -0.266768
v -0.159159 0.742270 -0.282720
v -0.158166 0.676650 -0.266315
v -0.158044 0.744079 -0.283173
v -0.160017 0.740334 -0.282236
v -0.159270 0.678460 -0.266768
v -0.159159 0.742270 -0.282720
v -0.160603 0.738305 -0.281729
v -0.160675 0.682430 -0.267760
v -0.160112 0.680399 -0.267253
v -0.101450 0.691003 -0.269904
v 0.029536 0.669917 -0.264632
v -0.014126 0.691003 -0.269904
v -0.014126 0.691003 -0.269904
v -0.014119 0.728833 -0.283369
v -0.014119 0.729776 -0.279597
v -0.014126 0.691003 -0.269904
v 0.029536 0.669917 -0.264632
v -0.014119 0.729776 -0.279597
v 0.035469 0.749946 -0.284639
v 0.033554 0.670262 -0.264718
v 0.035489 0.670828 -0.264860
v 0.035469 0.749946 -0.284639
v 0.035489 0.670828 -0.264860
v 0.037298 0.749118 -0.284432
v 0.044965 0.738193 -0.281701
v 0.044984 0.682583 -0.267799
v 0.045088 0.736239 -0.281212
v 0.044573 0.740113 -0.282181
v 0.044607 0.680656 -0.267317
v 0.044965 0.738193 -0.281701
v 0.045088 0.736239 -0.281212
v 0.044984 0.682583 -0.267799
v 0.045088 0.684541 -0.268288
v -0.160603 0.738305 -0.281729
v -0.160112 0.680399 -0.267253
v -0.160017 0.740334 -0.282236
v -0.160675 0.682430 -0.267760
v -0.160904 0.736239 -0.281212
v -0.160953 0.684541 -0.268288
v -0.160904 0.736239 -0.281212
v -0.160675 0.682430 -0.267760
v -0.160603 0.738305 -0.281729
v -0.101450 0.691003 -0.269904
v -0.014126 0.690060 -0.273676
v -0.014126 0.691003 -0.269904
v -0.014126 0.690060 -0.273676
v -0.101450 0.691003 -0.269904
v -0.101450 0.690060 -0.273676
v -0.014119 0.728833 -0.283369
v -0.014126 0.691003 -0.269904
v -0.014126 0.690060 -0.273676
v 0.037298 0.749118 -0.284432
v 0.035489 0.670828 -0.264860
v 0.037328 0.671644 -0.265064
v 0.037298 0.749118 -0.284432
v 0.037328 0.671644 -0.265064
v 0.038996 0.748061 -0.284168
v 0.043920 0.741966 -0.282644
v 0.043964 0.678797 -0.266852
v 0.044573 0.740113 -0.282181
v 0.044965 0.738193 -0.281701
v 0.044607 0.680656 -0.267317
v 0.044984 0.682583 -0.267799
v 0.044573 0.740113 -0.282181
v 0.043964 0.678797 -0.266852
v 0.044607 0.680656 -0.267317
v 0.038996 0.748061 -0.284168
v 0.037328 0.671644 -0.265064
v 0.039034 0.672695 -0.265327
v 0.038996 0.748061 -0.284168
v 0.039034 0.672695 -0.265327
v 0.040534 0.746792 -0.283851
v 0.043018 0.743717 -0.283082
v 0.043066 0.677040 -0.266413
v 0.043920 0.741966 -0.282644
v 0.043920 0.741966 -0.282644
v 0.043066 0.677040 -0.266413
v 0.043964 0.678797 -0.266852
v 0.040534 0.746792 -0.283851
v 0.039034 0.672695 -0.265327
v 0.040578 0.673961 -0.265643
v 0.041882 0.745335 -0.283487
v 0.041930 0.675418 -0.266007
v 0.043018 0.743717 -0.283082
v 0.043018 0.743717 -0.283082
v 0.041930 0.675418 -0.266007
v 0.043066 0.677040 -0.266413
v 0.040534 0.746792 -0.283851
v 0.040578 0.673961 -0.265643
v 0.041882 0.745335 -0.283487
v 0.041882 0.745335 -0.283487
v 0.040578 0.673961 -0.265643
v 0.041930 0.675418 -0.266007
v -0.147331 0.750699 -0.284828
v -0.147444 0.670111 -0.264681
v -0.149443 0.750208 -0.284705
v -0.149443 0.750208 -0.284705
v -0.149560 0.670574 -0.264796
v -0.151470 0.749450 -0.284515
v -0.145074 0.750924 -0.284884
v -0.145126 0.669917 -0.264632
v -0.147331 0.750699 -0.284828
v -0.151470 0.749450 -0.284515
v -0.151591 0.671310 -0.264980
v -0.153376 0.748438 -0.284262
v 0.029536 0.750924 -0.284884
v -0.101431 0.729776 -0.279597
v -0.145074 0.750924 -0.284884
v 0.031553 0.750857 -0.284867
v 0.031557 0.669957 -0.264642
v 0.029536 0.750924 -0.284884
v -0.153376 0.748438 -0.284262
v -0.153501 0.672306 -0.265229
v -0.155127 0.747191 -0.283950
v -0.155127 0.747191 -0.283950
v -0.155254 0.673544 -0.265539
v -0.156692 0.745729 -0.283585
v -0.147444 0.670111 -0.264681
v -0.149560 0.670574 -0.264796
v -0.149443 0.750208 -0.284705
v -0.145126 0.669917 -0.264632
v -0.147444 0.670111 -0.264681
v -0.147331 0.750699 -0.284828
v -0.149560 0.670574 -0.264796
v -0.151591 0.671310 -0.264980
v -0.151470 0.749450 -0.284515
v -0.101450 0.691003 -0.269904
v -0.145126 0.669917 -0.264632
v -0.145074 0.750924 -0.284884
v -0.151591 0.671310 -0.264980
v -0.153501 0.672306 -0.265229
v -0.153376 0.748438 -0.284262
v -0.101450 0.691003 -0.269904
v -0.145074 0.750924 -0.284884
v -0.101431 0.729776 -0.279597
v -0.014119 0.729776 -0.279597
v -0.101431 0.729776 -0.279597
v 0.029536 0.750924 -0.284884
v 0.031557 0.669957 -0.264642
v 0.029536 0.669917 -0.264632
v 0.029536 0.750924 -0.284884
v 0.033543 0.750529 -0.284785
v 0.031557 0.669957 -0.264642
v 0.031553 0.750857 -0.284867
v -0.153501 0.672306 -0.265229
v -0.155254 0.673544 -0.265539
v -0.155127 0.747191 -0.283950
v -0.156819 0.675001 -0.265903
v -0.158166 0.676650 -0.266315
v -0.158044 0.744079 -0.283173
v -0.158166 0.676650 -0.266315
v -0.159270 0.678460 -0.266768
v -0.159159 0.742270 -0.282720
v -0.155254 0.673544 -0.265539
v -0.156819 0.675001 -0.265903
v -0.156692 0.745729 -0.283585
v -0.156692 0.745729 -0.283585
v -0.156819 0.675001 -0.265903
v -0.158044 0.744079 -0.283173
v 0.029536 0.669917 -0.264632
v -0.145126 0.669917 -0.264632
v -0.101450 0.691003 -0.269904
v -0.101431 0.728833 -0.283369
v -0.101450 0.691003 -0.269904
v -0.101431 0.729776 -0.279597
v -0.101431 0.729776 -0.279597
v -0.101450 0.691003 -0.269904
v -0.101431 0.728833 -0.283369
v -0.014119 0.728833 -0.283369
v -0.101431 0.729776 -0.279597
v -0.014119 0.729776 -0.279597
v -0.014119 0.729776 -0.279597
v -0.101431 0.729776 -0.279597
v -0.014119 0.728833 -0.283369
v 0.029536 0.669917 -0.264632
v -0.014119 0.729776 -0.279597
v 0.029536 0.750924 -0.284884
v 0.033554 0.670262 -0.264718
v 0.031557 0.669957 -0.264642
v 0.033543 0.750529 -0.284785
v 0.035469 0.749946 -0.284639
v 0.033554 0.670262 -0.264718
v 0.033543 0.750529 -0.284785
v -0.159270 0.678460 -0.266768
v -0.160112 0.680399 -0.267253
v -0.160017 0.740334 -0.282236
v -0.158044 0.744079 -0.283173
v -0.158166 0.676650 -0.266315
v -0.159159 0.742270 -0.282720
v -0.159159 0.742270 -0.282720
v -0.159270 0.678460 -0.266768
v -0.160017 0.740334 -0.282236
v -0.160112 0.680399 -0.267253
v -0.160675 0.682430 -0.267760
v -0.160603 0.738305 -0.281729
v -0.014126 0.691003 -0.269904
v 0.029536 0.669917 -0.264632
v -0.101450 0.691003 -0.269904
v -0.101450 0.691003 -0.269904
v -0.101431 0.728833 -0.283369
v -0.101450 0.690060 -0.273676
v -0.101450 0.690060 -0.273676
v -0.101431 0.728833 -0.283369
v -0.101450 0.691003 -0.269904
v -0.101431 0.729776 -0.279597
v -0.014119 0.728833 -0.283369
v -0.101431 0.728833 -0.283369
v -0.101431 0.728833 -0.283369
v -0.014119 0.728833 -0.283369
v -0.101431 0.729776 -0.279597
v -0.014119 0.729776 -0.279597
v -0.014119 0.728833 -0.283369
v -0.014126 0.691003 -0.269904
v -0.014119 0.729776 -0.279597
v 0.029536 0.669917 -0.264632
v -0.014126 0.691003 -0.269904
v 0.035489 0.670828 -0.264860
v 0.033554 0.670262 -0.264718
v 0.035469 0.749946 -0.284639
v 0.037298 0.749118 -0.284432
v 0.035489 0.670828 -0.264860
v 0.035469 0.749946 -0.284639
v 0.045088 0.736239 -0.281212
v 0.044984 0.682583 -0.267799
v 0.044965 0.738193 -0.281701
v 0.044965 0.738193 -0.281701
v 0.044607 0.680656 -0.267317
v 0.044573 0.740113 -0.282181
v 0.045088 0.684541 -0.268288
v 0.044984 0.682583 -0.267799
v 0.045088 0.736239 -0.281212
v -0.160017 0.740334 -0.282236
v -0.160112 0.680399 -0.267253
v -0.160603 0.738305 -0.281729
v -0.160953 0.684541 -0.268288
v -0.160904 0.736239 -0.281212
v -0.160675 0.682430 -0.267760
v -0.160603 0.738305 -0.281729
v -0.160675 0.682430 -0.267760
v -0.160904 0.736239 -0.281212
v -0.014126 0.691003 -0.269904
v -0.014126 0.690060 -0.273676
v -0.101450 0.691003 -0.269904
v -0.101450 0.690060 -0.273676
v -0.101450 0.691003 -0.269904
v -0.014126 0.690060 -0.273676
v -0.014126 0.690060 -0.273676
v -0.014126 0.691003 -0.269904
v -0.014119 0.728833 -0.283369
v 0.037328 0.671644 -0.265064
v 0.035489 0.670828 -0.264860
v 0.037298 0.749118 -0.284432
v 0.038996 0.748061 -0.284168
v 0.037328 0.671644 -0.265064
v 0.037298 0.749118 -0.284432
v 0.044573 0.740113 -0.282181
v 0.043964 0.678797 -0.266852
v 0.043920 0.741966 -0.282644
v 0.044984 0.682583 -0.267799
v 0.044607 0.680656 -0.267317
v 0.044965 0.738193 -0.281701
v 0.044607 0.680656 -0.267317
v 0.043964 0.678797 -0.266852
v 0.044573 0.740113 -0.282181
v 0.039034 0.672695 -0.265327
v 0.037328 0.671644 -0.265064
v 0.038996 0.748061 -0.284168
v 0.040534 0.746792 -0.283851
v 0.039034 0.672695 -0.265327
v 0.038996 0.748061 -0.284168
v 0.043920 0.741966 -0.282644
v 0.043066 0.677040 -0.266413
v 0.043018 0.743717 -0.283082
v 0.043964 0.678797 -0.266852
v 0.043066 0.677040 -0.266413
v 0.043920 0.741966 -0.282644
v 0.040578 0.673961 -0.265643
v 0.039034 0.672695 -0.265327
v 0.040534 0.746792 -0.283851
v 0.043018 0.743717 -0.283082
v 0.041930 0.675418 -0.266007
v 0.041882 0.745335 -0.283487
v 0.043066 0.677040 -0.266413
v 0.041930 0.675418 -0.266007
v 0.043018 0.743717 -0.283082
v 0.041882 0.745335 -0.283487
v 0.040578 0.673961 -0.265643
v 0.040534 0.746792 -0.283851
v 0.041930 0.675418 -0.266007
v 0.040578 0.673961 -0.265643
v 0.041882 0.745335 -0.283487
vn 0 0.24253584943015005 0.9701424440468501
vn 0.9999999877260012 -0.00015199999138412623 0.00003799999784603156
vn 0 -0.9701424440468501 0.24253584943015005
vn 0 -0.24253584943015005 -0.9701424440468501
vn -0.9999998899895174 0.0004549999511838893 -0.00011399998967209284
vn 0.9999998899895174 -0.0004549999511838893 0.00011399998967209284
vn 0 0.9701424440468501 -0.24253584943015005
vn -0.9999999877260012 0.00015199999138412623 -0.00003799999784603156
usemtl material_0_0
f 1//1 2//1 3//1
f 4//1 5//1 6//1
f 7//1 8//1 9//1
f 10//1 11//1 12//1
f 13//1 14//1 15//1
f 16//1 17//1 18//1
f 19//1 20//1 21//1
f 22//1 23//1 24//1
f 25//1 26//1 27//1
f 28//1 29//1 30//1
f 31//1 32//1 33//1
f 34//1 35//1 36//1
f 37//1 38//1 39//1
f 40//1 41//1 42//1
f 43//1 44//1 45//1
f 46//1 47//1 48//1
f 49//1 50//1 51//1
f 52//1 53//1 54//1
f 55//1 56//1 57//1
f 58//1 59//1 60//1
f 61//1 62//1 63//1
f 64//1 65//1 66//1
f 67//1 68//1 69//1
f 70//1 71//1 72//1
f 73//1 74//1 75//1
f 76//1 77//1 78//1
f 79//1 80//1 81//1
f 82//1 83//1 84//1
f 85//1 86//1 87//1
f 88//1 89//1 90//1
f 91//1 92//1 93//1
f 94//2 95//2 96//2
f 97//1 98//1 99//1
f 100//1 101//1 102//1
f 103//1 104//1 105//1
f 106//1 107//1 108//1
f 109//1 110//1 111//1
f 112//1 113//1 114//1
f 115//1 116//1 117//1
f 118//1 119//1 120//1
f 121//1 122//1 123//1
f 124//3 125//3 126//3
f 127//3 128//3 129//3
f 130//2 131//2 132//2
f 133//1 134//1 135//1
f 136//1 137//1 138//1
f 139//1 140//1 141//1
f 142//1 143//1 144//1
f 145//1 146//1 147//1
f 148//1 149//1 150//1
f 151//1 152//1 153//1
f 154//1 155//1 156//1
f 157//1 158//1 159//1
f 160//1 161//1 162//1
f 163//1 164//1 165//1
f 166//1 167//1 168//1
f 169//1 170//1 171//1
f 172//1 173//1 174//1
usemtl material_1_0
f 175//4 176//4 177//4
f 178//4 179//4 180//4
f 181//4 182//4 183//4
f 184//4 185//4 186//4
f 187//4 188//4 189//4
f 190//4 191//4 192//4
f 193//4 194//4 195//4
f 196//4 197//4 198//4
f 199//4 200//4 201//4
f 202//4 203//4 204//4
f 205//4 206//4 207//4
f 208//4 209//4 210//4
f 211//4 212//4 213//4
f 214//4 215//4 216//4
f 217//4 218//4 219//4
f 220//4 221//4 222//4
f 223//4 224//4 225//4
f 226//4 227//4 228//4
f 229//4 230//4 231//4
f 232//4 233//4 234//4
f 235//4 236//4 237//4
f 238//4 239//4 240//4
f 241//4 242//4 243//4
f 244//5 245//5 246//5
f 247//6 248//6 249//6
f 250//7 251//7 252//7
f 253//3 254//3 255//3
f 256//4 257//4 258//4
f 259//4 260//4 261//4
f 262//4 263//4 264//4
f 265//4 266//4 267//4
f 268//4 269//4 270//4
f 271//4 272//4 273//4
f 274//4 275//4 276//4
f 277//4 278//4 279//4
f 280//5 281//5 282//5
f 283//6 284//6 285//6
f 286//7 287//7 288//7
f 289//3 290//3 291//3
f 292//8 293//8 294//8
f 295//4 296//4 297//4
f 298//4 299//4 300//4
f 301//4 302//4 303//4
f 304//4 305//4 306//4
f 307//4 308//4 309//4
f 310//4 311//4 312//4
f 313//4 314//4 315//4
f 316//4 317//4 318//4
f 319//4 320//4 321//4
f 322//7 323//7 324//7
f 325//7 326//7 327//7
f 328//8 329//8 330//8
f 331//4 332//4 333//4
f 334//4 335//4 336//4
f 337//4 338//4 339//4
f 340//4 341//4 342//4
f 343//4 344//4 345//4
f 346//4 347//4 348//4
f 349//4 350//4 351//4
f 352//4 353//4 354//4
f 355//4 356//4 357//4
f 358//4 359//4 360//4
f 361//4 362//4 363//4
f 364//4 365//4 366//4
f 367//4 368//4 369//4
f 370//4 371//4 372//4
