# SSTK version 0.8.0
# 49
mtllib original-49.mtl
o mesh16/mesh16-geometry/material_4/component_1#mesh16-geometry
v -0.240409 0.202950 0.423264
v -0.240409 -0.237382 0.423264
v -0.234958 -0.238466 0.423264
v -0.234958 -0.238466 0.423264
v -0.240409 -0.237382 0.423264
v -0.240409 0.202950 0.423264
v -0.234958 0.204034 0.423264
v -0.234958 -0.238466 0.423264
v -0.229412 -0.238830 0.423264
v -0.229412 -0.238830 0.423264
v -0.234958 -0.238466 0.423264
v -0.234958 0.204034 0.423264
v -0.268667 0.178168 0.423264
v -0.268667 -0.212601 0.423264
v -0.266209 -0.217585 0.423264
v -0.266209 -0.217585 0.423264
v -0.268667 -0.212601 0.423264
v -0.268667 0.178168 0.423264
v -0.270454 0.172906 0.423264
v -0.270454 -0.207338 0.423264
v -0.268667 -0.212601 0.423264
v -0.268667 -0.212601 0.423264
v -0.270454 -0.207338 0.423264
v -0.270454 0.172906 0.423264
v -0.245672 0.201163 0.423264
v -0.245672 -0.235595 0.423264
v -0.240409 -0.237382 0.423264
v -0.240409 -0.237382 0.423264
v -0.245672 -0.235595 0.423264
v -0.245672 0.201163 0.423264
v -0.245672 0.201163 0.423264
v -0.240409 -0.237382 0.423264
v -0.240409 0.202950 0.423264
v -0.240409 0.202950 0.423264
v -0.240409 -0.237382 0.423264
v -0.245672 0.201163 0.423264
v -0.240409 0.202950 0.423264
v -0.234958 -0.238466 0.423264
v -0.234958 0.204034 0.423264
v -0.234958 0.204034 0.423264
v -0.234958 -0.238466 0.423264
v -0.240409 0.202950 0.423264
v -0.229412 0.204398 0.423264
v -0.229412 -0.238830 0.423264
v 0.259084 -0.238830 0.423264
v 0.259084 -0.238830 0.423264
v -0.229412 -0.238830 0.423264
v -0.229412 0.204398 0.423264
v -0.234958 0.204034 0.423264
v -0.229412 -0.238830 0.423264
v -0.229412 0.204398 0.423264
v -0.229412 0.204398 0.423264
v -0.229412 -0.238830 0.423264
v -0.234958 0.204034 0.423264
v -0.266209 0.183153 0.423264
v -0.266209 -0.217585 0.423264
v -0.263121 -0.222206 0.423264
v -0.263121 -0.222206 0.423264
v -0.266209 -0.217585 0.423264
v -0.266209 0.183153 0.423264
v -0.270454 0.172906 0.423264
v -0.268667 -0.212601 0.423264
v -0.268667 0.178168 0.423264
v -0.268667 0.178168 0.423264
v -0.268667 -0.212601 0.423264
v -0.270454 0.172906 0.423264
v -0.268667 0.178168 0.423264
v -0.266209 -0.217585 0.423264
v -0.266209 0.183153 0.423264
v -0.266209 0.183153 0.423264
v -0.266209 -0.217585 0.423264
v -0.268667 0.178168 0.423264
v -0.271538 0.167455 0.423264
v -0.270454 -0.207338 0.423264
v -0.270454 0.172906 0.423264
v -0.270454 0.172906 0.423264
v -0.270454 -0.207338 0.423264
v -0.271538 0.167455 0.423264
v -0.271538 0.167455 0.423264
v -0.271538 -0.201887 0.423264
v -0.270454 -0.207338 0.423264
v -0.270454 -0.207338 0.423264
v -0.271538 -0.201887 0.423264
v -0.271538 0.167455 0.423264
v -0.250657 0.198705 0.423264
v -0.250657 -0.233137 0.423264
v -0.245672 -0.235595 0.423264
v -0.245672 -0.235595 0.423264
v -0.250657 -0.233137 0.423264
v -0.250657 0.198705 0.423264
v -0.250657 0.198705 0.423264
v -0.245672 -0.235595 0.423264
v -0.245672 0.201163 0.423264
v -0.245672 0.201163 0.423264
v -0.245672 -0.235595 0.423264
v -0.250657 0.198705 0.423264
v 0.259084 0.204398 0.423264
v 0.259084 -0.238830 0.423264
v 0.264630 -0.238466 0.423264
v 0.264630 -0.238466 0.423264
v 0.259084 -0.238830 0.423264
v 0.259084 0.204398 0.423264
v -0.229412 0.204398 0.423264
v 0.259084 -0.238830 0.423264
v 0.259084 0.204398 0.423264
v 0.259084 0.204398 0.423264
v 0.259084 -0.238830 0.423264
v -0.229412 0.204398 0.423264
v -0.263121 0.187774 0.423264
v -0.263121 -0.222206 0.423264
v -0.259457 -0.226385 0.423264
v -0.259457 -0.226385 0.423264
v -0.263121 -0.222206 0.423264
v -0.263121 0.187774 0.423264
v -0.266209 0.183153 0.423264
v -0.263121 -0.222206 0.423264
v -0.263121 0.187774 0.423264
v -0.263121 0.187774 0.423264
v -0.263121 -0.222206 0.423264
v -0.266209 0.183153 0.423264
v -0.271901 0.161909 0.423264
v -0.271538 -0.201887 0.423264
v -0.271538 0.167455 0.423264
v -0.271538 0.167455 0.423264
v -0.271538 -0.201887 0.423264
v -0.271901 0.161909 0.423264
v -0.271538 -0.201887 0.423264
v -0.271901 0.161909 0.423264
v -0.271901 -0.196341 0.423264
v -0.271901 -0.196341 0.423264
v -0.271901 0.161909 0.423264
v -0.271538 -0.201887 0.423264
v -0.255278 0.195617 0.423264
v -0.255278 -0.230050 0.423264
v -0.250657 -0.233137 0.423264
v -0.250657 -0.233137 0.423264
v -0.255278 -0.230050 0.423264
v -0.255278 0.195617 0.423264
v -0.255278 0.195617 0.423264
v -0.250657 -0.233137 0.423264
v -0.250657 0.198705 0.423264
v -0.250657 0.198705 0.423264
v -0.250657 -0.233137 0.423264
v -0.255278 0.195617 0.423264
v 0.264630 0.204034 0.423264
v 0.264630 -0.238466 0.423264
v 0.270081 -0.237382 0.423264
v 0.270081 -0.237382 0.423264
v 0.264630 -0.238466 0.423264
v 0.264630 0.204034 0.423264
v 0.259084 0.204398 0.423264
v 0.264630 -0.238466 0.423264
v 0.264630 0.204034 0.423264
v 0.264630 0.204034 0.423264
v 0.264630 -0.238466 0.423264
v 0.259084 0.204398 0.423264
v -0.259457 0.191953 0.423264
v -0.259457 -0.226385 0.423264
v -0.255278 -0.230050 0.423264
v -0.255278 -0.230050 0.423264
v -0.259457 -0.226385 0.423264
v -0.259457 0.191953 0.423264
v -0.263121 0.187774 0.423264
v -0.259457 -0.226385 0.423264
v -0.259457 0.191953 0.423264
v -0.259457 0.191953 0.423264
v -0.259457 -0.226385 0.423264
v -0.263121 0.187774 0.423264
v -0.259457 0.191953 0.423264
v -0.255278 -0.230050 0.423264
v -0.255278 0.195617 0.423264
v -0.255278 0.195617 0.423264
v -0.255278 -0.230050 0.423264
v -0.259457 0.191953 0.423264
v 0.270081 0.202950 0.423264
v 0.270081 -0.237382 0.423264
v 0.275343 -0.235595 0.423264
v 0.275343 -0.235595 0.423264
v 0.270081 -0.237382 0.423264
v 0.270081 0.202950 0.423264
v 0.264630 0.204034 0.423264
v 0.270081 -0.237382 0.423264
v 0.270081 0.202950 0.423264
v 0.270081 0.202950 0.423264
v 0.270081 -0.237382 0.423264
v 0.264630 0.204034 0.423264
v 0.301209 0.167455 0.423264
v 0.301573 -0.196341 0.423264
v 0.301573 0.161909 0.423264
v 0.301573 0.161909 0.423264
v 0.301573 -0.196341 0.423264
v 0.301209 0.167455 0.423264
v 0.275343 0.201163 0.423264
v 0.275343 -0.235595 0.423264
v 0.280328 -0.233137 0.423264
v 0.280328 -0.233137 0.423264
v 0.275343 -0.235595 0.423264
v 0.275343 0.201163 0.423264
v 0.270081 0.202950 0.423264
v 0.275343 -0.235595 0.423264
v 0.275343 0.201163 0.423264
v 0.275343 0.201163 0.423264
v 0.275343 -0.235595 0.423264
v 0.270081 0.202950 0.423264
v 0.301209 0.167455 0.423264
v 0.301209 -0.201887 0.423264
v 0.301573 -0.196341 0.423264
v 0.301573 -0.196341 0.423264
v 0.301209 -0.201887 0.423264
v 0.301209 0.167455 0.423264
v 0.300125 0.172906 0.423264
v 0.301209 -0.201887 0.423264
v 0.301209 0.167455 0.423264
v 0.301209 0.167455 0.423264
v 0.301209 -0.201887 0.423264
v 0.300125 0.172906 0.423264
v 0.280328 0.198705 0.423264
v 0.280328 -0.233137 0.423264
v 0.284949 -0.230050 0.423264
v 0.284949 -0.230050 0.423264
v 0.280328 -0.233137 0.423264
v 0.280328 0.198705 0.423264
v 0.275343 0.201163 0.423264
v 0.280328 -0.233137 0.423264
v 0.280328 0.198705 0.423264
v 0.280328 0.198705 0.423264
v 0.280328 -0.233137 0.423264
v 0.275343 0.201163 0.423264
v 0.292792 0.187774 0.423264
v 0.295880 -0.217585 0.423264
v 0.295880 0.183153 0.423264
v 0.295880 0.183153 0.423264
v 0.295880 -0.217585 0.423264
v 0.292792 0.187774 0.423264
v 0.295880 0.183153 0.423264
v 0.298338 -0.212601 0.423264
v 0.298338 0.178168 0.423264
v 0.298338 0.178168 0.423264
v 0.298338 -0.212601 0.423264
v 0.295880 0.183153 0.423264
v 0.300125 0.172906 0.423264
v 0.300125 -0.207338 0.423264
v 0.301209 -0.201887 0.423264
v 0.301209 -0.201887 0.423264
v 0.300125 -0.207338 0.423264
v 0.300125 0.172906 0.423264
v 0.298338 0.178168 0.423264
v 0.300125 -0.207338 0.423264
v 0.300125 0.172906 0.423264
v 0.300125 0.172906 0.423264
v 0.300125 -0.207338 0.423264
v 0.298338 0.178168 0.423264
v 0.284949 0.195617 0.423264
v 0.284949 -0.230050 0.423264
v 0.289128 -0.226385 0.423264
v 0.289128 -0.226385 0.423264
v 0.284949 -0.230050 0.423264
v 0.284949 0.195617 0.423264
v 0.280328 0.198705 0.423264
v 0.284949 -0.230050 0.423264
v 0.284949 0.195617 0.423264
v 0.284949 0.195617 0.423264
v 0.284949 -0.230050 0.423264
v 0.280328 0.198705 0.423264
v 0.289128 0.191953 0.423264
v 0.292792 -0.222206 0.423264
v 0.292792 0.187774 0.423264
v 0.292792 0.187774 0.423264
v 0.292792 -0.222206 0.423264
v 0.289128 0.191953 0.423264
v 0.292792 0.187774 0.423264
v 0.292792 -0.222206 0.423264
v 0.295880 -0.217585 0.423264
v 0.295880 -0.217585 0.423264
v 0.292792 -0.222206 0.423264
v 0.292792 0.187774 0.423264
v 0.295880 0.183153 0.423264
v 0.295880 -0.217585 0.423264
v 0.298338 -0.212601 0.423264
v 0.298338 -0.212601 0.423264
v 0.295880 -0.217585 0.423264
v 0.295880 0.183153 0.423264
v 0.298338 0.178168 0.423264
v 0.298338 -0.212601 0.423264
v 0.300125 -0.207338 0.423264
v 0.300125 -0.207338 0.423264
v 0.298338 -0.212601 0.423264
v 0.298338 0.178168 0.423264
v 0.289128 0.191953 0.423264
v 0.289128 -0.226385 0.423264
v 0.292792 -0.222206 0.423264
v 0.292792 -0.222206 0.423264
v 0.289128 -0.226385 0.423264
v 0.289128 0.191953 0.423264
v 0.284949 0.195617 0.423264
v 0.289128 -0.226385 0.423264
v 0.289128 0.191953 0.423264
v 0.289128 0.191953 0.423264
v 0.289128 -0.226385 0.423264
v 0.284949 0.195617 0.423264
vn 0 0 1
vn 0 0 -1
usemtl material_0_0
f 1//1 2//1 3//1
f 4//2 5//2 6//2
f 7//1 8//1 9//1
f 10//2 11//2 12//2
f 13//1 14//1 15//1
f 16//2 17//2 18//2
f 19//1 20//1 21//1
f 22//2 23//2 24//2
f 25//1 26//1 27//1
f 28//2 29//2 30//2
f 31//1 32//1 33//1
f 34//2 35//2 36//2
f 37//1 38//1 39//1
f 40//2 41//2 42//2
f 43//1 44//1 45//1
f 46//2 47//2 48//2
f 49//1 50//1 51//1
f 52//2 53//2 54//2
f 55//1 56//1 57//1
f 58//2 59//2 60//2
f 61//1 62//1 63//1
f 64//2 65//2 66//2
f 67//1 68//1 69//1
f 70//2 71//2 72//2
f 73//1 74//1 75//1
f 76//2 77//2 78//2
f 79//1 80//1 81//1
f 82//2 83//2 84//2
f 85//1 86//1 87//1
f 88//2 89//2 90//2
f 91//1 92//1 93//1
f 94//2 95//2 96//2
f 97//1 98//1 99//1
f 100//2 101//2 102//2
f 103//1 104//1 105//1
f 106//2 107//2 108//2
f 109//1 110//1 111//1
f 112//2 113//2 114//2
f 115//1 116//1 117//1
f 118//2 119//2 120//2
f 121//1 122//1 123//1
f 124//2 125//2 126//2
f 127//1 128//1 129//1
f 130//2 131//2 132//2
f 133//1 134//1 135//1
f 136//2 137//2 138//2
f 139//1 140//1 141//1
f 142//2 143//2 144//2
f 145//1 146//1 147//1
f 148//2 149//2 150//2
f 151//1 152//1 153//1
f 154//2 155//2 156//2
f 157//1 158//1 159//1
f 160//2 161//2 162//2
f 163//1 164//1 165//1
f 166//2 167//2 168//2
f 169//1 170//1 171//1
f 172//2 173//2 174//2
f 175//1 176//1 177//1
f 178//2 179//2 180//2
f 181//1 182//1 183//1
f 184//2 185//2 186//2
f 187//1 188//1 189//1
f 190//2 191//2 192//2
f 193//1 194//1 195//1
f 196//2 197//2 198//2
f 199//1 200//1 201//1
f 202//2 203//2 204//2
f 205//1 206//1 207//1
f 208//2 209//2 210//2
f 211//1 212//1 213//1
f 214//2 215//2 216//2
f 217//1 218//1 219//1
f 220//2 221//2 222//2
f 223//1 224//1 225//1
f 226//2 227//2 228//2
f 229//1 230//1 231//1
f 232//2 233//2 234//2
f 235//1 236//1 237//1
f 238//2 239//2 240//2
f 241//1 242//1 243//1
f 244//2 245//2 246//2
f 247//1 248//1 249//1
f 250//2 251//2 252//2
f 253//1 254//1 255//1
f 256//2 257//2 258//2
f 259//1 260//1 261//1
f 262//2 263//2 264//2
f 265//1 266//1 267//1
f 268//2 269//2 270//2
f 271//1 272//1 273//1
f 274//2 275//2 276//2
f 277//1 278//1 279//1
f 280//2 281//2 282//2
f 283//1 284//1 285//1
f 286//2 287//2 288//2
f 289//1 290//1 291//1
f 292//2 293//2 294//2
f 295//1 296//1 297//1
f 298//2 299//2 300//2
