# SSTK version 0.8.0
# 50
mtllib original-50.mtl
o mesh16/mesh16-geometry/material_4/component_2#mesh16-geometry
v -0.014126 0.690060 -0.273676
v -0.101431 0.728833 -0.283369
v -0.101450 0.690060 -0.273676
v -0.101450 0.690060 -0.273676
v -0.101431 0.728833 -0.283369
v -0.014126 0.690060 -0.273676
v -0.101431 0.728833 -0.283369
v -0.014126 0.690060 -0.273676
v -0.014119 0.728833 -0.283369
v -0.014119 0.728833 -0.283369
v -0.014126 0.690060 -0.273676
v -0.101431 0.728833 -0.283369
vn 0 0.24253584943015005 0.9701424440468501
vn 0 -0.24253584943015005 -0.9701424440468501
usemtl material_0_0
f 1//1 2//1 3//1
f 4//2 5//2 6//2
f 7//1 8//1 9//1
f 10//2 11//2 12//2
