# SSTK version 0.8.0
# 12
mtllib original-12.mtl
o Gas_Burner_Heating_Element1/Gas_Burner_Heating_Element/mesh5/mesh5-geometry#mesh5-geometry
v 0.319328 0.501885 0.275289
v 0.328090 0.478558 0.254135
v 0.319328 0.478558 0.275289
v 0.328090 0.501885 0.254135
v 0.305389 0.501885 0.293454
v 0.158648 0.501885 0.254135
v 0.331079 0.478558 0.231434
v 0.305389 0.478558 0.293454
v 0.181349 0.501885 0.293454
v 0.155659 0.501885 0.231434
v 0.167410 0.501885 0.275289
v 0.331079 0.501885 0.231434
v 0.287224 0.478558 0.307393
v 0.287224 0.501885 0.307393
v 0.158648 0.478558 0.254135
v 0.167410 0.478558 0.275289
v 0.328090 0.478558 0.208733
v 0.181349 0.478558 0.293454
v 0.199514 0.501885 0.307393
v 0.158648 0.501885 0.208733
v 0.155659 0.478558 0.231434
v 0.328090 0.501885 0.208733
v 0.266070 0.478558 0.316155
v 0.266070 0.501885 0.316155
v 0.319328 0.478558 0.187579
v 0.199514 0.478558 0.307393
v 0.220668 0.501885 0.316155
v 0.319328 0.501885 0.187579
v 0.158648 0.478558 0.208733
v 0.243369 0.478558 0.319144
v 0.243369 0.501885 0.319144
v 0.167410 0.501885 0.187579
v 0.305389 0.478558 0.169414
v 0.220668 0.478558 0.316155
v 0.305389 0.501885 0.169414
v 0.167410 0.478558 0.187579
v 0.181349 0.501885 0.169414
v 0.287224 0.501885 0.155475
v 0.199514 0.501885 0.155475
v 0.181349 0.478558 0.169414
v 0.287224 0.478558 0.155475
v 0.199514 0.478558 0.155475
v 0.266070 0.501885 0.146713
v 0.220668 0.501885 0.146713
v 0.220668 0.478558 0.146713
v 0.266070 0.478558 0.146713
v 0.243369 0.501885 0.143724
v 0.243369 0.478558 0.143724
vn -0.8660253028382762 0 -0.5000001748438417
vn -0.965925849201117 0 -0.2588189595935754
vn -0.7071067811865476 0 -0.7071067811865476
vn 0 -1 0
vn -1 0 0
vn -0.5000001748438417 0 -0.8660253028382762
vn 0.965925849201117 0 -0.2588189595935754
vn 1 0 0
vn 0.8660253028382762 0 -0.5000001748438417
vn -0.965925849201117 0 0.2588189595935754
vn 0.7071067811865476 0 -0.7071067811865476
vn -0.2588189595935754 0 -0.965925849201117
vn 0.5000001748438417 0 -0.8660253028382762
vn 0.965925849201117 0 0.2588189595935754
vn -0.8660253028382762 0 0.5000001748438417
vn 0 0 -1
vn 0.2588189595935754 0 -0.965925849201117
vn 0.8660253028382762 0 0.5000001748438417
vn -0.7071067811865476 0 0.7071067811865476
vn 0.7071067811865476 0 0.7071067811865476
vn -0.5000001748438417 0 0.8660253028382762
vn 0.5000001748438417 0 0.8660253028382762
vn -0.2588189595935754 0 0.965925849201117
vn 0.2588189595935754 0 0.965925849201117
vn 0 0 1
vn 0 1 0
usemtl material_0_0
f 1//1 2//2 3//1
f 2//2 1//1 4//2
f 3//1 5//3 1//1
f 6//4 4//4 1//4
f 4//2 7//5 2//2
f 5//3 3//1 8//3
f 9//4 1//4 5//4
f 10//4 4//4 6//4
f 6//4 1//4 11//4
f 7//5 4//2 12//5
f 13//6 5//3 8//3
f 11//4 1//4 9//4
f 9//4 5//4 14//4
f 10//4 12//4 4//4
f 15//7 10//8 6//7
f 16//9 6//7 11//9
f 12//5 17//10 7//5
f 5//3 13//6 14//6
f 18//11 11//9 9//11
f 9//4 14//4 19//4
f 20//4 12//4 10//4
f 10//8 15//7 21//8
f 6//7 16//9 15//7
f 11//9 18//11 16//9
f 17//10 12//5 22//10
f 23//12 14//6 13//6
f 19//13 18//11 9//11
f 19//4 14//4 24//4
f 20//4 22//4 12//4
f 21//8 20//14 10//8
f 22//10 25//15 17//10
f 14//6 23//12 24//12
f 18//11 19//13 26//13
f 19//4 24//4 27//4
f 20//4 28//4 22//4
f 20//14 21//8 29//14
f 25//15 22//10 28//15
f 30//16 24//12 23//12
f 27//17 26//13 19//13
f 27//4 24//4 31//4
f 32//4 28//4 20//4
f 29//14 32//18 20//14
f 28//15 33//19 25//15
f 24//12 30//16 31//16
f 26//13 27//17 34//17
f 31//16 34//17 27//17
f 32//4 35//4 28//4
f 32//18 29//14 36//18
f 33//19 28//15 35//19
f 34//17 31//16 30//16
f 37//4 35//4 32//4
f 36//18 37//20 32//18
f 38//21 33//19 35//19
f 39//4 35//4 37//4
f 37//20 36//18 40//20
f 33//19 38//21 41//21
f 39//4 38//4 35//4
f 37//20 42//22 39//22
f 42//22 37//20 40//20
f 43//23 41//21 38//21
f 44//4 38//4 39//4
f 45//24 39//22 42//22
f 41//21 43//23 46//23
f 44//4 43//4 38//4
f 39//22 45//24 44//24
f 47//25 46//23 43//23
f 43//4 44//4 47//4
f 48//25 44//24 45//24
f 46//23 47//25 48//25
f 44//24 48//25 47//25
usemtl material_1_0
f 3//18 2//14 1//18
f 4//14 1//18 2//14
f 1//18 5//20 3//18
f 1//26 4//26 6//26
f 2//14 7//8 4//14
f 8//20 3//18 5//20
f 5//26 1//26 9//26
f 6//26 4//26 10//26
f 11//26 1//26 6//26
f 12//8 4//14 7//8
f 8//20 5//20 13//22
f 9//26 1//26 11//26
f 14//26 5//26 9//26
f 4//26 12//26 10//26
f 6//10 10//5 15//10
f 11//15 6//10 16//15
f 7//8 17//7 12//8
f 14//22 13//22 5//20
f 9//19 11//15 18//19
f 19//26 14//26 9//26
f 10//26 12//26 20//26
f 21//5 15//10 10//5
f 15//10 16//15 6//10
f 16//15 18//19 11//15
f 22//7 12//8 17//7
f 13//22 14//22 23//24
f 9//19 18//19 19//21
f 24//26 14//26 19//26
f 12//26 22//26 20//26
f 10//5 20//2 21//5
f 17//7 25//9 22//7
f 24//24 23//24 14//22
f 26//21 19//21 18//19
f 27//26 24//26 19//26
f 22//26 28//26 20//26
f 29//2 21//5 20//2
f 28//9 22//7 25//9
f 23//24 24//24 30//25
f 19//21 26//21 27//23
f 31//26 24//26 27//26
f 20//26 28//26 32//26
f 20//2 32//1 29//2
f 25//9 33//11 28//9
f 31//25 30//25 24//24
f 34//23 27//23 26//21
f 27//23 34//23 31//25
f 28//26 35//26 32//26
f 36//1 29//2 32//1
f 35//11 28//9 33//11
f 30//25 31//25 34//23
f 32//26 35//26 37//26
f 32//1 37//3 36//1
f 35//11 33//11 38//13
f 37//26 35//26 39//26
f 40//3 36//1 37//3
f 41//13 38//13 33//11
f 35//26 38//26 39//26
f 39//6 42//6 37//3
f 40//3 37//3 42//6
f 38//13 41//13 43//17
f 39//26 38//26 44//26
f 42//6 39//6 45//12
f 46//17 43//17 41//13
f 38//26 43//26 44//26
f 44//12 45//12 39//6
f 43//17 46//17 47//16
f 47//26 44//26 43//26
f 45//12 44//12 48//16
f 48//16 47//16 46//17
f 47//16 48//16 44//12
