# SSTK version 0.8.0
# 29
mtllib original-29.mtl
o mesh17/mesh17-geometry#mesh17-geometry
v -0.295871 0.403786 0.418792
v -0.300096 0.408338 0.413820
v -0.295871 0.402957 0.414994
v -0.300096 0.409166 0.417619
v -0.293214 0.397520 0.420159
v -0.305603 0.413295 0.416718
v -0.293214 0.396691 0.416361
v -0.305603 0.412466 0.412919
v -0.292308 0.390796 0.421626
v -0.292308 0.389967 0.417827
v -0.293214 0.384072 0.423093
v -0.293214 0.383244 0.419294
v -0.295871 0.377806 0.424460
v -0.295871 0.376978 0.420661
v -0.300096 0.372426 0.425633
v -0.300096 0.371597 0.421835
v -0.305603 0.367469 0.422735
v -0.305603 0.368297 0.426534
vn -0.8660255095544043 -0.48851128743157707 0.10656706270221321
vn -0.707106734724362 -0.6908597408195263 0.15070794346094601
vn -0.9659258829157841 -0.2528719693482525 0.05516299331344575
vn -0.6087613236243019 -0.7751244120647732 0.16909108989070726
vn -1 0 0
vn -0.9659258829157841 0.2528719693482525 -0.05516299331344575
vn -0.8660255095544043 0.48851128743157707 -0.10656706270221321
vn -0.707106734724362 0.6908597408195263 -0.15070794346094601
vn -0.6087613236243019 0.7751244120647732 -0.16909108989070726
vn 0.8660255095544043 0.48851128743157707 -0.10656706270221321
vn 0.707106734724362 0.6908597408195263 -0.15070794346094601
vn 0.9659258829157841 0.2528719693482525 -0.05516299331344575
vn 0.6087613236243019 0.7751244120647732 -0.16909108989070726
vn 1 0 0
vn 0.9659258829157841 -0.2528719693482525 0.05516299331344575
vn 0.8660255095544043 -0.48851128743157707 0.10656706270221321
vn 0.707106734724362 -0.6908597408195263 0.15070794346094601
vn 0.6087613236243019 -0.7751244120647732 0.16909108989070726
usemtl material_0_0
f 1//1 2//2 3//1
f 2//2 1//1 4//2
f 3//1 5//3 1//1
f 6//4 2//2 4//2
f 5//3 3//1 7//3
f 2//2 6//4 8//4
f 7//3 9//5 5//3
f 9//5 7//3 10//5
f 10//5 11//6 9//5
f 11//6 10//5 12//6
f 12//6 13//7 11//6
f 13//7 12//6 14//7
f 14//7 15//8 13//7
f 15//8 14//7 16//8
f 17//9 15//8 16//8
f 15//8 17//9 18//9
usemtl material_1_0
f 3//10 2//11 1//10
f 4//11 1//10 2//11
f 1//10 5//12 3//10
f 4//11 2//11 6//13
f 7//12 3//10 5//12
f 8//13 6//13 2//11
f 5//12 9//14 7//12
f 10//14 7//12 9//14
f 9//14 11//15 10//14
f 12//15 10//14 11//15
f 11//15 13//16 12//15
f 14//16 12//15 13//16
f 13//16 15//17 14//16
f 16//17 14//16 15//17
f 16//17 15//17 17//18
f 18//18 17//18 15//17
