# SSTK version 0.8.0
# 6
mtllib original-6.mtl
o mesh7/mesh7-geometry#mesh7-geometry
v 0.342329 0.418492 0.407532
v 0.326228 0.418492 0.407532
v 0.334279 0.419528 0.407306
v 0.318727 0.415456 0.408195
v 0.349830 0.415456 0.408195
v 0.312285 0.410627 0.409248
v 0.356272 0.410627 0.409248
v 0.307342 0.404333 0.410621
v 0.361215 0.404333 0.410621
v 0.304235 0.397004 0.412220
v 0.364322 0.397004 0.412220
v 0.303175 0.389139 0.413936
v 0.365382 0.389139 0.413936
v 0.304235 0.381274 0.415651
v 0.364322 0.381274 0.415651
v 0.307342 0.373944 0.417250
v 0.361215 0.373944 0.417250
v 0.312285 0.367651 0.418623
v 0.356272 0.367651 0.418623
v 0.318727 0.362821 0.419677
v 0.349830 0.362821 0.419677
v 0.326228 0.359785 0.420339
v 0.342329 0.359785 0.420339
v 0.334279 0.358750 0.420565
vn 0 -0.21313382202416725 -0.977023016059177
vn 0 0.21313382202416725 0.977023016059177
usemtl material_0_0
f 1//1 2//1 3//1
f 2//1 1//1 4//1
f 4//1 1//1 5//1
f 4//1 5//1 6//1
f 6//1 5//1 7//1
f 6//1 7//1 8//1
f 8//1 7//1 9//1
f 8//1 9//1 10//1
f 10//1 9//1 11//1
f 10//1 11//1 12//1
f 12//1 11//1 13//1
f 12//1 13//1 14//1
f 14//1 13//1 15//1
f 14//1 15//1 16//1
f 16//1 15//1 17//1
f 16//1 17//1 18//1
f 18//1 17//1 19//1
f 18//1 19//1 20//1
f 20//1 19//1 21//1
f 20//1 21//1 22//1
f 22//1 21//1 23//1
f 22//1 23//1 24//1
usemtl material_1_0
f 3//2 2//2 1//2
f 4//2 1//2 2//2
f 5//2 1//2 4//2
f 6//2 5//2 4//2
f 7//2 5//2 6//2
f 8//2 7//2 6//2
f 9//2 7//2 8//2
f 10//2 9//2 8//2
f 11//2 9//2 10//2
f 12//2 11//2 10//2
f 13//2 11//2 12//2
f 14//2 13//2 12//2
f 15//2 13//2 14//2
f 16//2 15//2 14//2
f 17//2 15//2 16//2
f 18//2 17//2 16//2
f 19//2 17//2 18//2
f 20//2 19//2 18//2
f 21//2 19//2 20//2
f 22//2 21//2 20//2
f 23//2 21//2 22//2
f 24//2 23//2 22//2
